<svg width="24" height="30" viewBox="0 0 24 30" fill="none"
    xmlns="http://www.w3.org/2000/svg">
    <path d="M12.8916 28.8986L12.8771 28.9012L12.7833 28.9475L12.7568 28.9528L12.7383 28.9475L12.6445 28.9012C12.6304 28.8968 12.6199 28.899 12.6128 28.9078L12.6075 28.9211L12.5851 29.4866L12.5917 29.513L12.6049 29.5302L12.7423 29.628L12.7621 29.6333L12.778 29.628L12.9154 29.5302L12.9313 29.509L12.9365 29.4866L12.9141 28.9224C12.9106 28.9083 12.9031 28.9004 12.8916 28.8986ZM13.2418 28.7493L13.2246 28.7519L12.9801 28.8748L12.9669 28.888L12.963 28.9026L12.9868 29.4707L12.9934 29.4866L13.0039 29.4958L13.2695 29.6187C13.2863 29.6231 13.299 29.6196 13.3078 29.6081L13.3131 29.5897L13.2682 28.7784C13.2638 28.7625 13.255 28.7528 13.2418 28.7493ZM12.297 28.7519C12.2912 28.7484 12.2842 28.7473 12.2776 28.7487C12.2709 28.7502 12.2651 28.7542 12.2613 28.7599L12.2534 28.7784L12.2085 29.5897C12.2094 29.6055 12.2169 29.6161 12.231 29.6214L12.2508 29.6187L12.5164 29.4958L12.5296 29.4853L12.5349 29.4707L12.5573 28.9026L12.5534 28.8867L12.5401 28.8735L12.297 28.7519Z" fill="currentColor"/>
    <path d="M11.466 0.997596L9.8011 0L9.48398 1.91459C8.97924 4.93777 6.91402 7.7469 4.63606 9.72095C0.176609 13.5871 -0.799846 17.7889 0.580933 21.2574C1.90225 24.5765 5.25576 26.8492 8.65948 27.2284L9.44699 27.3156C7.49936 26.1251 6.24939 23.3438 6.68543 21.2653C7.11618 19.2226 8.58549 17.3093 11.4078 15.544L12.8309 14.6561L13.3621 16.2483C13.6752 17.189 14.2169 17.9448 14.7679 18.7125C15.0322 19.0825 15.3004 19.4564 15.5462 19.8541C16.3958 21.2349 16.6204 22.7703 16.0721 24.2938C15.5726 25.6785 14.7494 26.7673 13.6144 27.3711L14.8961 27.2284C18.0911 26.873 20.4364 25.7803 21.9599 23.9529C23.4701 22.1413 24 19.8092 24 17.3265C24 15.0142 23.05 12.6305 21.9295 10.6472C20.6161 8.32431 18.9023 6.39519 17.0314 4.52552C16.7076 5.17297 16.7327 5.43459 16.0668 6.47447C15.202 4.17796 13.5788 2.24568 11.466 0.997596Z" fill="currentColor"/>
</svg>
