<svg width="300" height="300" viewBox="0 0 300 300" fill="none"
    xmlns="http://www.w3.org/2000/svg">
    <mask id="mask0_54_1433" style="mask-type:luminance" maskUnits="userSpaceOnUse" x="47" y="46" width="206" height="206">
        <path d="M47 46.0001H253V252H47V46.0001Z" fill="white"/>
    </mask>
    <g mask="url(#mask0_54_1433)">
        <path d="M210.754 221.856H89.2461C69.2472 221.856 53.0352 205.644 53.0352 185.645V158.885H246.965V185.645C246.965 205.644 230.753 221.856 210.754 221.856Z" stroke="currentColor" stroke-width="9" stroke-miterlimit="10"/>
        <path d="M198.577 221.855V245.966H101.423V221.855" stroke="currentColor" stroke-width="9" stroke-miterlimit="10"/>
        <path d="M64.856 158.883C64.7514 157.919 64.7031 156.946 64.7031 155.954C64.7031 140.418 77.3126 127.825 92.8672 127.825C95.3778 127.825 97.808 128.158 100.125 128.773C100.48 113.543 112.94 101.303 128.273 101.303C137.02 101.303 144.834 105.285 150 111.534C155.166 105.285 162.98 101.303 171.727 101.303C187.06 101.303 199.52 113.543 199.874 128.773C202.192 128.158 204.622 127.825 207.133 127.825C222.687 127.825 235.297 140.418 235.297 155.954C235.297 156.942 235.245 157.919 235.144 158.883" stroke="currentColor" stroke-width="9" stroke-miterlimit="10"/>
        <path d="M248.574 50.2685L190.396 108.375" stroke="currentColor" stroke-width="9" stroke-miterlimit="10"/>
        <path d="M109.605 108.375L51.4258 50.2685" stroke="currentColor" stroke-width="9" stroke-miterlimit="10"/>
    </g>
</svg>
