<svg width="27" height="24" viewBox="0 0 27 24" fill="none"
    xmlns="http://www.w3.org/2000/svg">
    <path d="M13.8751 21.75H11.2502V15.8803L19.1598 7.97109C19.8873 7.24359 19.3721 6 18.3432 6H1.15713C0.128231 6 -0.386921 7.24359 0.340572 7.97109L8.25018 15.8803V21.75H5.62521C4.58975 21.75 3.75023 22.5895 3.75023 23.625C3.75023 23.8322 3.91804 24 4.12522 24H15.3751C15.5823 24 15.7501 23.8322 15.7501 23.625C15.7501 22.5895 14.9106 21.75 13.8751 21.75ZM20.2501 0C17.3153 0 14.8431 1.88438 13.9136 4.5H16.3764C17.1568 3.16172 18.5921 2.25 20.2501 2.25C22.7311 2.25 24.75 4.26844 24.75 6.75C24.75 9.23156 22.7311 11.25 20.2501 11.25C19.5919 11.25 18.9709 11.1 18.407 10.845L16.7542 12.4978C17.7765 13.1213 18.9652 13.5 20.2501 13.5C23.978 13.5 27 10.478 27 6.75C27 3.02203 23.978 0 20.2501 0Z" fill="currentColor"/>
</svg>
