<svg width="300" height="300" viewBox="0 0 300 300" fill="none"
    xmlns="http://www.w3.org/2000/svg">
    <path d="M192 104H101V133H192V104Z" stroke="currentColor" stroke-width="9" stroke-miterlimit="10"/>
    <path d="M183.238 266H109.762C98.2954 266 89 256.655 89 245.127V153.873C89 142.345 98.2954 133 109.762 133H183.238C194.705 133 204 142.345 204 153.873V245.127C204 256.655 194.705 266 183.238 266Z" stroke="currentColor" stroke-width="9" stroke-miterlimit="10"/>
    <path d="M89 170C108.166 170 108.166 177 127.332 177C146.499 177 146.499 170 165.666 170C184.833 170 184.833 177 204 177" stroke="currentColor" stroke-width="9" stroke-miterlimit="10"/>
    <path d="M174 104L182.471 63.3165L214 39" stroke="currentColor" stroke-width="9" stroke-miterlimit="10"/>
    <path d="M120.304 104L128.871 95.3228C141.043 82.9941 141.043 63.0059 128.871 50.6772L120.304 42L111.737 50.6772C106.911 55.5655 103.999 61.658 103 68" stroke="currentColor" stroke-width="9" stroke-miterlimit="10"/>
    <path d="M81.5962 60H69V72.3163C69 89.8147 83.5077 104 101.404 104H114V91.6837C114 74.1853 99.4923 60 81.5962 60Z" stroke="currentColor" stroke-width="9" stroke-miterlimit="10"/>
</svg>
