<svg width="35" height="11" viewBox="0 0 35 11" fill="none"
    xmlns="http://www.w3.org/2000/svg">
    <path d="M31.4286 4.71429C28.2857 4.71429 26.7143 0 22 0C17.2857 0 17.2857 3.14286 17.2857 3.14286C17.2857 3.14286 17.2857 0 12.5714 0C7.85714 0 6.28571 4.71429 3.14286 4.71429C1.57143 4.71429 0 3.14286 0 3.14286C0 3.14286 1.57143 11 7.85714 11C15.7143 11 17.2857 6.28571 17.2857 6.28571C17.2857 6.28571 18.8571 11 26.7143 11C33 11 34.5714 3.14286 34.5714 3.14286C34.5714 3.14286 33 4.71429 31.4286 4.71429Z" fill="currentColor"/>
</svg>
