<svg width="32" height="32" viewBox="0 0 32 32" fill="none" xmlns="http://www.w3.org/2000/svg">
<path d="M30.0351 11.2915C31.8483 13.1467 32.1911 15.4399 31.9157 17.9378C31.6647 20.2167 31.1339 21.2502 29.2934 22.613C28.0382 23.5434 26.9408 24.2191 25.7903 25.3399C22.5082 28.5363 20.966 32.7191 15.4116 31.8946C12.7706 31.5023 11.9745 30.3271 10.0823 28.8441C8.95051 27.9566 8.57897 27.8979 7.22192 27.6202C3.18519 26.7943 -0.183064 21.1672 0.00772745 17.2321C0.0608046 16.1456 0.0780188 15.0262 0.146876 13.9412C0.37353 10.394 3.36593 9.59097 5.56649 7.26485C8.76977 3.88231 9.72516 -0.563807 15.5263 0.0588779C17.4414 0.265008 20.2201 0.647208 21.5987 2.08296C22.8897 3.42853 22.9801 4.90723 23.6959 6.42315C24.538 8.20675 28.5589 9.77849 30.0351 11.2901V11.2915ZM12.6889 10.2151C6.58643 10.7819 4.7775 18.8826 9.91164 22.1549C14.505 25.0822 20.3793 21.4621 19.9461 16.0898C19.6434 12.3351 16.3928 9.87154 12.6889 10.2151Z" fill="white"/>
</svg>
