<svg width="300" height="300" viewBox="0 0 300 300" fill="none"
    xmlns="http://www.w3.org/2000/svg">
    <path d="M125.508 67.0778C157.289 60.0203 179.295 38.8405 206.829 54.8447C234.363 70.849 212.777 101.365 236.74 125.421C253.699 142.446 273.762 175.443 258.658 199.898C232.532 242.196 173.755 215.416 151.556 223.899C129.853 232.193 88.5966 276.622 48.6906 233.326C22.7089 205.137 49.3171 146.924 41.3835 121.186C35.4102 101.808 33.9809 71.7006 57.5109 62.7045C82.4204 53.1811 95.6666 71.5161 125.508 67.0778Z" stroke="currentColor" stroke-width="9" stroke-miterlimit="22.926" stroke-linecap="round" stroke-linejoin="round"/>
    <path d="M94.766 131.296C74.2917 143.117 66.0577 167.187 76.3757 185.058C86.6931 202.929 111.655 207.833 132.13 196.012C152.604 184.191 160.838 160.121 150.52 142.25C140.202 124.38 115.24 119.475 94.766 131.296Z" stroke="currentColor" stroke-width="9" stroke-miterlimit="22.926" stroke-linecap="round" stroke-linejoin="round"/>
</svg>
