<svg width="41" height="8" viewBox="0 0 41 8" fill="none"
    xmlns="http://www.w3.org/2000/svg">
    <path d="M7.80566 7.71913L7.81391 7.72014L7.86716 7.73781L7.88216 7.73983L7.89266 7.73781L7.94591 7.72014C7.95392 7.71846 7.95992 7.7193 7.96392 7.72266L7.96692 7.72771L7.97967 7.94378L7.97592 7.95388L7.96842 7.96044L7.89041 7.9978L7.87916 7.99982L7.87016 7.9978L7.79216 7.96044L7.78316 7.95237L7.78016 7.94378L7.79291 7.72822C7.79491 7.72283 7.79916 7.7198 7.80566 7.71913ZM7.6069 7.66208L7.61665 7.66309L7.75541 7.71004L7.76291 7.71509L7.76516 7.72064L7.75166 7.93773L7.74791 7.94378L7.74191 7.94732L7.59115 7.99427C7.58165 7.99595 7.5744 7.99461 7.5694 7.99023L7.5664 7.98316L7.5919 7.67319C7.5944 7.66713 7.5994 7.66343 7.6069 7.66208ZM8.14317 7.66309C8.14648 7.66174 8.15043 7.6613 8.1542 7.66187C8.15797 7.66243 8.16128 7.66396 8.16342 7.66612L8.16792 7.67319L8.19342 7.98316C8.19292 7.98922 8.18867 7.99326 8.18067 7.99528L8.16942 7.99427L8.01867 7.94732L8.01117 7.94328L8.00817 7.93773L7.99542 7.72064L7.99767 7.71458L8.00517 7.70954L8.14317 7.66309Z" fill="currentColor"/>
    <path d="M3.04754 0.704736C1.77025 1.09246 0.669209 1.67455 0.0751879 2.49896C0.0133357 2.5848 -0.0111172 2.68068 0.00466409 2.77549C0.0204454 2.87029 0.0758143 2.96015 0.164355 3.03465C0.252895 3.10915 0.370984 3.16523 0.504937 3.19641C0.63889 3.22758 0.783225 3.23257 0.921218 3.21079C5.38912 2.50603 9.90878 3.71766 12.2916 4.37901C13.7872 4.79399 15.2392 4.45524 15.99 3.77269C16.3804 3.42482 16.5569 2.98912 16.4828 2.55601C16.2278 1.13991 13.5832 0.534097 11.8386 0.267538C9.00275 -0.165115 5.72739 -0.109582 3.04754 0.704736Z" fill="currentColor"/>
    <path d="M32.6937 7.71913L32.6855 7.72014L32.6322 7.73781L32.6172 7.73983L32.6067 7.73781L32.5535 7.72014C32.5455 7.71846 32.5395 7.7193 32.5355 7.72266L32.5325 7.72771L32.5197 7.94378L32.5235 7.95388L32.531 7.96044L32.609 7.9978L32.6202 7.99982L32.6292 7.9978L32.7072 7.96044L32.7162 7.95237L32.7192 7.94378L32.7065 7.72822C32.7045 7.72283 32.7002 7.7198 32.6937 7.71913ZM32.8925 7.66208L32.8827 7.66309L32.744 7.71004L32.7365 7.71509L32.7342 7.72064L32.7477 7.93773L32.7515 7.94378L32.7575 7.94732L32.9082 7.99427C32.9177 7.99595 32.925 7.99461 32.93 7.99023L32.933 7.98316L32.9075 7.67319C32.905 7.66713 32.9 7.66343 32.8925 7.66208ZM32.3562 7.66309C32.3529 7.66174 32.349 7.6613 32.3452 7.66187C32.3414 7.66243 32.3381 7.66396 32.336 7.66612L32.3315 7.67319L32.306 7.98316C32.3065 7.98922 32.3107 7.99326 32.3187 7.99528L32.33 7.99427L32.4807 7.94732L32.4882 7.94328L32.4912 7.93773L32.504 7.72064L32.5017 7.71458L32.4942 7.70954L32.3562 7.66309Z" fill="currentColor"/>
    <path d="M37.4519 0.704736C38.7292 1.09246 39.8302 1.67455 40.4243 2.49896C40.4861 2.5848 40.5106 2.68068 40.4948 2.77549C40.479 2.87029 40.4236 2.96015 40.3351 3.03465C40.2466 3.10915 40.1285 3.16523 39.9945 3.19641C39.8606 3.22758 39.7162 3.23257 39.5782 3.21079C35.1103 2.50603 30.5907 3.71766 28.2078 4.37901C26.7123 4.79399 25.2602 4.45524 24.5095 3.77269C24.119 3.42482 23.9426 2.98912 24.0167 2.55601C24.2717 1.13991 26.9163 0.534097 28.6609 0.267538C31.4967 -0.165115 34.7721 -0.109582 37.4519 0.704736Z" fill="currentColor"/>
</svg>
