<svg width="300" height="300" viewBox="0 0 300 300" fill="none"
    xmlns="http://www.w3.org/2000/svg">
    <g clip-path="url(#clip0_54_1323)">
        <path d="M64.8002 44.1528H52.1458C45.0649 44.1528 39.3252 49.8926 39.3252 56.973V88.1137C39.3252 95.7253 45.9179 101.661 53.4874 100.864L87.8141 97.2513" stroke="currentColor" stroke-width="10" stroke-miterlimit="10" stroke-linecap="round" stroke-linejoin="round"/>
        <path d="M118.103 94.0645L151.31 90.5699C159.651 89.692 168.059 89.6499 176.408 90.4444C197.42 92.4435 217.592 99.6934 235.069 111.527L237.566 113.218C241.538 115.907 246.56 111.745 244.656 107.344L239.097 94.4954C230.559 74.7588 214.734 59.0776 194.92 50.7185C184.649 46.3851 173.614 44.1528 162.466 44.1528H80.3174" stroke="currentColor" stroke-width="10" stroke-miterlimit="10" stroke-linecap="round" stroke-linejoin="round"/>
        <path d="M224.151 207.08L256.499 241.366C260.811 245.9 260.721 253.045 256.296 257.469C251.872 261.893 244.727 261.983 240.193 257.672L106.739 131.759L130.586 107.912L212.452 194.68" stroke="currentColor" stroke-width="10" stroke-miterlimit="10" stroke-linecap="round" stroke-linejoin="round"/>
        <path d="M92.0922 117.111L106.739 131.758L130.586 107.912L97.3948 74.7203C93.7122 71.0378 87.4356 73.9227 87.8324 79.1158L90.4655 113.571C90.567 114.908 91.1443 116.163 92.0922 117.111Z" stroke="currentColor" stroke-width="10" stroke-miterlimit="10" stroke-linecap="round" stroke-linejoin="round"/>
    </g>
    <defs>
        <clipPath id="clip0_54_1323">
            <rect width="227" height="227" fill="white" transform="translate(36 39)"/>
        </clipPath>
    </defs>
</svg>
