<svg width="300" height="300" viewBox="0 0 300 300" fill="none"
    xmlns="http://www.w3.org/2000/svg">
    <path d="M200.662 54H101.837C68.4481 54 41.3813 81.0672 41.3813 114.456C41.3813 117.525 43.8688 120.012 46.9375 120.012H255.563C258.631 120.012 261.119 117.525 261.119 114.456C261.119 81.0672 234.051 54 200.662 54Z" stroke="currentColor" stroke-width="9" stroke-miterlimit="10" stroke-linecap="round" stroke-linejoin="round"/>
    <path d="M250.688 196.359C256.448 196.359 261.118 201.029 261.118 206.79V213.796C261.118 231.029 247.148 245 229.914 245H72.5851C55.3515 245 41.381 231.029 41.381 213.796V206.79C41.381 201.029 46.0509 196.359 51.8117 196.359" stroke="currentColor" stroke-width="9" stroke-miterlimit="10" stroke-linecap="round" stroke-linejoin="round"/>
    <path d="M114.093 146.761H250.825C260.332 146.761 268.039 154.467 268.039 163.975V168.633C268.039 178.14 260.332 185.847 250.825 185.847H48.2139C38.7067 185.847 31 178.14 31 168.633V163.975C31 154.467 38.7067 146.761 48.2139 146.761" stroke="currentColor" stroke-width="9" stroke-miterlimit="10" stroke-linecap="round" stroke-linejoin="round"/>
    <path d="M246.323 146.761H114.093L81.2897 167.222L54.4915 146.761V120.012H246.323V146.761Z" stroke="currentColor" stroke-width="9" stroke-miterlimit="10" stroke-linecap="round" stroke-linejoin="round"/>
    <path d="M54.4915 196.359L77.5059 213.141C83.0645 217.194 90.34 218.039 96.6795 215.368L110.819 209.411C115.689 207.359 121.181 207.359 126.051 209.411L142.791 216.463C147.661 218.515 153.153 218.515 158.023 216.463L174.763 209.411C179.633 207.359 185.125 207.359 189.995 209.411L204.135 215.368C210.475 218.039 217.75 217.194 223.308 213.141L246.323 196.359V185.847H54.4915V196.359Z" stroke="currentColor" stroke-width="9" stroke-miterlimit="10" stroke-linecap="round" stroke-linejoin="round"/>
</svg>
