<svg width="26" height="23" viewBox="0 0 26 23" fill="none"
    xmlns="http://www.w3.org/2000/svg">
    <path d="M26 12.7778C26 14.1961 24.843 15.3333 23.4 15.3333H2.6C1.91044 15.3333 1.24912 15.0641 0.761522 14.5848C0.273928 14.1056 0 13.4556 0 12.7778C0 12.1 0.273928 11.45 0.761522 10.9707C1.24912 10.4915 1.91044 10.2222 2.6 10.2222H14.3L17.55 12.7778L20.8 10.2222H23.4C24.0896 10.2222 24.7509 10.4915 25.2385 10.9707C25.7261 11.45 26 12.1 26 12.7778ZM13 0C1.3 0 1.3 7.66667 1.3 7.66667H24.7C24.7 7.66667 24.7 0 13 0ZM1.3 19.1667C1.3 21.2878 3.042 23 5.2 23H20.8C22.958 23 24.7 21.2878 24.7 19.1667V17.8889H1.3V19.1667Z" fill="currentColor"/>
</svg>
