<svg width="35" height="20" viewBox="0 0 35 20" fill="none"
    xmlns="http://www.w3.org/2000/svg">
    <path d="M28.5467 0V1.37762C29.7074 1.30185 31.3605 1.32252 31.9426 2.53482C32.287 3.24774 32.2353 6.85023 32.1596 7.83178C31.9942 10.067 30.6511 10.7041 28.5433 10.4871V12.9806C28.5433 13.0461 28.1403 14.0552 28.0577 14.2136C27.3551 15.6222 26.0326 16.2249 24.5103 16.3386C19.3098 16.7243 13.6202 16.0493 8.36803 16.311C7.20393 16.1905 5.79187 15.3364 5.19605 14.3273C5.10995 14.1826 4.65533 13.0495 4.65533 12.9772V0H28.5399H28.5467ZM28.5467 8.76512C29.1426 8.70657 30.3618 9.02687 30.5753 8.30017C30.7027 7.86622 30.6752 3.52327 30.534 3.08243C30.2619 2.24552 29.2493 2.66225 28.5502 2.57615V8.76512H28.5467Z" fill="currentColor"/>
    <path d="M28.5468 18.3912C28.6225 19.0663 28.3298 19.4933 27.61 19.4313H5.42683C4.79312 19.4313 4.60026 18.9595 4.66225 18.3912H0.450168C0.422616 18.3912 0.0265493 18.2087 0.0127731 18.1157C-0.0767723 17.8987 0.329626 17.3615 0.450168 17.3615H34.3018C34.3466 17.3615 34.7702 17.7644 34.7185 17.9401C34.7013 18.033 34.3328 18.3947 34.3018 18.3947H28.5433L28.5468 18.3912Z" fill="currentColor"/>
</svg>
