<svg width="300" height="300" viewBox="0 0 300 300" fill="none"
    xmlns="http://www.w3.org/2000/svg">
    <mask id="mask0_55_1548" style="mask-type:luminance" maskUnits="userSpaceOnUse" x="44" y="46" width="211" height="211">
        <path d="M44 46H255V257H44V46Z" fill="white"/>
    </mask>
    <g mask="url(#mask0_55_1548)">
        <path d="M149.5 250.818L89.9273 179.033C48.0594 128.583 83.9389 52.1817 149.5 52.1817C215.061 52.1817 250.94 128.583 209.072 179.033L149.5 250.818Z" stroke="currentColor" stroke-width="10" stroke-miterlimit="10" stroke-linecap="round" stroke-linejoin="round"/>
        <path d="M152.326 159.088H135.842C126.737 159.088 119.357 151.708 119.357 142.604V109.635H168.81V142.604C168.81 151.708 161.43 159.088 152.326 159.088Z" stroke="currentColor" stroke-width="10" stroke-miterlimit="10" stroke-linecap="round" stroke-linejoin="round"/>
        <path d="M179.113 138.483H168.81V117.877H179.113C184.803 117.877 189.416 122.49 189.416 128.18C189.416 133.87 184.803 138.483 179.113 138.483Z" stroke="currentColor" stroke-width="10" stroke-miterlimit="10" stroke-linecap="round" stroke-linejoin="round"/>
    </g>
</svg>
