<svg width="25" height="25" viewBox="0 0 25 25" fill="none"
    xmlns="http://www.w3.org/2000/svg">
    <path d="M24.7714 12.4481C24.7567 12.5361 24.6698 12.5414 24.6027 12.5665C23.8189 12.8631 22.8518 12.9993 22.024 13.2832C17.9763 14.6716 14.8653 17.9681 13.5649 22.0315C13.2726 22.9442 13.1353 23.9354 12.8545 24.825C12.8325 24.8942 12.8367 24.9843 12.7424 25C12.3683 23.0406 11.8371 21.1283 10.849 19.3879C9.03521 16.1972 6.30668 14.1089 2.80486 13.0485C2.25475 12.8819 1.4385 12.7635 0.946021 12.554C0.892582 12.5309 0.824473 12.5204 0.817139 12.4481C3.25437 11.9598 5.52291 11.1184 7.48339 9.56872C10.4885 7.19435 12.1252 3.73654 12.7435 0C12.8367 0.0157173 12.8336 0.10583 12.8556 0.174986C13.1364 1.06459 13.2737 2.05688 13.566 2.96848C14.5143 5.92963 16.4768 8.57014 19.0754 10.2729C20.8117 11.4097 22.746 12.0301 24.7714 12.4481Z" fill="currentColor"/>
    <path d="M22.418 4.91739L21.4812 5.36586C20.7593 5.83633 20.1547 6.60858 20.0646 7.47932C19.9158 7.39759 19.9409 7.16078 19.8812 7.00989C19.4589 5.9495 18.7716 5.42035 17.7415 5.01798C17.6871 4.99703 17.6158 4.99808 17.6074 4.91739C18.868 4.72983 19.745 3.57723 20.0394 2.40576C20.2406 3.58456 21.214 4.70783 22.419 4.91739H22.418Z" fill="currentColor"/>
</svg>
