<svg width="300" height="300" viewBox="0 0 300 300" fill="none"
    xmlns="http://www.w3.org/2000/svg">
    <mask id="mask0_53_1175" style="mask-type:luminance" maskUnits="userSpaceOnUse" x="20" y="24" width="260" height="260">
        <path d="M20 24H280V284H20V24Z" fill="white"/>
    </mask>
    <g mask="url(#mask0_53_1175)">
        <path d="M48.4375 143.844H251.562C259.976 143.844 266.797 150.665 266.797 159.078C266.797 167.492 259.976 174.312 251.562 174.312H48.4375C40.0241 174.312 33.2031 167.492 33.2031 159.078C33.2031 150.665 40.0241 143.844 48.4375 143.844Z" stroke="currentColor" stroke-width="8" stroke-miterlimit="10" stroke-linecap="round" stroke-linejoin="round"/>
        <path d="M53.0078 174.312V175.307C53.0078 207.204 44.2232 238.485 27.6172 265.719H272.383C255.777 238.485 246.992 207.204 246.992 175.307V174.312" stroke="currentColor" stroke-width="8" stroke-miterlimit="10" stroke-linecap="round" stroke-linejoin="round"/>
        <path d="M246.484 143.844V118.453C246.484 101.626 232.843 87.9844 216.016 87.9844H200.781C200.781 62.7431 180.319 42.2813 155.078 42.2813H89.0625C80.6491 42.2813 73.8281 49.1022 73.8281 57.5156C73.8281 65.9291 80.6491 72.75 89.0625 72.75H155.078C163.492 72.75 170.312 79.5709 170.312 87.9844C170.312 96.3978 163.492 103.219 155.078 103.219H78.9062C64.8835 103.219 53.5156 114.587 53.5156 128.609V143.844" stroke="currentColor" stroke-width="8" stroke-miterlimit="10" stroke-linecap="round" stroke-linejoin="round"/>
        <path d="M109.375 265.719C116.054 252.361 119.531 237.631 119.531 222.696V220.016" stroke="currentColor" stroke-width="8" stroke-miterlimit="10" stroke-linecap="round" stroke-linejoin="round"/>
        <path d="M228.711 265.719C218.743 249.105 213.477 230.093 213.477 210.718V204.781" stroke="currentColor" stroke-width="8" stroke-miterlimit="10" stroke-linecap="round" stroke-linejoin="round"/>
        <path d="M71.2891 265.719C81.2574 249.105 86.5234 230.093 86.5234 210.718V204.781" stroke="currentColor" stroke-width="8" stroke-miterlimit="10" stroke-linecap="round" stroke-linejoin="round"/>
        <path d="M190.625 265.719C183.946 252.361 180.469 237.631 180.469 222.696V220.016" stroke="currentColor" stroke-width="8" stroke-miterlimit="10" stroke-linecap="round" stroke-linejoin="round"/>
        <path d="M150 265.719V204.781" stroke="currentColor" stroke-width="8" stroke-miterlimit="10" stroke-linecap="round" stroke-linejoin="round"/>
    </g>
</svg>
