<svg width="23" height="23" viewBox="0 0 23 23" fill="none"
    xmlns="http://www.w3.org/2000/svg">
    <path d="M11.7136 0.2039C14.2036 -0.3211 16.7711 0.1229 18.8921 2.0609L18.9056 2.0734C17.0971 2.4784 15.4696 3.2454 14.0996 4.4224C12.3416 5.9329 11.0566 8.0769 10.3346 10.8739C9.6761 13.4284 8.5316 15.2854 7.0456 16.5624C5.6631 17.7504 3.9421 18.4729 1.9406 18.7584C0.105097 16.6634 -0.310403 14.1514 0.204097 11.7139C0.724597 9.2489 2.1921 6.8514 4.0946 4.9334C4.37292 4.65273 4.65243 4.37323 4.9331 4.0949C6.8511 2.1924 9.2481 0.7249 11.7136 0.2049" fill="currentColor"/>
    <path d="M3.21606 20.0489L3.23006 20.0614C5.35156 21.9989 7.91906 22.4434 10.4086 21.9179C12.8741 21.3979 15.2711 19.9304 17.1891 18.0279C17.4697 17.7494 17.7492 17.4697 18.0276 17.1889C19.9306 15.2709 21.3976 12.8739 21.9181 10.4089C22.4331 7.97092 22.0176 5.45892 20.1816 3.36392C18.1801 3.64942 16.4596 4.37192 15.0766 5.55992C13.5906 6.83692 12.4466 8.69392 11.7876 11.2484C11.0656 14.0454 9.78106 16.1894 8.02256 17.6999C6.65256 18.8769 5.02506 19.6439 3.21606 20.0489Z" fill="currentColor"/>
</svg>
