<svg width="300" height="300" viewBox="0 0 300 300" fill="none"
    xmlns="http://www.w3.org/2000/svg">
    <mask id="mask0_54_1408" style="mask-type:luminance" maskUnits="userSpaceOnUse" x="44" y="45" width="211" height="211">
        <path d="M44 45H255V256H44V45Z" fill="white"/>
    </mask>
    <g mask="url(#mask0_54_1408)">
        <path d="M176.871 129.305C169.312 121.747 157.058 121.747 149.5 129.305C141.941 121.747 129.687 121.747 122.129 129.305C114.57 136.864 114.57 149.118 122.129 156.676L149.5 184.047L176.871 156.676C184.429 149.118 184.429 136.864 176.871 129.305Z" stroke="currentColor" stroke-width="10" stroke-miterlimit="10"/>
        <path d="M101.635 198.365C75.2418 171.972 75.2418 129.027 101.635 102.634C128.028 76.2405 170.973 76.2405 197.366 102.634C223.76 129.027 223.76 171.972 197.366 198.365C170.973 224.758 128.028 224.758 101.635 198.365Z" stroke="currentColor" stroke-width="10" stroke-miterlimit="10"/>
        <path d="M209.46 186.27L226.602 203.412C233.282 210.092 233.282 220.922 226.602 227.601C219.922 234.281 209.092 234.281 202.412 227.601L185.271 210.46" stroke="currentColor" stroke-width="10" stroke-miterlimit="10"/>
        <path d="M206.596 231.786C167.841 259.076 113.933 255.391 79.2712 220.728C40.4851 181.942 40.4851 119.057 79.2712 80.2712C118.058 41.4851 180.942 41.4851 219.729 80.2712C254.668 115.211 258.134 169.707 230.123 208.526" stroke="currentColor" stroke-width="10" stroke-miterlimit="10"/>
    </g>
</svg>
