<svg width="300" height="300" viewBox="0 0 300 300" fill="none"
    xmlns="http://www.w3.org/2000/svg">
    <path d="M149.561 75.9502C181.262 75.9502 206.908 101.594 206.908 133.169C206.908 142.073 205.493 148.249 203.355 153.312C201.226 158.358 198.38 162.291 195.588 166.653C192.79 171.025 190.006 175.883 187.917 182.858C185.826 189.839 184.425 198.963 184.425 211.861C184.425 212.857 184.137 213.62 183.61 214.174C183.094 214.717 182.4 215.005 181.684 215.16C180.967 215.316 180.185 215.348 179.449 215.344C179.08 215.342 178.714 215.33 178.371 215.319C178.212 215.314 178.058 215.313 177.909 215.31V227.191C177.909 228.112 177.669 228.829 177.233 229.366C176.802 229.899 176.218 230.206 175.62 230.385C174.68 230.665 173.591 230.652 172.802 230.637C172.808 234.3 172.88 236.981 172.886 239.098C172.892 241.249 172.828 242.759 172.505 243.788C172.339 244.318 172.096 244.752 171.734 245.085C171.374 245.418 170.931 245.618 170.424 245.741C169.512 245.963 168.264 245.959 166.654 245.958C163.967 253.983 157.246 259.5 149.561 259.5C141.871 259.5 135.276 253.979 132.594 245.958C130.985 245.959 129.737 245.963 128.825 245.741C128.318 245.618 127.875 245.418 127.515 245.085C127.154 244.752 126.91 244.318 126.744 243.788C126.422 242.759 126.358 241.249 126.364 239.098C126.37 236.981 126.44 234.3 126.446 230.637C125.657 230.652 124.568 230.665 123.629 230.385C123.031 230.206 122.448 229.899 122.017 229.366C121.581 228.829 121.34 228.112 121.34 227.191V215.31C121.191 215.313 121.037 215.314 120.878 215.319C120.535 215.33 120.17 215.342 119.801 215.344C119.065 215.348 118.283 215.316 117.566 215.16C116.85 215.005 116.155 214.717 115.639 214.174C115.112 213.62 114.824 212.857 114.824 211.861C114.824 198.995 113.424 189.888 111.333 182.913C109.244 175.943 106.459 171.08 103.661 166.7C100.869 162.329 98.0228 158.385 95.8936 153.33C93.7565 148.257 92.3408 142.073 92.3408 133.169C92.341 101.595 117.987 75.9503 149.561 75.9502ZM140 245.959C142.22 250.439 145.95 252.624 149.625 252.624C153.3 252.624 157.03 250.439 159.25 245.959H140ZM133.326 239.21H165.924V230.629H133.326V239.21ZM128.088 223.753H171.033V215.3H128.088V223.753ZM149.561 82.6982C121.733 82.6984 99.0901 105.341 99.0898 133.169C99.0898 141.155 100.435 146.708 102.453 151.327C104.48 155.968 107.182 159.672 109.965 164.022C112.74 168.362 115.553 173.287 117.715 180.286C119.847 187.19 121.341 196.092 121.564 208.423H177.559C177.813 196.091 179.331 187.189 181.481 180.285C183.662 173.286 186.485 168.361 189.269 164.021C192.059 159.671 194.765 155.968 196.794 151.327C198.814 146.708 200.159 141.155 200.159 133.169C200.159 105.343 177.39 82.6982 149.561 82.6982ZM78.9727 182.461C79.8622 182.003 80.749 181.96 81.5283 182.217C82.3479 182.487 83.0145 183.077 83.4355 183.791C83.8563 184.505 84.0494 185.371 83.8828 186.214C83.7136 187.069 83.1811 187.859 82.2324 188.406L63.1982 199.392L63.1855 199.399L63.1719 199.406C62.6102 199.687 62.0223 199.842 61.543 199.842C58.0065 199.842 56.7266 195.223 59.7607 193.544L78.7949 182.558L78.9727 182.461ZM217.61 182.217C218.433 181.941 219.38 182.011 220.327 182.558L239.361 193.544H239.36C240.922 194.372 241.371 195.961 240.999 197.318C240.628 198.672 239.43 199.842 237.706 199.842C237.132 199.842 236.53 199.702 236.051 199.392L217.017 188.406C216.07 187.86 215.531 187.073 215.349 186.222C215.168 185.382 215.341 184.515 215.745 183.799C216.149 183.083 216.8 182.489 217.61 182.217ZM69.8467 142.123C70.9443 142.123 71.8025 142.549 72.3799 143.213C72.9484 143.867 73.2206 144.723 73.2207 145.561C73.2207 146.399 72.9485 147.255 72.3799 147.909C71.8025 148.573 70.9443 148.999 69.8467 148.999H47.874C46.7765 148.999 45.9181 148.573 45.3408 147.909C44.7722 147.255 44.5 146.399 44.5 145.561C44.5001 144.723 44.7724 143.867 45.3408 143.213C45.9181 142.549 46.7765 142.123 47.874 142.123H69.8467ZM251.375 142.123C252.473 142.123 253.331 142.549 253.908 143.213C254.477 143.867 254.749 144.723 254.749 145.561C254.749 146.399 254.477 147.255 253.908 147.909C253.331 148.573 252.473 148.999 251.375 148.999H229.402C228.305 148.999 227.446 148.573 226.869 147.909C226.301 147.255 226.028 146.399 226.028 145.561C226.028 144.723 226.301 143.867 226.869 143.213C227.446 142.549 228.305 142.123 229.402 142.123H251.375ZM149.561 88.3408C150.654 88.3408 151.511 88.7564 152.09 89.4072C152.66 90.0489 152.936 90.8907 152.936 91.7158C152.935 92.5408 152.66 93.3818 152.09 94.0234C151.511 94.6743 150.654 95.0898 149.561 95.0898C128.633 95.09 111.61 112.237 111.609 133.169C111.609 135.12 109.966 136.607 108.171 136.607C106.234 136.607 104.732 135.106 104.732 133.169C104.733 108.493 124.885 88.341 149.561 88.3408ZM60.457 91.4111C61.2894 91.1224 62.2466 91.1805 63.1982 91.7295L82.2324 102.716L82.2402 102.72C85.1894 104.489 84.0695 109.142 80.5771 109.142C79.98 109.142 79.3932 108.992 78.8213 108.706L78.8076 108.699L78.7949 108.691L59.7607 97.7061C58.8091 97.157 58.2786 96.3566 58.1104 95.4912C57.9448 94.6391 58.136 93.7594 58.5547 93.0312C58.9734 92.3031 59.6374 91.6955 60.457 91.4111ZM236.051 91.7295C237.001 91.1814 237.951 91.1215 238.774 91.4121C239.585 91.6982 240.234 92.3088 240.636 93.0391C241.037 93.7695 241.209 94.6496 241.029 95.499C240.847 96.3605 240.311 97.1581 239.361 97.7061L239.36 97.7051L220.327 108.691C219.848 109.002 219.246 109.142 218.672 109.142C215.18 109.142 214.061 104.489 217.01 102.72L217.017 102.716L236.051 91.7295ZM97.0312 54.5547C97.7594 54.136 98.6391 53.9448 99.4912 54.1104C100.357 54.2786 101.157 54.8091 101.706 55.7607H101.705L112.687 74.7871C114.055 77.0687 112.226 79.8875 109.704 79.8877C108.573 79.8877 107.59 79.3527 106.88 78.457L106.728 78.2539L106.716 78.2324L95.7295 59.1982C95.1805 58.2466 95.1224 57.2894 95.4111 56.457C95.6955 55.6374 96.3031 54.9734 97.0312 54.5547ZM199.736 54.1104C200.579 53.9438 201.445 54.1367 202.159 54.5576C202.873 54.9787 203.463 55.6452 203.733 56.4648C204.007 57.296 203.939 58.2497 203.392 59.1982L192.406 78.2324C191.799 79.2937 190.604 79.8876 189.546 79.8877C186.877 79.8877 185.202 77.0528 186.562 74.7871L197.544 55.7607C198.091 54.812 198.881 54.2795 199.736 54.1104ZM149.625 40.5C150.45 40.5001 151.291 40.7746 151.933 41.3447C152.583 41.9233 152.999 42.7804 152.999 43.874V65.8467C152.999 67.6416 151.511 69.2852 149.561 69.2852C147.723 69.285 146.25 67.6267 146.25 65.8467V43.874C146.25 42.7804 146.666 41.9233 147.316 41.3447C147.958 40.7744 148.8 40.5 149.625 40.5Z" fill="currentColor" stroke="currentColor"/>
</svg>
