<svg width="300" height="300" viewBox="0 0 300 300" fill="none"
    xmlns="http://www.w3.org/2000/svg">
    <path d="M201.281 48.0145C189.729 47.7109 178.065 52.1626 168.928 63.2673C166.012 66.8058 163.522 70.051 160.708 72.2638C153.856 76.7068 145.562 77.0847 139.314 72.2638C136.5 70.051 134.01 66.8059 131.094 63.2673C104.604 32.9436 64.5179 52.9808 54.1429 80.3619C45.7843 100.34 45.4546 128.118 56.2669 161.234C57.4962 165.823 63.8013 162.839 62.9212 159.289C52.4187 127.224 53.012 100.979 60.5213 83.0313C72.0686 58.3115 104.915 42.551 125.736 67.6757C127.707 70.0682 129.671 72.583 131.967 74.9011C126.461 74.2119 120.466 73.1972 115.09 71.6542C110.573 70.7291 110.015 76.8636 113.268 77.962C123.872 81.4536 151.456 88.0864 164.975 77.6924C168.743 74.7293 171.469 71.0711 174.267 67.6757C193.379 45.5481 227.415 54.8955 239.481 83.0313C247.138 101.332 247.653 128.241 236.497 161.169C224.715 195.946 218.285 217.596 212.582 230.003C208.785 238.787 202.841 245.026 194.274 245.089C187.555 245.089 183.954 242.172 180.812 236.94C173.353 223.162 173.297 207.171 166.868 193.96C159.121 178.422 141.103 178.593 133.154 193.96C126.24 207.934 126.771 223.972 119.21 236.94C116.068 242.172 112.473 245.089 105.754 245.089C95.6219 245.052 90.7225 237.059 87.44 230.003C82.3834 219.003 76.1747 199.116 66.752 170.878C65.6494 166.761 58.7326 167.617 60.2132 173.143C69.7831 201.829 75.6242 220.909 81.1322 232.891C86.1509 244.07 94.1868 252 105.754 252C114.778 252 121.217 247.054 125.152 240.501C133.258 226.702 132.679 210.795 139.34 197.065C145.281 186.263 156.169 188.222 160.682 197.065C167.119 211.336 167.415 227.751 174.87 240.501C178.805 247.054 185.25 252 194.274 252C207.337 252 214.362 242.628 218.889 232.891C225.033 219.526 231.303 198.045 243.049 163.377C254.591 129.308 254.425 100.772 245.885 80.3619C239.477 62.2343 220.535 48.5204 201.281 48.0145Z" fill="currentColor" stroke="currentColor" stroke-width="3"/>
    <path d="M196.031 80.2097C189.454 80.2097 184.045 85.6185 184.045 92.1959V96.6272H179.59C173.009 96.6272 167.604 102.033 167.604 108.613V113.553C167.604 120.133 173.009 125.515 179.59 125.515H184.045V129.971C184.045 136.548 189.451 141.957 196.031 141.957H200.947C207.527 141.957 212.933 136.548 212.933 129.971V125.515H217.389C223.969 125.515 229.351 120.133 229.351 113.553V108.613C229.351 102.033 223.969 96.6272 217.389 96.6272H209.64C208.77 96.6272 207.935 96.9729 207.32 97.5882C206.705 98.2035 206.359 99.0381 206.359 99.9083C206.359 100.778 206.705 101.613 207.32 102.228C207.935 102.844 208.77 103.189 209.64 103.189H217.389C220.446 103.189 222.789 105.556 222.789 108.613V113.553C222.789 116.61 220.446 118.977 217.389 118.977H209.64C208.774 118.98 207.944 119.325 207.332 119.938C206.719 120.55 206.374 121.38 206.371 122.246V129.971C206.371 133.031 204.004 135.395 200.947 135.395H196.031C192.974 135.395 190.607 133.031 190.607 129.971V122.246C190.606 121.815 190.519 121.389 190.353 120.991C190.187 120.594 189.944 120.233 189.638 119.93C189.332 119.626 188.969 119.385 188.571 119.222C188.172 119.059 187.745 118.976 187.314 118.977H179.59C176.533 118.977 174.166 116.61 174.166 113.553V108.613C174.166 105.556 176.533 103.189 179.59 103.189H187.314C187.745 103.191 188.172 103.108 188.571 102.944C188.969 102.781 189.332 102.541 189.638 102.237C189.944 101.933 190.187 101.572 190.353 101.175C190.519 100.777 190.606 100.351 190.607 99.9204V92.1959C190.607 89.1359 192.971 86.7719 196.031 86.7719H200.947C202.87 86.7719 204.508 87.7179 205.475 89.1691C205.7 89.5572 206.001 89.895 206.362 90.1619C206.722 90.4289 207.133 90.6193 207.569 90.7211C208.006 90.823 208.459 90.8344 208.9 90.7544C209.341 90.6744 209.761 90.5048 210.134 90.2561C210.508 90.0074 210.826 89.6848 211.069 89.3083C211.313 88.9319 211.477 88.5096 211.55 88.0673C211.624 87.6251 211.607 87.1722 211.499 86.7371C211.391 86.3019 211.195 85.8934 210.923 85.5369C208.78 82.3196 205.081 80.2097 200.947 80.2097H196.031Z" fill="currentColor" stroke="currentColor" stroke-width="3"/>
</svg>
