<svg width="28" height="28" viewBox="0 0 28 28" fill="none" xmlns="http://www.w3.org/2000/svg">
<path d="M3.41489 27.8138C3.08197 28.1182 2.47339 27.9857 2.35884 27.5452C1.8684 22.9507 1.77175 18.3061 0.984186 13.7511C0.457951 10.7323 -0.680435 7.89251 0.554606 4.86654C1.46746 2.63198 3.80151 1.50395 5.58785 0.0858625C5.96015 -0.121837 6.19642 0.0751194 6.40405 0.379507C8.5591 4.57648 11.1545 8.56216 12.7726 13.0205C14.0112 16.4368 14.1866 20.0644 17.9204 21.7762C18.8117 22.1844 19.8248 22.4387 20.8057 22.4208C22.8927 23.9105 25.7244 25.3178 27.6647 26.9436C28.1801 27.3733 28.1086 27.9463 27.3997 28H13.0411C9.73687 27.5631 10.0483 24.8773 9.27507 22.496C8.63786 20.5371 6.23938 16.3509 4.87904 14.7967C4.35281 14.1951 3.67622 14.4673 3.5903 15.2229L3.56882 27.5452C3.52228 27.6312 3.47575 27.7529 3.40773 27.8138H3.41489Z" fill="white"/>
</svg>
