<svg width="300" height="300" viewBox="0 0 300 300" fill="none"
    xmlns="http://www.w3.org/2000/svg">
    <path d="M141.718 99.6349H107.859L74 129.261H175.577L141.718 99.6349Z" stroke="currentColor" stroke-width="7" stroke-miterlimit="10" stroke-linecap="round" stroke-linejoin="round"/>
    <path d="M141.718 74.2406H107.859V99.6348H141.718V74.2406Z" stroke="currentColor" stroke-width="7" stroke-miterlimit="10" stroke-linecap="round" stroke-linejoin="round"/>
    <path d="M158.647 48.0001H90.9295C81.5797 48.0001 74 55.5794 74 64.9295V129.261H175.577V64.9295C175.577 55.5794 167.997 48.0001 158.647 48.0001Z" stroke="currentColor" stroke-width="7" stroke-miterlimit="10" stroke-linecap="round" stroke-linejoin="round"/>
    <path d="M120.556 218.142H74V163.121H120.556V218.142Z" stroke="currentColor" stroke-width="7" stroke-miterlimit="10" stroke-linecap="round" stroke-linejoin="round"/>
    <path d="M212.949 226.606H200.971C208.209 226.606 214.033 220.548 213.65 213.226C213.291 206.36 207.128 201.212 200.252 201.212H196.738C189.726 194.199 189.726 182.83 196.738 175.817C182.713 175.817 171.344 187.187 171.344 201.212H167.83C160.955 201.212 154.792 206.36 154.433 213.226C154.049 220.548 159.873 226.606 167.112 226.606H155.133C148.258 226.606 142.095 231.754 141.736 238.62C141.352 245.943 147.176 252 154.415 252H213.668C220.906 252 226.73 245.943 226.347 238.62C225.988 231.754 219.825 226.606 212.949 226.606Z" stroke="currentColor" stroke-width="7" stroke-miterlimit="10" stroke-linecap="round" stroke-linejoin="round"/>
    <path d="M175.577 187.176V129.261H74V235.07C74 244.42 81.5797 252 90.9295 252H154.415" stroke="currentColor" stroke-width="7" stroke-miterlimit="10" stroke-linecap="round" stroke-linejoin="round"/>
</svg>
