<svg width="15" height="15" viewBox="0 0 15 15" fill="none"
    xmlns="http://www.w3.org/2000/svg">
    <g clip-path="url(#clip0_11_1045)">
        <path d="M11.2 8.74994L13.3875 6.56244C13.6194 6.30525 13.7477 5.97124 13.7477 5.62494C13.7477 5.27864 13.6194 4.94463 13.3875 4.68744L10.2625 1.61244C10.0053 1.38054 9.6713 1.2522 9.325 1.2522C8.9787 1.2522 8.64469 1.38054 8.3875 1.61244L6.25 3.74994M3.75 11.2499H3.75625M6.25 8.74994H6.25625M9.375 3.74994H9.38125M11.25 5.62494H11.2563M2.5 6.24994H7.5C8.19036 6.24994 8.75 6.80958 8.75 7.49994V12.4999C8.75 13.1903 8.19036 13.7499 7.5 13.7499H2.5C1.80964 13.7499 1.25 13.1903 1.25 12.4999V7.49994C1.25 6.80958 1.80964 6.24994 2.5 6.24994Z" stroke="black" stroke-linecap="round" stroke-linejoin="round"/>
    </g>
    <defs>
        <clipPath id="clip0_11_1045">
            <rect width="15" height="15" fill="white"/>
        </clipPath>
    </defs>
</svg>
