<svg width="48" height="48" viewBox="0 0 48 48" fill="none" xmlns="http://www.w3.org/2000/svg">
<path d="M17.1578 36.4696C17.1506 36.3712 17.124 36.2753 17.0796 36.1872C17.0351 36.0992 16.9736 36.0208 16.8987 35.9567C16.8238 35.8925 16.7369 35.8439 16.6431 35.8135C16.5493 35.7831 16.4504 35.7716 16.3521 35.7797L5.41516 36.6271C5.124 36.4081 4.5 35.0165 4.5 32.5072C4.5 29.9979 5.124 28.6063 5.41552 28.3873L16.352 29.2355C16.4504 29.2441 16.5496 29.2331 16.6437 29.2029C16.7378 29.1728 16.8249 29.1242 16.8999 29.0599C16.975 28.9956 17.0364 28.917 17.0807 28.8287C17.1249 28.7404 17.1511 28.6441 17.1577 28.5455C17.173 28.3472 17.1089 28.1509 16.9795 27.9998C16.8502 27.8488 16.6661 27.7552 16.4678 27.7399L5.37744 26.8822C3.735 26.8822 3 29.7072 3 32.5072C3 35.3058 3.73425 38.13 5.43347 38.13H5.4353L16.4678 37.2753C16.6661 37.2599 16.8502 37.1664 16.9796 37.0153C17.109 36.8642 17.1731 36.6679 17.1578 36.4696Z" fill="#363636"/>
<path d="M42.5664 26.8844H42.5645L31.532 27.7399C31.4338 27.7475 31.3381 27.7743 31.2503 27.8189C31.1624 27.8635 31.0843 27.925 31.0202 27.9998C30.9561 28.0746 30.9074 28.1613 30.8769 28.255C30.8463 28.3486 30.8345 28.4473 30.8421 28.5455C30.8497 28.6437 30.8765 28.7395 30.9211 28.8273C30.9657 28.9151 31.0272 28.9933 31.102 29.0574C31.1768 29.1214 31.2635 29.1701 31.3572 29.2007C31.4508 29.2312 31.5495 29.2431 31.6477 29.2355L42.5842 28.3873C42.8758 28.6063 43.4998 29.9979 43.4998 32.5072C43.4998 35.0165 42.8758 36.4081 42.5847 36.6271L31.6478 35.7797C31.4494 35.7643 31.2531 35.8284 31.1021 35.9578C30.951 36.0872 30.8575 36.2713 30.8421 36.4696C30.8268 36.6679 30.8908 36.8642 31.0202 37.0153C31.1496 37.1664 31.3337 37.2599 31.532 37.2753L42.6224 38.1322C44.2648 38.1322 44.9998 35.3072 44.9998 32.5072C44.9998 29.7086 44.2656 26.8844 42.5664 26.8844Z" fill="#363636"/>
<path d="M27.1948 32.0143C27.1754 31.9177 27.1371 31.8259 27.0822 31.7441C27.0273 31.6624 26.9569 31.5922 26.8748 31.5376C26.7928 31.4831 26.7009 31.4452 26.6042 31.4262C26.5076 31.4072 26.4081 31.4075 26.3115 31.4269C26.215 31.4463 26.1232 31.4846 26.0414 31.5395C25.9596 31.5944 25.8894 31.6649 25.8349 31.7469C25.7804 31.8289 25.7425 31.9209 25.7235 32.0175C25.7045 32.1142 25.7047 32.2136 25.7241 32.3102C25.7359 32.3752 25.7411 32.4412 25.7395 32.5072C25.7396 32.8513 25.6376 33.1878 25.4465 33.4739C25.2553 33.7601 24.9836 33.9831 24.6657 34.1149C24.3478 34.2466 23.998 34.2811 23.6604 34.214C23.3229 34.1469 23.0129 33.9813 22.7695 33.738C22.5261 33.4946 22.3604 33.1846 22.2932 32.8471C22.2261 32.5096 22.2605 32.1598 22.3922 31.8418C22.5239 31.5239 22.7469 31.2521 23.033 31.0609C23.3191 30.8697 23.6555 30.7677 23.9996 30.7677C24.0656 30.7661 24.1315 30.7712 24.1963 30.7831C24.2929 30.8026 24.3923 30.8028 24.489 30.7839C24.5857 30.7649 24.6777 30.7271 24.7597 30.6726C24.8418 30.6181 24.9123 30.5479 24.9672 30.4662C25.0222 30.3844 25.0605 30.2926 25.08 30.196C25.0994 30.0995 25.0997 30 25.0808 29.9033C25.0618 29.8067 25.024 29.7147 24.9695 29.6326C24.915 29.5506 24.8448 29.4801 24.763 29.4251C24.6813 29.3702 24.5895 29.3319 24.4929 29.3124C24.3304 29.281 24.1652 29.2661 23.9996 29.2677C23.3588 29.2677 22.7324 29.4577 22.1996 29.8137C21.6668 30.1698 21.2516 30.6758 21.0064 31.2678C20.7611 31.8598 20.697 32.5113 20.822 33.1398C20.9471 33.7683 21.2557 34.3455 21.7088 34.7986C22.162 35.2517 22.7393 35.5603 23.3678 35.6852C23.9963 35.8102 24.6477 35.746 25.2397 35.5007C25.8317 35.2554 26.3377 34.8401 26.6937 34.3073C27.0496 33.7744 27.2396 33.148 27.2395 32.5072C27.2411 32.3418 27.2261 32.1767 27.1948 32.0143Z" fill="#363636"/>
<path d="M28.8415 36.3236C29.1107 36.1687 29.337 35.949 29.4996 35.6843C29.705 35.1644 29.7904 34.6049 29.7494 34.0474C30.0673 33.5879 30.2733 33.0604 30.3507 32.5071C30.2734 31.9537 30.0673 31.4261 29.749 30.9668C29.7902 30.4098 29.7051 29.8508 29.5 29.3313C29.181 28.7651 28.619 28.6149 28.2073 28.2993C27.8916 27.8901 27.7418 27.3241 27.1772 27.0073C26.4689 26.562 25.8068 27.0171 25.1813 26.5708C24.834 26.3246 24.4245 26.1809 23.9995 26.1562C23.4459 26.2336 22.9182 26.4396 22.4585 26.7576C21.9017 26.7167 21.3428 26.8018 20.8234 27.0066C20.2572 27.3257 20.1076 27.8886 19.7918 28.2993C19.3819 28.6161 18.8174 28.7647 18.4994 29.3298C18.3121 29.7037 18.2331 30.1226 18.2712 30.539C18.3481 31.3105 17.6198 31.6553 17.6484 32.507C17.6203 33.361 18.3485 33.7022 18.2713 34.4757C18.2252 34.8364 18.2843 35.2028 18.4415 35.5307C18.5988 35.8585 18.8474 36.134 19.1575 36.3239L16.6225 40.7124C16.5601 40.8233 16.5267 40.9482 16.5254 41.0755C16.5242 41.2027 16.5551 41.3282 16.6154 41.4403C16.6756 41.5524 16.7632 41.6475 16.8701 41.7166C16.9769 41.7858 17.0995 41.8268 17.2264 41.8359L18.7041 41.9261L19.5174 43.1639C19.5886 43.2696 19.6854 43.3557 19.7987 43.414C19.9121 43.4723 20.0384 43.5009 20.1658 43.4972C20.2933 43.4936 20.4177 43.4577 20.5275 43.393C20.6374 43.3283 20.729 43.2369 20.794 43.1272L23.3391 38.7199C23.5479 38.8089 23.7725 38.8548 23.9995 38.8547C24.2264 38.8547 24.451 38.8088 24.6598 38.7197L27.2049 43.1272C27.2699 43.2369 27.3616 43.3284 27.4714 43.3931C27.5813 43.4578 27.7057 43.4936 27.8331 43.4973C27.9606 43.5009 28.0869 43.4723 28.2002 43.4139C28.3136 43.3556 28.4104 43.2696 28.4815 43.1638L29.2949 41.9261L30.7725 41.836C30.8995 41.8269 31.0221 41.7858 31.1289 41.7166C31.2357 41.6475 31.3233 41.5524 31.3836 41.4403C31.4438 41.3282 31.4748 41.2027 31.4735 41.0754C31.4723 40.9482 31.4389 40.8233 31.3764 40.7124L28.8415 36.3236ZM20.103 41.324C19.8833 41.0035 19.6311 40.4432 19.1699 40.4517L18.5279 40.4128L20.2446 37.44C20.4216 37.7078 20.6674 37.923 20.9563 38.0631C21.2452 38.2031 21.5664 38.2627 21.8863 38.2357L20.103 41.324ZM24.5693 37.0628C24.3929 37.1854 24.2013 37.2849 23.9995 37.3586C23.8528 37.3127 23.714 37.2445 23.5879 37.1565C22.9777 36.8066 22.2754 36.6508 21.5744 36.7099C21.3542 36.3444 21.1129 35.9919 20.8519 35.6543C20.5147 35.3941 20.1628 35.1535 19.798 34.9336C19.7905 34.5077 19.7575 34.0826 19.6991 33.6606C19.602 33.2341 19.2547 32.8601 19.1483 32.5071C19.2573 32.1557 19.6014 31.78 19.6988 31.355C19.7569 30.9328 19.7899 30.5074 19.7976 30.0813C20.163 29.8617 20.5152 29.6208 20.8523 29.3598C21.1123 29.022 21.3532 28.6699 21.5737 28.3051C21.9993 28.2992 22.4241 28.2664 22.8456 28.207C23.2721 28.1096 23.6467 27.763 23.9996 27.6562C24.3514 27.7652 24.7268 28.1092 25.1516 28.2062C25.5739 28.265 25.9994 28.2983 26.4257 28.3058C26.821 28.8835 27.0886 29.5169 27.8295 29.8343C27.9642 29.8992 28.0894 29.9823 28.2015 30.0813C28.2296 30.2254 28.2386 30.3727 28.2282 30.5193C28.2286 31.2298 28.4458 31.9233 28.8509 32.507C28.7421 32.8604 28.3975 33.2336 28.3004 33.6599C28.2421 34.0818 28.2092 34.5069 28.2019 34.9328C27.8363 35.1526 27.484 35.3937 27.1468 35.655C26.8868 35.9924 26.6462 36.3443 26.4261 36.709C25.7869 36.6627 25.1467 36.7847 24.5693 37.0628ZM28.8291 40.4517C28.3683 40.4414 28.1155 41.0063 27.896 41.324L26.1127 38.2358C26.4326 38.2628 26.7539 38.2031 27.0427 38.0631C27.3316 37.9231 27.5774 37.7078 27.7543 37.4399L29.4711 40.4128L28.8291 40.4517Z" fill="#363636"/>
<path d="M24 24.0024C26.5859 24.0024 29.0658 22.9751 30.8943 21.1466C32.7228 19.3182 33.75 16.8382 33.75 14.2524C33.75 11.6665 32.7228 9.18654 30.8943 7.35806C29.0658 5.52958 26.5859 4.50235 24 4.50235C21.9744 4.49688 19.9982 5.12847 18.3512 6.30778C18.1905 6.42387 18.0822 6.59889 18.0502 6.79457C18.0181 6.99025 18.0649 7.19066 18.1802 7.35197C18.2955 7.51328 18.47 7.62235 18.6655 7.65535C18.8611 7.68834 19.0617 7.64256 19.2235 7.52803C20.6163 6.53114 22.2873 5.99741 24 6.00235C25.6317 6.00235 27.2268 6.48621 28.5835 7.39273C29.9402 8.29925 30.9976 9.58773 31.622 11.0952C32.2465 12.6027 32.4098 14.2615 32.0915 15.8618C31.7732 17.4622 30.9874 18.9322 29.8337 20.086C28.6799 21.2398 27.2099 22.0255 25.6095 22.3438C24.0092 22.6622 22.3504 22.4988 20.8429 21.8744C19.3354 21.2499 18.0469 20.1925 17.1404 18.8358C16.2339 17.4791 15.75 15.8841 15.75 14.2524C15.7451 12.5398 16.2787 10.869 17.2753 9.47623C17.3909 9.31442 17.4374 9.11332 17.4048 8.91717C17.3721 8.72102 17.2628 8.5459 17.101 8.43032C16.9392 8.31474 16.7381 8.26818 16.5419 8.30087C16.3458 8.33356 16.1706 8.44284 16.0551 8.60465C14.876 10.2513 14.2445 12.2271 14.25 14.2524C14.253 16.8373 15.2811 19.3156 17.109 21.1434C18.9368 22.9713 21.4151 23.9994 24 24.0024Z" fill="#B81935"/>
<path d="M24 7.95715C23.9015 7.95713 23.804 7.97651 23.713 8.01419C23.622 8.05187 23.5393 8.10712 23.4696 8.17677C23.4 8.24642 23.3447 8.3291 23.307 8.42011C23.2694 8.51112 23.25 8.60865 23.25 8.70715V14.2501C23.25 14.3511 23.2703 14.451 23.3099 14.5439C23.3495 14.6368 23.4075 14.7207 23.4803 14.7907L26.1687 17.3746C26.3121 17.5125 26.5043 17.5877 26.7031 17.5838C26.9019 17.5799 27.0911 17.4971 27.2289 17.3538C27.3667 17.2104 27.4419 17.0182 27.438 16.8193C27.4341 16.6205 27.3514 16.4314 27.208 16.2936L24.75 13.9308V8.70715C24.75 8.60865 24.7306 8.51112 24.693 8.42011C24.6553 8.3291 24.6 8.24642 24.5304 8.17677C24.4607 8.10712 24.378 8.05187 24.287 8.01419C24.196 7.97651 24.0985 7.95713 24 7.95715Z" fill="#B81935"/>
</svg>
