<svg width="43" height="43" viewBox="0 0 43 43" fill="none" xmlns="http://www.w3.org/2000/svg">
<g clip-path="url(#clip0_4_24)">
<path d="M32.4363 24.1883H17.9679C16.5385 24.1811 15.1259 24.4959 13.8349 25.1094C12.5438 25.7229 11.4075 26.6192 10.5102 27.7319C10.4258 27.8391 10.3108 27.918 10.1805 27.9583C10.0501 27.9986 9.91059 27.9982 9.78045 27.9573L0.470184 25.0219C0.300354 24.9683 0.15876 24.8494 0.0765305 24.6915C-0.00569916 24.5335 -0.0218277 24.3493 0.0316811 24.1795C0.0851898 24.0096 0.20396 23.8679 0.361885 23.7856C0.51981 23.7033 0.70396 23.6871 0.873848 23.7405L9.75193 26.5394C11.1262 24.9472 12.9443 23.8011 14.9736 23.2479C16.0599 14.2332 13.592 0.944148 13.5641 0.796355C13.5441 0.690228 13.5499 0.580834 13.5812 0.477444C13.6124 0.374054 13.6681 0.279717 13.7435 0.202429C13.819 0.125141 13.9119 0.0671809 14.0145 0.0334608C14.1171 -0.00025928 14.2264 -0.00874491 14.3329 0.00872317L32.9083 3.06157C33.0135 3.07885 33.113 3.12089 33.1987 3.18422C33.2844 3.24755 33.3537 3.33035 33.4011 3.42579C33.4485 3.52123 33.4725 3.62656 33.4711 3.7331C33.4697 3.83964 33.443 3.94432 33.3932 4.0385C33.3432 4.13345 28.8056 12.8782 29.6968 22.8446H31.0489C30.9626 21.9259 30.9224 21.0168 30.9251 20.1241C32.5911 16.3136 34.9085 12.8228 37.7734 9.80822L33.384 7.45081C33.5633 6.97668 33.7322 6.55772 33.885 6.19508L39.2075 9.05371C39.3017 9.1043 39.3825 9.17665 39.4431 9.26475C39.5037 9.35284 39.5425 9.45413 39.5561 9.5602C39.5697 9.66627 39.5578 9.77406 39.5213 9.8746C39.4849 9.97513 39.425 10.0655 39.3466 10.1382C39.2816 10.1985 33.8905 15.2772 31.3335 22.8446H32.4363C32.8674 22.8435 33.2944 22.9286 33.6921 23.0949C34.0899 23.2611 34.4504 23.5051 34.7526 23.8127C35.0305 24.0956 35.2482 24.4319 35.3925 24.8012C35.5369 25.1706 35.6049 25.5654 35.5925 25.9617C35.5656 26.4727 35.4084 26.9682 35.1358 27.4013C34.8633 27.8343 34.4845 28.1904 34.0355 28.4357C34.3274 28.7097 34.5604 29.0403 34.7202 29.4074C34.88 29.7746 34.9632 30.1704 34.9647 30.5708C34.9564 31.1732 34.7686 31.7594 34.4254 32.2545C34.0821 32.7496 33.599 33.1311 33.0378 33.3501C33.4323 33.9128 33.6368 34.5867 33.6216 35.2738C33.6216 36.6473 32.5214 37.697 31.2569 38.1072C31.7194 38.6549 31.9631 39.3543 31.941 40.0708C31.8892 41.6858 30.4118 43 28.6477 43H18.2291C16.6588 43.0171 15.1033 42.6957 13.6684 42.0577C12.2335 41.4197 10.9528 40.4801 9.91359 39.3029L0.913864 42.1047C0.743771 42.1577 0.55962 42.1408 0.401924 42.058C0.244228 41.9751 0.125908 41.833 0.0729866 41.6629C0.0200653 41.4928 0.0368843 41.3087 0.11974 41.151C0.202595 40.9933 0.344704 40.875 0.514797 40.8221L9.94276 37.8867C10.0719 37.8461 10.2104 37.8457 10.3398 37.8855C10.4692 37.9252 10.5835 38.0033 10.6676 38.1094C11.5842 39.2266 12.7388 40.1248 14.047 40.7385C15.3553 41.3521 16.7841 41.6657 18.2291 41.6563H28.6477C29.6946 41.6563 30.5696 40.9257 30.5985 40.0275C30.6042 39.8132 30.5664 39.5999 30.4874 39.4005C30.4084 39.2011 30.2899 39.0198 30.1389 38.8675C29.9576 38.6849 29.7416 38.5404 29.5037 38.4425C29.2657 38.3445 29.0106 38.2951 28.7533 38.2971H28.0485C27.8703 38.2971 27.6994 38.2263 27.5734 38.1003C27.4474 37.9743 27.3766 37.8034 27.3766 37.6252C27.3766 37.447 27.4474 37.2761 27.5734 37.1501C27.6994 37.0241 27.8703 36.9534 28.0485 36.9534H28.7533C28.8702 36.9536 28.9869 36.96 29.1032 36.9725C29.1533 36.9603 29.2047 36.9538 29.2563 36.9534H30.1112C31.205 36.9534 32.2784 36.1214 32.2784 35.2738C32.2784 34.4618 31.8856 33.5941 30.7828 33.5941H28.9205C28.7424 33.5941 28.5715 33.5234 28.4455 33.3974C28.3195 33.2714 28.2487 33.1005 28.2487 32.9223C28.2487 32.7441 28.3195 32.5732 28.4455 32.4472C28.5715 32.3212 28.7424 32.2504 28.9205 32.2504H30.7828C30.8182 32.2504 30.852 32.2542 30.8869 32.2553C30.9032 32.2541 30.9187 32.2504 30.9353 32.2504H31.7902C32.0229 32.2706 32.2574 32.2422 32.4786 32.1669C32.6998 32.0917 32.903 31.9712 33.0752 31.8133C33.2474 31.6554 33.3849 31.4634 33.4789 31.2495C33.573 31.0356 33.6216 30.8045 33.6216 30.5708C33.6216 30.3372 33.573 30.106 33.4789 29.8922C33.3849 29.6783 33.2474 29.4863 33.0752 29.3283C32.903 29.1704 32.6998 29.05 32.4786 28.9747C32.2574 28.8995 32.0229 28.871 31.7902 28.8912H29.2563C29.0781 28.8912 28.9073 28.8204 28.7813 28.6944C28.6553 28.5684 28.5845 28.3975 28.5845 28.2194C28.5845 28.0412 28.6553 27.8703 28.7813 27.7443C28.9073 27.6183 29.0781 27.5475 29.2563 27.5475H32.332C33.3612 27.5475 34.2215 26.817 34.25 25.9191C34.2561 25.7027 34.2183 25.4874 34.1388 25.286C34.0594 25.0847 33.94 24.9015 33.7878 24.7476C33.6112 24.569 33.4006 24.4276 33.1685 24.3315C32.9364 24.2355 32.6875 24.1868 32.4363 24.1883ZM31.7998 4.24122L15.0517 1.48855C15.5981 4.67435 17.2059 15.105 16.3581 22.9613C16.8912 22.8844 17.4292 22.8454 17.9679 22.8446H28.346C27.5963 14.2438 30.6576 6.70281 31.7998 4.24122Z" fill="#444444"/>
<path d="M25.726 17.6528L25.1954 17.5888C24.9213 18.7652 24.1418 19.2005 23.3131 19.1008C21.0699 18.8305 22.1028 15.5063 20.7436 15.3423C20.1664 15.2728 19.8379 15.649 19.7359 16.4964C19.7094 16.7867 19.7421 17.0793 19.8322 17.3565C19.9222 17.6337 20.0676 17.8898 20.2596 18.1091C20.3154 18.1659 20.3582 18.2342 20.385 18.3092C20.4118 18.3842 20.4221 18.4641 20.415 18.5434C20.4031 18.6318 20.368 18.7154 20.3132 18.7858C20.2585 18.8561 20.186 18.9107 20.1033 18.944C20.0206 18.9772 19.9305 18.9879 19.8423 18.975C19.7541 18.9621 19.6709 18.926 19.6011 18.8705C19.3157 18.6099 19.0898 18.291 18.9387 17.9353C18.7875 17.5797 18.7147 17.1957 18.7253 16.8094L18.2042 16.7464C18.1468 16.7402 18.0912 16.7226 18.0407 16.6948C17.9902 16.667 17.9456 16.6294 17.9097 16.5842C17.8738 16.539 17.8472 16.4872 17.8315 16.4316C17.8158 16.3761 17.8113 16.318 17.8182 16.2607C17.8251 16.2034 17.8433 16.1481 17.8717 16.0979C17.9002 16.0477 17.9383 16.0036 17.9839 15.9683C18.0295 15.9329 18.0817 15.907 18.1374 15.8919C18.1931 15.8769 18.2513 15.8731 18.3085 15.8807L18.8295 15.9433C19.101 14.7102 19.85 14.1387 20.8738 14.2621C23.2013 14.5426 22.2238 17.8732 23.4433 18.0202C23.8159 18.0651 24.2136 17.8201 24.3064 17.0472C24.3687 16.5667 24.2488 16.0803 23.9703 15.6838C23.8663 15.5669 23.8104 15.4151 23.8139 15.2587C23.8288 15.1265 23.8954 15.0057 23.9992 14.9226C24.103 14.8395 24.2356 14.801 24.3677 14.8155C24.4739 14.8292 24.5736 14.8741 24.6543 14.9444C24.875 15.1823 25.0451 15.4624 25.1545 15.7679C25.2638 16.0734 25.3101 16.3979 25.2905 16.7218L25.8302 16.7867C25.8876 16.793 25.9431 16.8106 25.9935 16.8385C26.044 16.8664 26.0884 16.904 26.1243 16.9492C26.1601 16.9944 26.1866 17.0462 26.2023 17.1017C26.218 17.1571 26.2225 17.2152 26.2156 17.2724C26.2087 17.3297 26.1906 17.385 26.1622 17.4352C26.1337 17.4853 26.0957 17.5294 26.0501 17.5648C26.0046 17.6001 25.9525 17.6261 25.8969 17.6412C25.8412 17.6563 25.7831 17.6603 25.726 17.6528Z" fill="#B81935"/>
<path d="M34.5049 18.9099C36.6045 17.3965 38.8682 16.1248 41.2529 15.119L39.1194 12.3194C39.5298 11.8602 39.8554 11.5234 40.0518 11.3267L42.8625 15.0147C42.9268 15.0992 42.9703 15.1977 42.9892 15.3021C43.0082 15.4066 43.0021 15.5141 42.9715 15.6157C42.9409 15.7174 42.8867 15.8104 42.8133 15.8871C42.7398 15.9638 42.6493 16.022 42.549 16.0569C39.1471 17.3937 35.9908 19.2863 33.209 21.6572C33.594 20.72 34.0266 19.8031 34.5049 18.9099Z" fill="#363636"/>
</g>
<defs>
<clipPath id="clip0_4_24">
<rect width="43" height="43" fill="white" transform="matrix(-1 0 0 1 43 0)"/>
</clipPath>
</defs>
</svg>
