<svg width="300" height="300" viewBox="0 0 300 300" fill="none"
    xmlns="http://www.w3.org/2000/svg">
    <path d="M283.02 147.623C279.176 147.015 275.55 149.576 274.888 153.362C268.904 168.663 250.917 168.915 221.748 160.54C276.147 140.911 283.758 96.5879 284.08 94.4941C285.434 85.4369 271.508 83.2964 270.04 92.363C269.738 94.2885 261.624 139.21 199.775 152.184C192.438 149.137 183.794 144.678 175.387 140.556C233.904 113.001 230.24 62.2002 230.193 61.6393C229.871 51.7782 214.544 53.1803 216.096 62.9479C216.096 63.4246 219.533 110.842 157.447 132.845C150.356 130.237 143.076 128.181 135.672 126.676C158.545 110.02 170.881 82.7356 168.183 54.8067C167.51 50.9931 163.828 48.4413 159.965 49.105C156.178 49.7593 153.613 53.2644 154.162 57.0219C154.436 58.8165 160.372 100.906 112.866 124.115C105.406 123.956 97.9453 124.507 90.5893 125.741C102.026 109.318 105.832 88.8579 101.07 69.4908C99.9524 65.7801 95.9856 63.6676 92.2271 64.7799C88.4686 65.8922 86.3385 69.7993 87.4557 73.5101C93.3727 99.7565 79.6452 128.723 53.7807 138.322C55.3144 128.611 46.7277 89.1663 32.044 99.1302C29.1376 101.701 28.8535 106.094 31.4097 109.001C31.8736 109.505 42.0035 121.675 38.9835 147.464C31.8073 153.38 0.716965 174.86 12.7309 183.73C15.9403 185.955 20.3709 185.179 22.6241 182.01C67.1674 126.255 128.572 127.648 195.732 165.662C237.123 182.431 277.094 190.965 288.928 155.483C289.477 151.707 286.845 148.202 283.02 147.623Z" fill="currentColor"/>
    <path d="M112.996 154C66.1028 154 29.2153 196.654 27.6606 198.473C25.4465 201.074 25.4465 204.888 27.6606 207.49C29.2153 209.309 66.1028 252 112.996 252C159.89 252 196.787 209.318 198.332 207.499C200.556 204.898 200.556 201.084 198.332 198.482C196.787 196.617 159.89 154 112.996 154ZM112.968 238.021C80.9143 238.021 53.0437 213.365 42.6983 202.995C53.5902 191.954 66.2818 182.806 80.2359 175.933C63.3421 222.541 133.376 244.875 147.274 197.381C149.667 188.336 135.675 184.923 133.555 194.034C126.15 220.741 86.3414 210.978 92.3809 183.944C94.727 174.581 103.216 167.997 112.968 167.997C144.928 167.997 172.893 192.635 183.248 203.014C172.883 213.384 145.022 238.021 112.968 238.021Z" fill="currentColor"/>
</svg>
