<svg width="30" height="20" viewBox="0 0 30 20" fill="none"
    xmlns="http://www.w3.org/2000/svg">
    <path d="M15.9938 0.0329875C17.6268 -0.089287 18.7056 0.114123 20.1317 0.883196C21.8824 1.82711 23.5623 3.06471 25.305 4.04062C25.4855 4.13204 25.4638 4.46115 25.2673 4.51372L18.8141 2.71389C17.148 2.22593 15.5687 2.75502 13.9506 3.12413C9.55098 4.12861 5.17652 5.25308 0.78149 6.27585C-0.0995721 6.4804 -0.0184367 5.68733 0.0227024 5.0611C0.139263 3.30469 1.39058 1.95053 3.14356 1.73455C7.39117 1.38029 11.7668 0.348387 15.9938 0.0329875Z" fill="currentColor"/>
    <path d="M11.8388 16.2725C11.8994 16.8896 11.432 18.9454 10.9474 19.2882C10.7532 19.4253 10.3921 19.4002 10.2835 19.1682C10.1235 18.8242 10.6206 18.0152 10.7383 17.5969C10.8652 17.1478 10.9532 16.6839 10.9257 16.2153L9.90639 16.1662C9.82183 16.7159 9.20817 18.182 8.72135 18.4323C8.36367 18.6174 7.94543 18.3854 8.02656 17.9695C8.06541 17.7695 8.60365 17.1318 8.74992 16.8061C8.81049 16.6713 9.05047 16.0885 8.9819 15.9925L7.94085 15.7651C7.66317 16.293 6.61069 17.3249 5.97532 17.029C5.74905 16.9238 5.71249 16.5593 5.85419 16.365C6.02446 16.1319 6.99466 15.9388 6.9878 15.4188C6.37871 15.2394 5.79476 14.9766 5.22682 14.6966C4.65887 14.4166 3.32185 13.4739 2.85103 13.4213C2.50021 13.3813 1.78599 13.5756 1.64886 13.139C1.43174 12.4523 2.43507 12.4728 2.84989 12.5105C3.67839 12.586 4.36175 13.2156 5.06683 13.603C11.016 16.8713 17.9194 15.548 22.5132 10.7141C22.7909 10.4216 23.1783 9.64908 23.6571 10.0239C24.3005 10.5279 22.8835 11.4169 22.7052 11.8843C23.7977 13.6316 26.9505 13.9115 28.0144 11.9906C28.2407 11.5815 28.3047 10.6158 28.8909 10.7758C29.4772 10.9358 29.1378 11.7083 28.9698 12.09C27.9847 14.3252 25.257 14.7538 23.2515 13.6213C22.7864 13.3585 22.3075 12.9859 22.0527 12.5082L21.9704 12.5105C21.7773 12.7471 21.0997 13.0602 21.1499 13.3779C21.2231 13.8441 21.9636 14.6498 22.3441 14.9286C23.4697 15.7537 24.8387 15.8977 26.1449 15.4291C26.4534 15.3183 27.0854 14.892 27.2899 14.8577C27.6625 14.7949 27.9036 15.1309 27.7928 15.4783C27.6945 15.7879 26.4706 16.2896 26.1358 16.389C23.824 17.0701 21.2574 16.0348 20.3409 13.7641L19.2644 14.3984C19.5809 16.5227 21.599 17.7683 23.6731 17.4632C24.0754 17.4038 24.6982 17.0701 24.9656 17.4415C25.3907 18.03 24.5371 18.2311 24.1199 18.31C21.4665 18.8162 19.1181 17.4392 18.373 14.8475L17.4268 15.284C17.5468 16.669 18.4942 18.7248 20.094 18.7785C20.4631 18.7911 21.1019 18.51 21.1671 19.1168C21.2025 19.4505 20.9408 19.5945 20.6506 19.6333C18.445 19.9316 17.188 18.086 16.6601 16.2165C16.6235 16.0885 16.5892 15.6131 16.4852 15.5914L15.6693 15.8245C15.5973 16.7764 15.8338 17.8449 16.4624 18.582C16.7206 18.8848 17.3891 19.2036 16.9755 19.6687C16.6521 20.0321 16.1892 19.6322 15.9447 19.3853C15.3699 18.8037 14.9448 17.8392 14.8145 17.0358C14.7654 16.7307 14.7905 16.4005 14.7494 16.1296C14.7368 16.0416 14.7837 16.0428 14.6625 16.0439C14.5197 16.0462 13.826 16.1342 13.786 16.253L13.7369 19.7967C13.5803 20.1327 12.9233 20.0116 12.9233 19.7247V16.2736H11.8388V16.2725Z" fill="currentColor"/>
</svg>
