<svg width="22" height="21" viewBox="0 0 22 21" fill="none"
    xmlns="http://www.w3.org/2000/svg">
    <path d="M12.569 0.920473C12.5813 2.56817 13.022 4.18433 13.8478 5.61022C14.6736 7.03611 15.856 8.22271 17.279 9.05347C15.49 8.58128 13.8898 7.56976 12.6957 6.15636C11.5016 4.74296 10.7717 2.99621 10.605 1.15347L10.561 1.15247C9.901 1.14347 9.178 1.19447 8.478 1.29547C7.78 1.39547 7.081 1.54747 6.474 1.75047C5.899 1.94347 5.281 2.22147 4.862 2.64047L4.282 3.22047L6.369 6.35047C5.556 7.60647 4.769 9.06147 4.602 11.4045C4.41067 11.4238 4.20333 11.4505 3.98 11.4845C3.123 11.6155 1.948 11.8935 1.015 12.5145L0 13.1925L7.725 20.9175L8.401 19.9025C8.964 19.0575 9.271 18.3125 9.425 17.5435C9.508 17.1305 9.543 16.7205 9.558 16.3125C11.262 16.1955 13.395 15.7675 15.17 14.7895L16.29 17.0395L17.273 16.0565C18.461 14.8675 19.153 13.4745 19.546 12.4035C19.7442 11.8678 19.9003 11.3174 20.013 10.7575C21.298 8.99747 21.765 6.94647 21.878 5.20747C21.995 3.40047 21.738 1.83547 21.534 1.08547L21.37 0.480473L20.754 0.364473C17.642 -0.219527 14.843 -0.148527 12.569 0.920473ZM18.986 3.84447L17.569 5.26147L16.152 3.84447L17.569 2.42747L18.986 3.84447Z" fill="currentColor"/>
</svg>
