<svg width="300" height="300" viewBox="0 0 300 300" fill="none"
    xmlns="http://www.w3.org/2000/svg">
    <path d="M132.201 71C165.114 71 193.855 85.3701 211.47 96.959L251.335 79.8076C255.507 77.9534 260.143 78.8803 263.388 82.125C266.633 85.3699 267.096 90.0058 265.242 94.1777L255.508 114.11L265.242 134.044C267.096 138.216 266.633 142.852 263.388 146.097C261.07 147.951 258.289 149.341 255.508 149.341C254.117 149.341 252.726 148.878 251.335 148.414L211.47 131.263C193.391 142.852 165.114 157.222 132.201 157.222C78.8921 157.222 36.2449 119.21 34.3906 117.355C33.4636 116.428 33 115.037 33 114.11C33.0002 113.183 33.4638 111.793 34.3906 110.866C36.2449 109.476 78.8921 71 132.201 71ZM133.128 80.2715C119.685 80.2715 107.169 83.0523 95.5801 86.7607C99.7521 92.3234 105.779 101.595 106.242 113.184C106.242 123.382 102.533 132.653 95.1162 141.924C106.705 145.632 119.221 148.414 133.128 148.878C173.921 148.878 209.151 123.845 220.74 114.574C209.151 105.303 173.921 80.2715 133.128 80.2715ZM256.898 89.0791C256.435 88.6156 255.971 88.1517 255.044 88.6152L220.74 103.449C226.303 107.621 230.012 110.865 230.476 111.329C231.403 112.256 231.866 113.647 231.866 114.574C231.866 115.501 231.403 116.892 230.476 117.819C230.012 118.283 226.303 121.528 220.74 125.7L255.044 140.533C255.971 140.533 256.435 140.534 256.898 140.07C256.898 139.608 257.36 139.144 257.361 139.143L246.236 117.355V116.893C245.773 116.429 245.772 116.428 245.772 115.965V114.11C246.236 113.647 246.236 113.647 246.236 113.184V112.72L257.361 90.9326C257.361 90.006 257.362 89.5425 256.898 89.0791ZM85.8457 90.0059C66.84 98.3498 52.0058 109.011 44.5889 114.11C51.5422 119.673 66.376 130.335 85.3818 138.216C93.2622 130.335 96.9703 121.991 96.5068 113.647C96.5068 102.522 89.5542 93.7144 85.8457 90.0059Z" fill="currentColor"/>
    <path d="M132.201 71C165.114 71 193.855 85.3701 211.47 96.959L251.335 79.8076C255.507 77.9534 260.143 78.8803 263.388 82.125C266.633 85.3699 267.096 90.0058 265.242 94.1777L255.508 114.11L265.242 134.044C267.096 138.216 266.633 142.852 263.388 146.097C261.07 147.951 258.289 149.341 255.508 149.341C254.117 149.341 252.726 148.878 251.335 148.414L211.47 131.263C193.391 142.852 165.114 157.222 132.201 157.222C78.8921 157.222 36.2449 119.21 34.3906 117.355C33.4636 116.428 33 115.037 33 114.11C33.0002 113.183 33.4638 111.793 34.3906 110.866C36.2449 109.476 78.8921 71 132.201 71ZM133.128 80.2715C119.685 80.2715 107.169 83.0523 95.5801 86.7607C99.7521 92.3234 105.779 101.595 106.242 113.184C106.242 123.382 102.533 132.653 95.1162 141.924C106.705 145.632 119.221 148.414 133.128 148.878C173.921 148.878 209.151 123.845 220.74 114.574C209.151 105.303 173.921 80.2715 133.128 80.2715ZM256.898 89.0791C256.435 88.6156 255.971 88.1517 255.044 88.6152L220.74 103.449C226.303 107.621 230.012 110.865 230.476 111.329C231.403 112.256 231.866 113.647 231.866 114.574C231.866 115.501 231.403 116.892 230.476 117.819C230.012 118.283 226.303 121.528 220.74 125.7L255.044 140.533C255.971 140.533 256.435 140.534 256.898 140.07C256.898 139.608 257.36 139.144 257.361 139.143L246.236 117.355V116.893C245.773 116.429 245.772 116.428 245.772 115.965V114.11C246.236 113.647 246.236 113.647 246.236 113.184V112.72L257.361 90.9326C257.361 90.006 257.362 89.5425 256.898 89.0791ZM85.8457 90.0059C66.84 98.3498 52.0058 109.011 44.5889 114.11C51.5422 119.673 66.376 130.335 85.3818 138.216C93.2622 130.335 96.9703 121.991 96.5068 113.647C96.5068 102.522 89.5542 93.7144 85.8457 90.0059Z" stroke="currentColor"/>
    <path d="M73.7939 101.131C76.1117 101.131 78.4297 103.449 78.4297 105.767V109.012C78.4295 111.793 76.5751 113.647 73.7939 113.647C71.0127 113.647 69.1584 111.793 69.1582 109.012V105.767C69.1582 102.986 71.0126 101.131 73.7939 101.131Z" fill="currentColor"/>
    <path d="M73.7939 101.131C76.1117 101.131 78.4297 103.449 78.4297 105.767V109.012C78.4295 111.793 76.5751 113.647 73.7939 113.647C71.0127 113.647 69.1584 111.793 69.1582 109.012V105.767C69.1582 102.986 71.0126 101.131 73.7939 101.131Z" stroke="currentColor"/>
    <path d="M122.467 96.959C124.321 95.1048 127.102 95.1049 129.42 96.959C133.592 101.595 139.618 114.574 129.884 130.799C128.957 132.189 127.103 133.116 125.712 133.116C124.785 133.116 124.321 133.117 123.394 132.653C121.539 131.263 120.612 128.481 122.003 126.163C130.324 111.832 122.509 103.494 122.467 103.449C120.613 101.595 120.613 98.8132 122.467 96.959Z" fill="currentColor"/>
    <path d="M122.467 96.959C124.321 95.1048 127.102 95.1049 129.42 96.959C133.592 101.595 139.618 114.574 129.884 130.799C128.957 132.189 127.103 133.116 125.712 133.116C124.785 133.116 124.321 133.117 123.394 132.653C121.539 131.263 120.612 128.481 122.003 126.163C130.324 111.832 122.509 103.494 122.467 103.449C120.613 101.595 120.613 98.8132 122.467 96.959Z" stroke="currentColor"/>
    <path d="M147.037 96.959C148.891 95.1048 151.673 95.1048 153.527 96.959C158.163 101.595 164.189 114.575 154.454 130.799C153.527 132.189 151.673 133.116 150.282 133.116C149.355 133.116 148.891 133.117 147.964 132.653C146.11 131.263 145.183 128.481 146.573 126.163C154.895 111.832 147.08 103.494 147.037 103.449C145.183 101.595 145.183 98.8132 147.037 96.959Z" fill="currentColor"/>
    <path d="M147.037 96.959C148.891 95.1048 151.673 95.1048 153.527 96.959C158.163 101.595 164.189 114.575 154.454 130.799C153.527 132.189 151.673 133.116 150.282 133.116C149.355 133.116 148.891 133.117 147.964 132.653C146.11 131.263 145.183 128.481 146.573 126.163C154.895 111.832 147.08 103.494 147.037 103.449C145.183 101.595 145.183 98.8132 147.037 96.959Z" stroke="currentColor"/>
    <path d="M259.681 171.128C261.071 171.128 262.462 171.592 263.389 172.983C264.316 174.373 264.779 175.764 264.315 177.155L262.925 183.181C259.68 196.16 248.091 205.431 234.648 205.431H230.939C231.403 206.822 231.867 208.213 231.867 210.067V216.093C231.867 223.973 225.84 230 217.96 230H81.6738C73.7936 230 67.7676 223.973 67.7676 216.093V210.067C67.7676 208.213 68.2308 206.822 68.6943 205.431H64.9863C51.5432 205.431 39.9539 196.16 36.709 183.181L35.3184 177.155C34.8548 175.764 35.319 173.91 36.2461 172.983C37.1732 171.592 38.5634 171.128 39.9541 171.128H259.681ZM81.6738 204.504C78.8927 204.504 77.0391 206.359 77.0391 209.14V215.166C77.0391 217.947 78.8928 219.802 81.6738 219.802H217.96C220.741 219.802 222.596 217.948 222.596 215.166V209.14C222.596 206.822 220.741 204.504 217.96 204.504H81.6738ZM45.9805 180.4C47.8348 189.207 55.7153 195.233 64.9863 195.233H234.648C243.456 195.233 251.336 189.207 253.654 180.4H45.9805Z" fill="currentColor"/>
    <path d="M259.681 171.128C261.071 171.128 262.462 171.592 263.389 172.983C264.316 174.373 264.779 175.764 264.315 177.155L262.925 183.181C259.68 196.16 248.091 205.431 234.648 205.431H230.939C231.403 206.822 231.867 208.213 231.867 210.067V216.093C231.867 223.973 225.84 230 217.96 230H81.6738C73.7936 230 67.7676 223.973 67.7676 216.093V210.067C67.7676 208.213 68.2308 206.822 68.6943 205.431H64.9863C51.5432 205.431 39.9539 196.16 36.709 183.181L35.3184 177.155C34.8548 175.764 35.319 173.91 36.2461 172.983C37.1732 171.592 38.5634 171.128 39.9541 171.128H259.681ZM81.6738 204.504C78.8927 204.504 77.0391 206.359 77.0391 209.14V215.166C77.0391 217.947 78.8928 219.802 81.6738 219.802H217.96C220.741 219.802 222.596 217.948 222.596 215.166V209.14C222.596 206.822 220.741 204.504 217.96 204.504H81.6738ZM45.9805 180.4C47.8348 189.207 55.7153 195.233 64.9863 195.233H234.648C243.456 195.233 251.336 189.207 253.654 180.4H45.9805Z" stroke="currentColor"/>
</svg>
