<svg width="300" height="300" viewBox="0 0 300 300" fill="none"
    xmlns="http://www.w3.org/2000/svg">
    <path d="M206.198 132.255C204.785 130.885 204.497 128.599 205.477 126.562C208.894 119.435 210.625 111.879 210.625 104.1C210.625 73.1663 183.206 48 149.5 48C115.794 48 88.375 73.1663 88.375 104.1C88.375 111.879 90.1061 119.435 93.5235 126.567C94.5034 128.599 94.2149 130.885 92.8072 132.25C76.8096 147.764 68 168.552 68 190.8C68 213.391 77.5558 235.206 94.2149 250.645L95.6823 252H203.318L204.785 250.645C221.444 235.206 231 213.391 231 190.8C231 168.552 222.19 147.764 206.198 132.255ZM199.288 241.8H99.7116C85.8132 228.228 78.1875 210.199 78.1875 190.8C78.1875 171.341 85.8978 153.148 99.8956 139.576C104.457 135.148 105.586 128.141 102.706 122.149C99.9553 116.412 98.5625 110.341 98.5625 104.1C98.5625 78.7893 121.415 58.2 149.5 58.2C177.585 58.2 200.438 78.7893 200.438 104.1C200.438 110.341 199.045 116.412 196.294 122.144C193.414 128.141 194.543 135.148 199.109 139.581C213.102 153.148 220.812 171.341 220.812 190.8C220.812 210.199 213.187 228.228 199.288 241.8Z" fill="currentColor"/>
    <path d="M88 191H98.268C98.268 179.155 102.434 167.615 110 158.503L102.088 152C93.0036 162.932 88 176.781 88 191Z" fill="currentColor"/>
    <path d="M149.5 68C127.169 68 109 84.0961 109 103.876C109 106.764 109.4 109.652 110.196 112.464C111.245 116.168 113.702 119.241 117.123 121.123C119.377 122.364 121.913 123 124.459 123C125.962 123 127.47 122.78 128.924 122.334C142.213 118.24 156.787 118.24 170.076 122.334C173.997 123.531 178.288 123.1 181.877 121.123C185.298 119.241 187.755 116.168 188.809 112.459C189.6 109.652 190 106.764 190 103.876C190 84.0961 171.831 68 149.5 68ZM179.074 109.642C178.693 110.973 177.759 111.724 177.037 112.119C175.826 112.79 174.372 112.945 173.023 112.525C157.825 107.85 141.175 107.85 125.977 112.525C124.647 112.945 123.184 112.79 121.963 112.119C121.241 111.724 120.307 110.973 119.931 109.647C119.397 107.755 119.125 105.813 119.125 103.876C119.125 89.7467 132.75 78.2502 149.5 78.2502C166.25 78.2502 179.875 89.7467 179.875 103.876C179.875 105.813 179.603 107.755 179.074 109.642Z" fill="currentColor"/>
</svg>
