<svg width="11" height="24" viewBox="0 0 11 24" fill="none"
    xmlns="http://www.w3.org/2000/svg">
    <path d="M8.50004 2H7.25004C7.11743 2 6.99026 1.94732 6.89649 1.85355C6.80272 1.75979 6.75004 1.63261 6.75004 1.5V1.25C6.75004 0.918479 6.61835 0.600537 6.38392 0.366117C6.1495 0.131696 5.83156 0 5.50004 0C5.16852 0 4.85058 0.131696 4.61616 0.366117C4.38174 0.600537 4.25004 0.918479 4.25004 1.25V1.5C4.25004 1.63261 4.19736 1.75979 4.1036 1.85355C4.00983 1.94732 3.88265 2 3.75004 2H2.50004C1.837 2 1.20112 2.26339 0.732275 2.73223C0.263434 3.20107 4.16457e-05 3.83696 4.16457e-05 4.5V5.5C4.16457e-05 5.63261 0.0527202 5.75979 0.146488 5.85355C0.240257 5.94732 0.367433 6 0.500042 6H10.5C10.6327 6 10.7598 5.94732 10.8536 5.85355C10.9474 5.75979 11 5.63261 11 5.5V4.5C11 3.83696 10.7366 3.20107 10.2678 2.73223C9.79897 2.26339 9.16308 2 8.50004 2ZM10.5 7.5H0.500042C0.367433 7.5 0.240257 7.55268 0.146488 7.64645C0.0527202 7.74021 4.16457e-05 7.86739 4.16457e-05 8V9.1C0.0104089 9.47405 0.160211 9.83072 0.420042 10.1L1.90004 11.68C1.99103 11.7718 2.04208 11.8958 2.04208 12.025C2.04208 12.1542 1.99103 12.2782 1.90004 12.37L0.430041 13.86C0.292376 13.9978 0.183471 14.1616 0.109653 14.3418C0.0358344 14.5221 -0.00142449 14.7152 4.16457e-05 14.91V21.5C4.16457e-05 21.8283 0.0647058 22.1534 0.190343 22.4567C0.315979 22.76 0.500128 23.0356 0.732275 23.2678C0.964421 23.4999 1.24002 23.6841 1.54333 23.8097C1.84665 23.9353 2.17174 24 2.50004 24H8.50004C8.82835 24 9.15344 23.9353 9.45675 23.8097C9.76007 23.6841 10.0357 23.4999 10.2678 23.2678C10.5 23.0356 10.6841 22.76 10.8097 22.4567C10.9354 22.1534 11 21.8283 11 21.5V14.92C10.9964 14.5181 10.8348 14.1337 10.55 13.85L9.07004 12.4C8.97391 12.3081 8.91665 12.1828 8.91004 12.05C8.90924 11.9844 8.92218 11.9194 8.94801 11.8591C8.97384 11.7989 9.012 11.7446 9.06004 11.7L10.57 10.14C10.7077 10.0022 10.8166 9.83841 10.8904 9.65816C10.9642 9.47791 11.0015 9.28478 11 9.09V8C11 7.86739 10.9474 7.74021 10.8536 7.64645C10.7598 7.55268 10.6327 7.5 10.5 7.5ZM7.89004 17L5.11004 20.24C5.07696 20.2787 5.03287 20.3064 4.98365 20.3193C4.93443 20.3323 4.88243 20.3299 4.83459 20.3125C4.78676 20.2951 4.74538 20.2635 4.71597 20.222C4.68657 20.1804 4.67054 20.1309 4.67004 20.08V17.92C4.67004 17.7874 4.61736 17.6602 4.5236 17.5664C4.42983 17.4727 4.30265 17.42 4.17004 17.42H3.30004C3.25125 17.4202 3.20347 17.4061 3.1626 17.3794C3.12173 17.3528 3.08956 17.3147 3.07004 17.27C3.04634 17.229 3.03387 17.1824 3.03387 17.135C3.03387 17.0876 3.04634 17.041 3.07004 17L5.85004 13.76C5.88312 13.7213 5.92721 13.6936 5.97643 13.6807C6.02566 13.6677 6.07766 13.6701 6.12549 13.6875C6.17332 13.7049 6.21471 13.7365 6.24411 13.778C6.27352 13.8196 6.28954 13.8691 6.29004 13.92V16.08C6.29004 16.2126 6.34272 16.3398 6.43649 16.4336C6.53026 16.5273 6.65743 16.58 6.79004 16.58H7.66004C7.70883 16.5798 7.75661 16.5939 7.79748 16.6206C7.83835 16.6472 7.87052 16.6853 7.89004 16.73C7.91374 16.771 7.92621 16.8176 7.92621 16.865C7.92621 16.9124 7.91374 16.959 7.89004 17Z" fill="currentColor"/>
</svg>
