<svg width="300" height="300" viewBox="0 0 300 300" fill="none"
    xmlns="http://www.w3.org/2000/svg">
    <g clip-path="url(#clip0_54_1311)">
        <path d="M150.499 152.462C149.78 152.462 149.052 152.292 148.38 151.961C146.867 151.204 111.152 132.931 111.152 95.8352C111.152 58.7491 146.858 40.4661 148.38 39.7095C149.714 39.0474 151.284 39.0474 152.608 39.7095C154.122 40.4661 189.836 58.7491 189.836 95.8352C189.836 132.931 154.131 151.204 152.608 151.961C151.946 152.301 151.218 152.462 150.499 152.462ZM150.508 49.3759C143.367 53.67 120.62 69.4275 120.62 95.8447C120.62 122.262 143.349 138.01 150.499 142.304C157.65 138.01 180.378 122.262 180.378 95.8447C180.378 69.3235 157.659 53.651 150.508 49.3759Z" fill="currentColor"/>
        <path d="M170.608 155.035C158.52 155.035 149.686 152.434 149.128 152.264C146.631 151.517 145.221 148.887 145.969 146.381C146.706 143.884 149.317 142.437 151.852 143.212C152.041 143.26 169.955 148.5 188.56 143.184C196.855 140.848 204.109 136.743 210.125 131.011C214.627 126.717 218.136 121.789 220.538 116.379C227.745 100.707 225.021 84.3436 223.584 78.2714C217.218 76.8999 199.749 74.2043 183.178 81.1562C180.766 82.1493 177.995 81.0332 176.992 78.6214C175.989 76.2095 177.115 73.4382 179.527 72.4356C203.362 62.4476 227.755 69.5035 228.786 69.8062C230.271 70.2507 231.453 71.3952 231.935 72.8707C232.257 73.8544 239.701 97.3488 229.164 120.285C226.279 126.783 222.061 132.704 216.66 137.859C209.519 144.678 200.941 149.521 191.151 152.292C183.897 154.335 176.822 155.035 170.608 155.035Z" fill="currentColor"/>
        <path d="M204.885 185.481C166.238 185.481 147.151 151.45 146.357 150.003C145.307 148.093 145.714 145.7 147.331 144.234C149.251 142.474 152.287 142.569 154.056 144.508C154.491 144.971 154.803 145.501 155.021 146.059C157.641 150.372 174.562 176.023 204.895 176.023C211.175 176.023 217.181 174.945 223.244 172.722C239.853 166.584 250.134 153.105 253.709 147.724C250.124 142.351 239.843 128.883 223.225 122.716C220.775 121.808 219.527 119.084 220.435 116.634C221.333 114.194 224.048 112.917 226.516 113.844C250.824 122.848 262.931 144.527 263.423 145.444C264.198 146.853 264.198 148.575 263.423 149.984C262.921 150.902 250.824 172.59 226.516 181.584C219.356 184.223 212.291 185.481 204.885 185.481Z" fill="currentColor"/>
        <path d="M209.747 228.441C196.071 228.441 178.27 225.102 163.657 211.161C152.893 200.898 146.887 187.704 145.781 171.946C145.44 167.558 145.61 163.462 145.781 160.757C146.206 155.886 147.001 152.112 147.53 149.606C148.069 147.043 150.652 145.369 153.149 145.889C155.712 146.437 157.348 148.878 156.818 151.441C156.308 153.834 155.589 157.277 155.22 161.457C155.078 163.746 154.927 167.406 155.22 171.237C156.156 184.611 161.188 195.734 170.193 204.322C189.97 223.201 217.683 219.039 226.053 217.214C227.501 211.028 230.281 194.174 222.686 178.369C221.551 176.014 222.535 173.185 224.89 172.06C227.236 170.925 230.064 171.918 231.199 174.264C242.388 197.512 234.736 221.584 234.405 222.596C233.923 224.071 232.74 225.206 231.265 225.66C230.489 225.897 221.693 228.432 209.747 228.441Z" fill="currentColor"/>
        <path d="M91.2532 228.441C79.2979 228.441 70.5111 225.887 69.745 225.67C68.2695 225.216 67.0872 224.081 66.6048 222.605C66.2738 221.593 58.622 197.522 69.8112 174.273C70.9462 171.918 73.7742 170.925 76.1199 172.069C78.475 173.195 79.4681 176.023 78.3237 178.378C70.6813 194.268 73.481 211.038 74.9471 217.214C83.3461 219.011 111.106 223.135 130.827 204.332C139.822 195.743 144.854 184.62 145.781 171.284C146.083 167.416 145.932 163.755 145.781 161.334C145.421 157.286 144.702 153.843 144.22 151.573L153.451 149.492C154.009 152.112 154.804 155.895 155.22 160.634C155.4 163.462 155.57 167.558 155.22 171.984C154.132 187.704 148.117 200.908 137.363 211.17C122.731 225.112 104.939 228.441 91.2532 228.441Z" fill="currentColor"/>
        <path d="M96.1147 185.481C88.7089 185.481 81.6435 184.214 74.5119 181.613C50.1851 172.609 38.0784 150.921 37.5866 150.003C36.811 148.594 36.811 146.872 37.5866 145.463C38.0879 144.546 50.1851 122.867 74.493 113.863C76.9616 112.926 79.6667 114.213 80.5652 116.653C81.4732 119.103 80.2247 121.827 77.7845 122.735C61.0716 128.921 50.8472 142.361 47.2908 147.733C50.8661 153.105 61.1567 166.593 77.7845 172.75C83.8378 174.954 89.8344 176.042 96.1147 176.042C126.656 176.042 143.596 150.05 146.045 145.993C146.244 145.463 146.547 144.971 146.953 144.527C148.703 142.578 151.654 142.389 153.574 144.158L153.678 144.252C155.296 145.719 155.702 148.111 154.652 150.022C153.848 151.46 134.761 185.481 96.1147 185.481Z" fill="currentColor"/>
        <path d="M130.391 155.035C124.177 155.035 117.102 154.344 109.848 152.292C100.068 149.521 91.4893 144.669 84.3482 137.868C78.9475 132.694 74.7196 126.764 71.8159 120.219C61.2983 97.3391 68.742 73.854 69.073 72.8609C69.5554 71.3854 70.7377 70.2409 72.2226 69.7964C73.2536 69.5032 97.6466 62.4473 121.482 72.4258C123.894 73.4284 125.019 76.1997 124.016 78.6116C122.995 81.0234 120.243 82.1395 117.821 81.1464C101.241 74.2134 83.7713 76.8996 77.4247 78.2616C76.006 84.3717 73.2914 100.772 80.4325 116.312C82.8633 121.789 86.3723 126.707 90.865 131.02C96.89 136.742 104.135 140.847 112.421 143.184C131.044 148.452 148.949 143.25 149.138 143.212C151.692 142.427 154.283 143.884 155.021 146.381C155.768 148.887 154.359 151.516 151.862 152.264C151.313 152.424 142.479 155.035 130.391 155.035Z" fill="currentColor"/>
        <path d="M240.354 266C188.305 266 145.884 223.646 145.799 171.606L145.771 152.51C145.771 149.899 147.88 147.771 150.49 147.771H150.5C153.101 147.771 155.229 149.89 155.229 152.491L155.257 171.587C155.342 218.434 193.507 256.542 240.354 256.542C242.964 256.542 245.083 258.66 245.083 261.271C245.083 263.881 242.964 266 240.354 266Z" fill="currentColor"/>
    </g>
    <defs>
        <clipPath id="clip0_54_1311">
            <rect width="227" height="227" fill="white" transform="translate(37 39)"/>
        </clipPath>
    </defs>
</svg>
