<svg width="20" height="25" viewBox="0 0 20 25" fill="none"
    xmlns="http://www.w3.org/2000/svg">
    <path d="M8.12375 0.75125C8.6125 0.37375 9.275 0 10 0C10.725 0 11.3875 0.37375 11.8763 0.75125C12.4063 1.16 12.9213 1.7175 13.3725 2.37C13.6025 2.7025 13.8175 3.065 14.0175 3.4575C15.159 2.86736 16.415 2.53213 17.6987 2.475C19.1088 2.40875 20 3.595 20 4.7475V7.5C20.0002 9.93584 19.1114 12.288 17.5003 14.115C15.8892 15.9419 13.6667 17.118 11.25 17.4225V21.26C12.595 20.4237 14.5775 19.4425 17.1975 18.7875C17.3578 18.7445 17.525 18.7338 17.6895 18.7562C17.8539 18.7785 18.0123 18.8333 18.1553 18.9175C18.2984 19.0016 18.4232 19.1134 18.5226 19.2463C18.6219 19.3793 18.6938 19.5306 18.7341 19.6916C18.7743 19.8526 18.7821 20.02 18.757 20.1841C18.7319 20.3481 18.6743 20.5055 18.5877 20.6471C18.5011 20.7887 18.3872 20.9116 18.2526 21.0086C18.118 21.1057 17.9654 21.175 17.8037 21.2125C13.7812 22.2188 11.5087 24.075 10.9913 24.535C10.7 24.795 10.4113 25 10 25C9.59375 25 9.305 24.8 9.01625 24.5412C8.515 24.0938 6.24125 22.2237 2.19625 21.2125C2.03601 21.1736 1.88505 21.1033 1.75208 21.0058C1.6191 20.9083 1.50674 20.7854 1.42146 20.6443C1.33619 20.5031 1.27968 20.3465 1.25519 20.1834C1.23071 20.0203 1.23874 19.854 1.27881 19.6941C1.31888 19.5341 1.39021 19.3837 1.48868 19.2514C1.58716 19.1191 1.71083 19.0076 1.85257 18.9234C1.99432 18.8391 2.15134 18.7837 2.31459 18.7604C2.47783 18.7371 2.64408 18.7463 2.80375 18.7875C5.4225 19.4425 7.40375 20.425 8.75 21.26V17.4225C6.33327 17.118 4.11076 15.9419 2.49969 14.115C0.888622 12.288 -0.000227117 9.93584 4.35304e-08 7.5V4.73C4.35304e-08 3.59375 0.865 2.4175 2.25875 2.455C3.17625 2.48 4.57625 2.665 6.00875 3.40875C6.19875 3.03625 6.40875 2.6875 6.6275 2.37125C7.0775 1.7175 7.59375 1.15875 8.12375 0.75125Z" fill="currentColor"/>
</svg>
