<svg width="300" height="300" viewBox="0 0 300 300" fill="none"
    xmlns="http://www.w3.org/2000/svg">
    <path d="M247.346 106.404C242.767 104.807 237.952 103.994 233.103 104C208.353 104 187.398 125.27 180.533 154.359H118.485C117.18 148.706 115.28 143.209 112.816 137.958C109.751 130.788 105.286 124.303 99.6841 118.885C94.0822 113.466 87.4561 109.223 80.1946 106.404C75.622 104.816 70.8153 104.007 65.9753 104.014C35.653 104.005 11 135.84 11 174.972C11 214.104 35.653 246 65.9383 246C72.9711 245.981 79.897 244.275 86.1363 241.025C101.625 233.141 113.412 216.426 118.31 195.951H180.589C187.514 224.906 208.436 246 233.089 246C240.12 245.981 247.044 244.277 253.283 241.029C274.381 230.33 288 204.403 288 174.972C288 142.859 271.278 114.663 247.346 106.404ZM90.3559 195.951H108.823C108.693 196.413 108.606 196.936 108.467 197.407C108.25 198.166 107.964 198.873 107.719 199.618C107.258 201.093 106.796 202.572 106.214 203.987C105.882 204.829 105.48 205.615 105.12 206.438C104.571 207.682 104.035 208.944 103.421 210.137C102.996 210.965 102.498 211.732 102.036 212.528C101.408 213.628 100.79 214.742 100.111 215.764C99.6031 216.541 99.0445 217.258 98.5089 218.002C97.8026 218.973 97.1239 219.954 96.3622 220.86C95.7805 221.567 95.1572 222.21 94.5432 222.88C93.7722 223.722 93.0059 224.573 92.1887 225.35C91.5424 225.969 90.8591 226.529 90.1804 227.107C89.3448 227.819 88.5092 228.526 87.6413 229.169C86.9211 229.696 86.1778 230.163 85.4391 230.639C84.8205 231.037 84.1972 231.412 83.5601 231.772C64.3317 223.912 51.0727 199.997 51.0727 172.688C51.0727 147.973 62.1942 125.45 78.9435 115.842L79.3128 115.99C80.9867 116.689 82.6096 117.505 84.1696 118.431C84.4235 118.579 84.6774 118.727 84.9267 118.894C86.4986 119.874 88.0053 120.955 89.4372 122.13C89.6726 122.32 89.8988 122.514 90.1343 122.713C91.5962 123.947 92.9837 125.267 94.2893 126.666C94.4924 126.884 94.6909 127.129 94.8941 127.337C96.2536 128.818 97.5298 130.374 98.7167 131.998L99.2107 132.71C100.414 134.433 101.528 136.217 102.549 138.055C102.673 138.282 102.784 138.517 102.909 138.739C103.943 140.668 104.912 142.67 105.785 144.75C105.863 144.94 105.933 145.134 106.006 145.328C106.884 147.492 107.682 149.726 108.37 152.042C108.402 152.158 108.43 152.278 108.467 152.394C108.652 153.032 108.767 153.716 108.929 154.364H90.3697C87.6444 154.35 84.9443 154.886 82.43 155.939C79.9158 156.993 77.6389 158.542 75.7349 160.495C72.8194 163.392 70.8299 167.091 70.0192 171.124C69.2085 175.156 69.6133 179.338 71.1821 183.139C72.7508 186.941 75.4127 190.189 78.8294 192.471C82.246 194.753 86.263 195.966 90.3697 195.956L90.3559 195.951ZM20.2333 174.972C20.2333 140.936 40.7406 113.252 65.9383 113.252C66.1692 113.252 66.4 113.303 66.6262 113.308C51.3358 126.19 41.8855 148.218 41.8855 172.688C41.8855 199.904 53.9258 224.258 72.1616 236.096C70.1164 236.504 68.0375 236.719 65.9522 236.738C40.7406 236.752 20.2333 209.037 20.2333 174.972ZM90.3559 186.703C88.0711 186.713 85.8355 186.039 83.9352 184.769C82.0349 183.498 80.5565 181.688 79.6893 179.571C78.8221 177.454 78.6055 175.126 79.0672 172.885C79.529 170.644 80.6481 168.592 82.2813 166.991C83.3316 165.913 84.5877 165.058 85.975 164.477C87.3622 163.895 88.8521 163.599 90.3559 163.607H178.922C177.879 171.271 177.894 179.043 178.968 186.703H90.3559ZM249.109 232.799C244.166 235.381 238.678 236.742 233.103 236.766C207.892 236.766 187.398 209.05 187.398 174.986C187.398 140.922 207.905 113.262 233.103 113.262C236.922 113.256 240.715 113.895 244.322 115.153C264.603 122.14 278.767 146.743 278.767 174.972C278.767 200.552 266.856 223.782 249.109 232.799Z" fill="currentColor" stroke="currentColor"/>
</svg>
