<svg width="26" height="26" viewBox="0 0 26 26" fill="none"
    xmlns="http://www.w3.org/2000/svg">
    <path d="M24.7491 18.1547C22.9429 15.3722 19.8453 14.1467 17.8293 15.4184C17.656 15.5289 17.4959 15.6531 17.3491 15.791L15.198 12.4718L20.1677 4.78053C20.575 4.04046 20.7241 3.15853 20.5265 2.27148C20.3458 1.45635 19.8854 0.727681 19.223 0.208518L18.8901 0L13 9.0825L7.10985 0L6.77704 0.208518C6.09861 0.73879 5.63184 1.4882 5.459 2.32464C5.28617 3.16107 5.41838 4.03082 5.83233 4.78053L10.802 12.4718L8.65086 15.791C8.50224 15.6531 8.34157 15.5284 8.1707 15.4184C6.15474 14.1467 3.05713 15.3705 1.25091 18.1547C-0.55531 20.939 -0.385435 24.224 1.63053 25.4973C3.64649 26.7689 6.7441 25.5452 8.55032 22.7609L13 15.8747L17.4497 22.7609C19.2559 25.5435 22.3535 26.7689 24.3695 25.4973C26.3854 24.2257 26.5553 20.939 24.7491 18.1547ZM6.35928 21.3799C5.54631 22.6327 4.5028 23.2412 3.7973 23.395C3.56675 23.4446 3.2478 23.4754 3.02939 23.3386C2.78845 23.1865 2.62897 22.7849 2.60124 22.2636C2.5579 21.4192 2.86299 20.4245 3.43848 19.5392C4.25145 18.2863 5.29497 17.6779 6.00047 17.5241C6.23101 17.4745 6.54996 17.4437 6.76837 17.5805C7.00932 17.7326 7.16879 18.1342 7.19652 18.6555C7.23986 19.5016 6.93478 20.4946 6.35928 21.3799ZM12.9983 13.6767C12.7684 13.6767 12.548 13.5867 12.3854 13.4264C12.2229 13.2662 12.1316 13.0488 12.1316 12.8221C12.1316 12.5955 12.2229 12.3781 12.3854 12.2179C12.548 12.0576 12.7684 11.9676 12.9983 11.9676C13.2281 11.9676 13.4486 12.0576 13.6111 12.2179C13.7737 12.3781 13.865 12.5955 13.865 12.8221C13.865 13.0488 13.7737 13.2662 13.6111 13.4264C13.4486 13.5867 13.2281 13.6767 12.9983 13.6767ZM23.3953 22.2619C23.3676 22.7832 23.2081 23.1848 22.9671 23.3369C22.7505 23.4737 22.4298 23.4429 22.1992 23.3933C21.4937 23.2412 20.4502 22.631 19.6372 21.3782C19.0618 20.4912 18.7567 19.4981 18.8 18.6538C18.8277 18.1325 18.9872 17.7309 19.2282 17.5788C19.4448 17.442 19.7655 17.4728 19.9961 17.5223C20.7016 17.6745 21.7451 18.2846 22.5581 19.5375C23.1335 20.4245 23.4386 21.4175 23.3953 22.2619Z" fill="currentColor"/>
</svg>
