<svg width="300" height="300" viewBox="0 0 300 300" fill="none"
    xmlns="http://www.w3.org/2000/svg">
    <path d="M79.2578 50.9126C80.6327 49.944 82.5079 50.2565 83.4766 51.6313L164.786 165.596C165.755 166.971 165.442 168.846 164.067 169.815C162.692 170.784 160.817 170.471 159.849 169.096L80.4141 57.7876C72.3518 65.3811 70.9143 77.9744 77.5078 87.2241L143.975 180.409C144.943 181.784 144.631 183.659 143.256 184.627C142.756 185.002 142.162 185.19 141.537 185.19C140.6 185.19 139.662 184.752 139.068 183.909L72.6016 90.7554C63.4456 77.9433 66.4457 60.0685 79.2578 50.9126Z" fill="currentColor"/>
    <path d="M79.2578 50.9126C80.6327 49.944 82.5079 50.2565 83.4766 51.6313L164.786 165.596C165.755 166.971 165.442 168.846 164.067 169.815C162.692 170.784 160.817 170.471 159.849 169.096L80.4141 57.7876C72.3518 65.3811 70.9143 77.9744 77.5078 87.2241L143.975 180.409C144.943 181.784 144.631 183.659 143.256 184.627C142.756 185.002 142.162 185.19 141.537 185.19C140.6 185.19 139.662 184.752 139.068 183.909L72.6016 90.7554C63.4456 77.9433 66.4457 60.0685 79.2578 50.9126Z" stroke="currentColor"/>
    <path d="M142.755 161.878C146.161 159.472 150.41 158.472 154.535 159.128C158.723 159.847 162.348 162.128 164.785 165.535L168.879 171.252C172.285 176.002 178.409 177.94 183.909 176.002C192.69 169.878 203.315 167.471 213.877 169.221C224.595 171.002 233.97 176.878 240.251 185.721C246.626 194.658 249.095 205.533 247.188 216.345C245.282 227.188 239.22 236.594 230.127 242.844C223.346 247.563 215.564 249.782 207.752 249.782C194.69 249.781 181.629 243.531 173.379 231.969L139.067 183.909C136.63 180.471 135.661 176.315 136.349 172.127C137.036 167.971 139.318 164.316 142.755 161.878ZM151.973 165.003C149.973 165.003 147.942 165.628 146.286 166.815C141.911 169.94 140.911 176.002 144.005 180.377L178.315 228.438C189.565 244.219 211.284 248.469 226.689 237.875C234.439 232.563 239.595 224.532 241.22 215.314C242.845 206.127 240.751 196.846 235.313 189.252C229.939 181.721 221.97 176.752 212.846 175.221C203.752 173.69 194.565 175.815 187.034 181.19C186.815 181.346 186.597 181.471 186.347 181.565C178.191 184.658 168.941 181.908 163.879 174.784L159.785 169.065C158.285 166.971 156.035 165.566 153.441 165.097C153.004 165.066 152.473 165.003 151.973 165.003Z" fill="currentColor"/>
    <path d="M142.755 161.878C146.161 159.472 150.41 158.472 154.535 159.128C158.723 159.847 162.348 162.128 164.785 165.535L168.879 171.252C172.285 176.002 178.409 177.94 183.909 176.002C192.69 169.878 203.315 167.471 213.877 169.221C224.595 171.002 233.97 176.878 240.251 185.721C246.626 194.658 249.095 205.533 247.188 216.345C245.282 227.188 239.22 236.594 230.127 242.844C223.346 247.563 215.564 249.782 207.752 249.782C194.69 249.781 181.629 243.531 173.379 231.969L139.067 183.909C136.63 180.471 135.661 176.315 136.349 172.127C137.036 167.971 139.318 164.316 142.755 161.878ZM151.973 165.003C149.973 165.003 147.942 165.628 146.286 166.815C141.911 169.94 140.911 176.002 144.005 180.377L178.315 228.438C189.565 244.219 211.284 248.469 226.689 237.875C234.439 232.563 239.595 224.532 241.22 215.314C242.845 206.127 240.751 196.846 235.313 189.252C229.939 181.721 221.97 176.752 212.846 175.221C203.752 173.69 194.565 175.815 187.034 181.19C186.815 181.346 186.597 181.471 186.347 181.565C178.191 184.658 168.941 181.908 163.879 174.784L159.785 169.065C158.285 166.971 156.035 165.566 153.441 165.097C153.004 165.066 152.473 165.003 151.973 165.003Z" stroke="currentColor"/>
    <path d="M191.69 187.69C197.471 183.565 204.534 181.94 211.565 183.096C218.596 184.284 224.721 188.096 228.846 193.908C232.971 199.689 234.596 206.752 233.439 213.783C232.252 220.814 228.439 226.938 222.627 231.063C217.94 234.406 212.534 236 207.19 236C198.878 236 190.66 232.125 185.473 224.844C181.348 219.063 179.723 212.001 180.879 204.97C182.066 197.939 185.878 191.815 191.69 187.69ZM207.128 188.815C203.003 188.815 198.815 190.064 195.222 192.626C190.753 195.814 187.785 200.564 186.879 205.97C185.973 211.376 187.222 216.844 190.409 221.313C197.003 230.563 209.877 232.688 219.096 226.125C223.564 222.938 226.533 218.189 227.439 212.783C228.346 207.377 227.096 201.908 223.908 197.439C219.908 191.814 213.565 188.815 207.128 188.815Z" fill="currentColor"/>
    <path d="M191.69 187.69C197.471 183.565 204.534 181.94 211.565 183.096C218.596 184.284 224.721 188.096 228.846 193.908C232.971 199.689 234.596 206.752 233.439 213.783C232.252 220.814 228.439 226.938 222.627 231.063C217.94 234.406 212.534 236 207.19 236C198.878 236 190.66 232.125 185.473 224.844C181.348 219.063 179.723 212.001 180.879 204.97C182.066 197.939 185.878 191.815 191.69 187.69ZM207.128 188.815C203.003 188.815 198.815 190.064 195.222 192.626C190.753 195.814 187.785 200.564 186.879 205.97C185.973 211.376 187.222 216.844 190.409 221.313C197.003 230.563 209.877 232.688 219.096 226.125C223.564 222.938 226.533 218.189 227.439 212.783C228.346 207.377 227.096 201.908 223.908 197.439C219.908 191.814 213.565 188.815 207.128 188.815Z" stroke="currentColor"/>
    <path d="M218.63 50.0381C219.411 49.9131 220.224 50.1006 220.88 50.5381C233.723 59.6316 236.816 77.4751 227.723 90.3184L168.444 174.222C167.851 175.034 166.913 175.503 165.976 175.503C165.382 175.503 164.757 175.315 164.226 174.94C162.851 173.972 162.538 172.097 163.507 170.722L222.786 86.8809C229.348 77.6 227.848 65.0066 219.755 57.4443L152.726 152.19C151.757 153.565 149.851 153.878 148.507 152.909C147.132 151.941 146.82 150.066 147.788 148.691L216.661 51.2881C217.13 50.6319 217.817 50.1943 218.63 50.0381Z" fill="currentColor"/>
    <path d="M218.63 50.0381C219.411 49.9131 220.224 50.1006 220.88 50.5381C233.723 59.6316 236.816 77.4751 227.723 90.3184L168.444 174.222C167.851 175.034 166.913 175.503 165.976 175.503C165.382 175.503 164.757 175.315 164.226 174.94C162.851 173.972 162.538 172.097 163.507 170.722L222.786 86.8809C229.348 77.6 227.848 65.0066 219.755 57.4443L152.726 152.19C151.757 153.565 149.851 153.878 148.507 152.909C147.132 151.941 146.82 150.066 147.788 148.691L216.661 51.2881C217.13 50.6319 217.817 50.1943 218.63 50.0381Z" stroke="currentColor"/>
    <path d="M86.7891 169.565C97.3511 167.753 107.976 170.097 116.788 176.19C122.194 178.034 128.788 175.784 132.257 170.877C133.226 169.503 135.101 169.19 136.476 170.159C137.85 171.127 138.162 173.003 137.193 174.377C132.037 181.69 122.382 184.784 114.319 181.721C114.069 181.627 113.851 181.502 113.632 181.346C106.07 176.003 96.9137 173.94 87.8203 175.502C78.7269 177.065 70.7586 182.096 65.415 189.627C60.0091 197.252 57.9776 206.533 59.6338 215.72C61.29 224.939 66.5091 232.907 74.2588 238.219C89.6958 248.719 111.414 244.375 122.601 228.563L147.881 192.784C148.85 191.409 150.725 191.096 152.1 192.065C153.474 193.034 153.787 194.908 152.818 196.283L127.538 232.063C119.32 243.688 106.195 250 93.0703 250C85.3207 250 77.6023 247.813 70.8525 243.219C61.7279 237.001 55.6338 227.626 53.665 216.814C51.6964 206.002 54.1341 195.127 60.4775 186.159C66.7585 177.284 76.102 171.377 86.7891 169.565Z" fill="currentColor"/>
    <path d="M86.7891 169.565C97.3511 167.753 107.976 170.097 116.788 176.19C122.194 178.034 128.788 175.784 132.257 170.877C133.226 169.503 135.101 169.19 136.476 170.159C137.85 171.127 138.162 173.003 137.193 174.377C132.037 181.69 122.382 184.784 114.319 181.721C114.069 181.627 113.851 181.502 113.632 181.346C106.07 176.003 96.9137 173.94 87.8203 175.502C78.7269 177.065 70.7586 182.096 65.415 189.627C60.0091 197.252 57.9776 206.533 59.6338 215.72C61.29 224.939 66.5091 232.907 74.2588 238.219C89.6958 248.719 111.414 244.375 122.601 228.563L147.881 192.784C148.85 191.409 150.725 191.096 152.1 192.065C153.474 193.034 153.787 194.908 152.818 196.283L127.538 232.063C119.32 243.688 106.195 250 93.0703 250C85.3207 250 77.6023 247.813 70.8525 243.219C61.7279 237.001 55.6338 227.626 53.665 216.814C51.6964 206.002 54.1341 195.127 60.4775 186.159C66.7585 177.284 76.102 171.377 86.7891 169.565Z" stroke="currentColor"/>
    <path d="M89.165 183.346C96.1647 182.128 103.227 183.753 109.039 187.846C114.851 191.94 118.727 198.064 119.914 205.095C121.133 212.095 119.508 219.158 115.414 224.97C110.227 232.282 102.008 236.219 93.6338 236.219C88.3215 236.219 82.9461 234.625 78.29 231.344C66.2908 222.876 63.447 206.221 71.915 194.221C76.0087 188.409 82.134 184.534 89.165 183.346ZM105.539 192.784C101.039 189.596 95.6023 188.378 90.165 189.315C84.7591 190.252 80.0087 193.221 76.8525 197.72C70.3215 206.97 72.5404 219.845 81.79 226.408C91.0396 232.938 103.914 230.751 110.477 221.47C113.664 216.97 114.883 211.533 113.945 206.095C113.008 200.689 110.039 195.94 105.539 192.784Z" fill="currentColor"/>
    <path d="M89.165 183.346C96.1647 182.128 103.227 183.753 109.039 187.846C114.851 191.94 118.727 198.064 119.914 205.095C121.133 212.095 119.508 219.158 115.414 224.97C110.227 232.282 102.008 236.219 93.6338 236.219C88.3215 236.219 82.9461 234.625 78.29 231.344C66.2908 222.876 63.447 206.221 71.915 194.221C76.0087 188.409 82.134 184.534 89.165 183.346ZM105.539 192.784C101.039 189.596 95.6023 188.378 90.165 189.315C84.7591 190.252 80.0087 193.221 76.8525 197.72C70.3215 206.97 72.5404 219.845 81.79 226.408C91.0396 232.938 103.914 230.751 110.477 221.47C113.664 216.97 114.883 211.533 113.945 206.095C113.008 200.689 110.039 195.94 105.539 192.784Z" stroke="currentColor"/>
    <path d="M150.851 172.971C152.226 172.002 154.101 172.315 155.069 173.659L157.694 177.315C158.663 178.69 158.351 180.565 157.007 181.534C156.507 181.909 155.882 182.096 155.257 182.096C154.319 182.096 153.382 181.659 152.788 180.846L150.163 177.19C149.194 175.815 149.507 173.94 150.851 172.971Z" fill="currentColor"/>
    <path d="M150.851 172.971C152.226 172.002 154.101 172.315 155.069 173.659L157.694 177.315C158.663 178.69 158.351 180.565 157.007 181.534C156.507 181.909 155.882 182.096 155.257 182.096C154.319 182.096 153.382 181.659 152.788 180.846L150.163 177.19C149.194 175.815 149.507 173.94 150.851 172.971Z" stroke="currentColor"/>
</svg>
