<svg width="300" height="300" viewBox="0 0 300 300" fill="none"
    xmlns="http://www.w3.org/2000/svg">
    <path d="M121.638 116.413C125.103 122.621 131.741 126.817 139.35 126.817C146.959 126.817 153.597 122.622 157.062 116.413C159.975 128.21 170.639 136.967 183.333 136.967C184.311 136.967 185.279 136.916 186.233 136.811C184.365 140.993 183.333 145.628 183.333 150.5C183.333 156.418 184.856 161.983 187.535 166.822C185.745 167.64 184.05 168.635 182.474 169.775C179.385 166.25 174.848 164.034 169.8 164.034C161.541 164.034 154.656 169.964 153.188 177.797C151.98 177.642 150.748 177.567 149.5 177.567C144.634 177.567 140.037 178.711 135.959 180.747C135.861 168.608 126.611 158.637 114.773 157.399C115.359 155.196 115.666 152.885 115.666 150.5C115.666 143.873 113.278 137.796 109.316 133.093C115.379 129.439 119.896 123.471 121.638 116.413ZM124.907 71.5431C129.183 62.2321 138.592 55.7668 149.5 55.7668C164.437 55.7668 176.567 67.8959 176.567 82.8336L176.547 83.6928C178.715 83.1314 180.989 82.8336 183.334 82.8336C198.271 82.8336 210.4 94.9627 210.4 109.9C210.4 112.577 210.011 115.162 209.281 117.604C211.811 116.989 214.454 116.667 217.167 116.667C235.839 116.667 251 131.827 251 150.5C251 165.299 241.479 177.892 228.23 182.469C229.82 186.157 230.7 190.217 230.7 194.483C230.7 211.288 217.055 224.933 200.25 224.933C191.91 224.933 184.348 221.574 178.847 216.13C175.298 229.003 163.497 238.466 149.5 238.466C132.695 238.466 119.05 224.822 119.05 208.016C119.05 206.497 119.162 205.008 119.381 203.547C117.138 204.254 114.756 204.633 112.283 204.633C99.2133 204.633 88.6 194.02 88.6 180.95C88.6 179.8 88.6813 178.666 88.8468 177.56L88.6 177.567C73.6627 177.567 61.5332 165.438 61.5332 150.5C61.5332 140.665 66.791 132.044 74.6503 127.307C70.6884 122.604 68.3 116.528 68.3 109.9C68.3 94.9627 80.4295 82.8332 95.3668 82.8332L96.5376 82.8636C99.2984 74.9634 106.827 69.2996 115.667 69.2996C118.996 69.3 122.139 70.1019 124.907 71.5431Z" stroke="currentColor" stroke-width="9" stroke-miterlimit="10" stroke-linecap="round" stroke-linejoin="round"/>
    <path d="M234.083 82.8336C243.426 82.8336 251 75.2597 251 65.9168C251 56.5739 243.426 49 234.083 49C224.74 49 217.166 56.5739 217.166 65.9168C217.166 75.2597 224.74 82.8336 234.083 82.8336Z" stroke="currentColor" stroke-width="9" stroke-miterlimit="10" stroke-linecap="round" stroke-linejoin="round"/>
    <path d="M55.4634 230.266C51.0383 228.036 48 223.455 48 218.167C48 210.696 54.063 204.634 61.5332 204.634C69.0033 204.634 75.0664 210.697 75.0664 218.167C75.0664 218.278 75.0664 218.393 75.063 218.505C82.7804 220.071 88.5996 226.903 88.5996 235.083C88.6 244.421 81.0212 252 71.6832 252C62.3452 252 54.7664 244.421 54.7664 235.083C54.7668 233.409 55.0102 231.791 55.4634 230.266Z" stroke="currentColor" stroke-width="9" stroke-miterlimit="10" stroke-linecap="round" stroke-linejoin="round"/>
</svg>
