<svg width="26" height="25" viewBox="0 0 26 25" fill="none"
    xmlns="http://www.w3.org/2000/svg">
    <path d="M25.2173 12.9031C25.1405 13.2651 25.1184 13.6344 25.0221 13.9943C24.6859 15.2501 23.7588 16.376 22.5977 16.9542C22.5424 17.0415 22.6845 17.6529 22.6939 17.8133C22.8239 20.0356 21.2129 22.0575 19.0678 22.5389C17.8566 22.8109 16.8265 22.5794 15.7363 22.0349C13.5502 25.9007 7.47859 24.5323 7.18659 20.0972C5.23515 20.1961 3.52257 18.6078 3.37946 16.6801C0.0684846 16.0724 -1.18688 11.7772 1.337 9.51706C-0.111454 6.9612 1.69793 3.5946 4.61115 3.37311C5.34406 2.10518 6.86827 1.39072 8.31094 1.75952C10.4134 -1.21144 15.1297 -0.240234 15.8563 3.32366C17.9819 3.34786 19.7171 4.76152 20.1032 6.85282C20.1432 7.07011 20.1006 7.31528 20.1811 7.53572C20.6231 7.61937 21.0382 7.62253 21.4849 7.73038C23.5847 8.23703 25.1005 10.2068 25.1678 12.347L25.2168 12.4301V12.9026L25.2173 12.9031ZM8.1189 7.55992C7.55278 7.65199 7.5733 8.11392 7.38915 8.51113C7.2171 8.88099 6.99507 9.22191 6.68623 9.48917C6.46578 9.67963 6.06171 9.83273 5.98857 10.1579C5.85336 10.7597 6.20745 10.9139 6.44315 11.3621C6.86564 12.166 6.69254 12.4885 6.65887 13.2951C6.61362 14.3841 7.4707 14.1053 8.16046 14.4778C8.65819 14.7466 9.05174 15.258 9.19906 15.8031C9.32165 16.2566 9.20116 16.6953 9.63102 16.9994C10.1398 17.3598 10.5933 16.9158 11.1179 16.8037C11.5856 16.7032 12.1886 16.839 12.5332 16.6943C12.9962 16.5002 12.9325 16.1277 13.1177 15.7557C13.4139 15.1601 14.139 14.9276 14.7551 15.1365C15.1918 15.2843 15.3959 15.781 15.8868 15.7815C16.0709 15.7815 16.9596 15.2975 17.0906 15.1559C17.5562 14.654 17.1074 14.1532 16.9496 13.6791C16.756 13.0983 16.7091 12.5022 16.8301 11.9025C16.9354 11.3811 17.3915 10.7808 16.9064 10.3089C16.5597 9.97162 16.2693 10.1331 15.8889 10.1205C15.0176 10.091 14.1279 9.52916 13.7149 8.77103C13.4208 8.23071 13.4418 7.44786 12.58 7.5515C12.0712 7.61253 12.0486 8.01764 11.7624 8.31068C11.1537 8.93413 10.0861 8.98884 9.39899 8.46168C8.91389 8.08919 8.90232 7.43313 8.1189 7.55992Z" fill="currentColor"/>
</svg>
