<svg width="300" height="300" viewBox="0 0 300 300" fill="none"
    xmlns="http://www.w3.org/2000/svg">
    <path d="M191.751 69.1409C180.576 58.07 165.756 52 150 52C124.179 52 101.585 68.4166 93.7765 92.8346C92.4576 96.9733 93.1865 101.353 95.7894 104.906C98.4271 108.492 102.661 110.631 107.381 110.631C113.246 110.631 118.418 106.803 120.257 101.146C124.769 87.2475 138.721 78.2804 153.332 79.7634C168.984 81.3844 181.235 95.4558 181.235 111.734V120.839C181.235 122.46 180.09 123.874 178.494 124.219L99.2253 141.015C94.4359 142.016 91 146.292 91 151.121V241.653C91 247.344 95.6853 252 101.412 252H198.588C204.315 252 209 247.344 209 241.653V110.631C209 94.9729 202.857 80.2462 191.751 69.1409ZM202.059 241.688C202.059 243.585 200.497 245.137 198.588 245.137H101.412C99.5029 245.137 97.9412 243.585 97.9412 241.688V151.155C97.9412 149.534 99.0865 148.12 100.683 147.775L179.951 130.979C184.741 129.979 188.176 125.702 188.176 120.874V111.769C188.176 91.9724 173.184 74.935 154.061 72.9346C152.742 72.7967 151.423 72.7277 150.104 72.7277C133.688 72.7277 118.73 83.3157 113.628 99.0426C112.726 101.871 110.192 103.768 107.104 103.768C104.813 103.768 102.731 102.698 101.377 100.87C100.093 99.1461 99.7459 96.9733 100.371 94.9729C107.277 73.4175 127.198 58.9322 150 58.9322C163.882 58.9322 176.966 64.3125 186.823 74.0728C196.645 83.8676 202.059 96.8698 202.059 110.665V241.688Z" fill="currentColor"/>
    <path d="M170.571 224H129.429C127.543 224 126 225.575 126 227.5C126 229.425 127.543 231 129.429 231H170.571C172.457 231 174 229.425 174 227.5C174 225.575 172.457 224 170.571 224Z" fill="currentColor"/>
    <path d="M177.556 211H122.444C120.55 211 119 212.575 119 214.5C119 216.425 120.55 218 122.444 218H177.556C179.45 218 181 216.425 181 214.5C181 212.575 179.45 211 177.556 211Z" fill="currentColor"/>
    <path d="M136.4 200C138.27 200 139.8 198.47 139.8 196.6V186.4H160.2V196.6C160.2 198.47 161.73 200 163.6 200C165.47 200 167 198.47 167 196.6V169.4C167 167.53 165.47 166 163.6 166C161.73 166 160.2 167.53 160.2 169.4V179.6H139.8V169.4C139.8 167.53 138.27 166 136.4 166C134.53 166 133 167.53 133 169.4V196.6C133 198.47 134.53 200 136.4 200Z" fill="currentColor"/>
</svg>
