<svg width="23" height="23" viewBox="0 0 23 23" fill="none"
    xmlns="http://www.w3.org/2000/svg">
    <path d="M14.515 15.2062C18.714 15.2062 22.1181 11.8021 22.1181 7.60309C22.1181 3.40411 18.714 0 14.515 0C10.316 0 6.9119 3.40411 6.9119 7.60309C6.9119 8.41092 7.03718 9.19283 7.27046 9.9229L0.302396 16.891C0.107998 17.0854 0 17.3489 0 17.6253V21.0813C0 21.6558 0.462233 22.1181 1.03679 22.1181H4.49274C5.06729 22.1181 5.52952 21.6558 5.52952 21.0813V19.3533H7.2575C7.83205 19.3533 8.29428 18.8911 8.29428 18.3165V16.5886H10.0223C10.2987 16.5886 10.5622 16.4806 10.7566 16.2862L12.1952 14.8476C12.9253 15.0809 13.7072 15.2062 14.515 15.2062ZM16.243 4.14714C16.7013 4.14714 17.1408 4.32919 17.4648 4.65325C17.7889 4.97731 17.9709 5.41683 17.9709 5.87512C17.9709 6.3334 17.7889 6.77292 17.4648 7.09698C17.1408 7.42104 16.7013 7.60309 16.243 7.60309C15.7847 7.60309 15.3452 7.42104 15.0211 7.09698C14.697 6.77292 14.515 6.3334 14.515 5.87512C14.515 5.41683 14.697 4.97731 15.0211 4.65325C15.3452 4.32919 15.7847 4.14714 16.243 4.14714Z" fill="currentColor"/>
</svg>
