<svg width="24" height="30" viewBox="0 0 24 30" fill="none"
    xmlns="http://www.w3.org/2000/svg">
    <path d="M12.8919 28.8985L12.8773 28.9012L12.7835 28.9474L12.7571 28.9527L12.7386 28.9474L12.6448 28.9012C12.6307 28.8968 12.6201 28.899 12.6131 28.9078L12.6078 28.921L12.5853 29.4865L12.5919 29.513L12.6051 29.5301L12.7426 29.6279L12.7624 29.6332L12.7782 29.6279L12.9156 29.5301L12.9315 29.509L12.9368 29.4865L12.9143 28.9223C12.9108 28.9082 12.9033 28.9003 12.8919 28.8985ZM13.242 28.7492L13.2248 28.7519L12.9804 28.8748L12.9672 28.888L12.9632 28.9025L12.987 29.4707L12.9936 29.4865L13.0042 29.4958L13.2698 29.6187C13.2865 29.6231 13.2993 29.6195 13.3081 29.6081L13.3134 29.5896L13.2684 28.7783C13.264 28.7624 13.2552 28.7528 13.242 28.7492ZM12.2973 28.7519C12.2914 28.7483 12.2845 28.7472 12.2778 28.7487C12.2712 28.7502 12.2654 28.7541 12.2616 28.7598L12.2537 28.7783L12.2087 29.5896C12.2096 29.6054 12.2171 29.616 12.2312 29.6213L12.251 29.6187L12.5166 29.4958L12.5298 29.4852L12.5351 29.4707L12.5576 28.9025L12.5536 28.8866L12.5404 28.8734L12.2973 28.7519Z" fill="currentColor"/>
    <path d="M11.466 0.997596L9.8011 0L9.48398 1.91459C8.97924 4.93777 6.91402 7.7469 4.63606 9.72095C0.176609 13.5871 -0.799846 17.7889 0.580933 21.2574C1.90225 24.5765 5.25576 26.8492 8.65948 27.2284L9.44699 27.3156C7.49936 26.1251 6.24939 23.3438 6.68543 21.2653C7.11618 19.2226 8.58549 17.3093 11.4078 15.544L12.8309 14.6561L13.3621 16.2483C13.6752 17.189 14.2169 17.9448 14.7679 18.7125C15.0322 19.0825 15.3004 19.4564 15.5462 19.8541C16.3958 21.2349 16.6204 22.7703 16.0721 24.2938C15.5726 25.6785 14.7494 26.7673 13.6144 27.3711L14.8961 27.2284C18.0911 26.873 20.4364 25.7803 21.9599 23.9529C23.4701 22.1413 24 19.8092 24 17.3265C24 15.0142 23.05 12.6305 21.9295 10.6472C20.6161 8.32431 18.9023 6.39519 17.0314 4.52552C16.7076 5.17297 16.7327 5.43459 16.0668 6.47447C15.202 4.17796 13.5788 2.24568 11.466 0.997596Z" fill="currentColor"/>
</svg>
