<svg width="300" height="300" viewBox="0 0 300 300" fill="none"
    xmlns="http://www.w3.org/2000/svg">
    <path d="M141.883 248C141.447 248 141.015 247.904 140.618 247.718C140.221 247.532 139.868 247.26 139.583 246.922C133.145 239.249 128.254 230.351 125.189 220.738C122.67 212.939 121.202 204.505 120.832 195.678C120.214 180.964 122.822 170.197 123.037 169.337C126.609 153.813 133.009 140.048 142.041 128.408C149.28 119.093 158.213 111.121 168.589 104.729C186.236 93.8628 201.814 91.328 202.468 91.226C203.255 91.1211 204.05 91.3354 204.684 91.8229C205.318 92.3104 205.741 93.0324 205.861 93.8344C205.981 94.6365 205.789 95.4547 205.327 96.1141C204.865 96.7734 204.169 97.2215 203.388 97.3623C203.221 97.3889 188.151 99.8705 171.518 110.174C149.354 123.895 135.028 144.29 128.94 170.785C128.94 170.809 128.927 170.834 128.923 170.858C128.897 170.96 126.284 181.472 126.907 195.601C127.472 208.485 130.93 227.145 144.181 242.868C144.561 243.319 144.806 243.871 144.887 244.459C144.969 245.048 144.884 245.648 144.642 246.188C144.4 246.729 144.011 247.187 143.522 247.508C143.033 247.829 142.464 248 141.883 248Z" fill="currentColor"/>
    <path d="M149.979 126.345C149.547 126.345 149.12 126.265 148.723 126.109C148.326 125.954 147.967 125.726 147.668 125.439C135.457 113.715 121.471 106.993 111.888 103.429C101.439 99.5303 93.794 98.4172 93.7187 98.3983C92.879 98.2805 92.1247 97.8612 91.6218 97.2328C91.1188 96.6044 90.9084 95.8184 91.0368 95.0475C91.1652 94.2767 91.6219 93.5843 92.3064 93.1226C92.9909 92.6609 93.8472 92.4677 94.6868 92.5855C95.0202 92.6317 102.998 93.7804 114.096 97.8994C124.314 101.691 139.234 108.842 152.288 121.377C152.722 121.792 153.014 122.315 153.127 122.882C153.24 123.448 153.169 124.032 152.923 124.562C152.677 125.091 152.267 125.543 151.743 125.86C151.22 126.177 150.606 126.345 149.979 126.345Z" fill="currentColor"/>
    <path d="M168.924 248H130.687C124.265 248 118.071 245.666 113.302 241.448C108.534 237.23 105.529 231.429 104.87 225.165L91.0182 93.5908C91.0064 93.4848 91.0003 93.3783 91 93.2716C91 82.0318 97.2677 71.542 108.649 63.7377C119.684 56.1678 134.298 52 149.8 52C165.302 52 179.916 56.1678 190.951 63.7377C202.335 71.5509 208.6 82.0429 208.6 93.2716C208.6 93.3783 208.594 93.4848 208.582 93.5908L194.73 225.165C194.071 231.427 191.068 237.227 186.302 241.444C181.536 245.662 175.344 247.997 168.924 248ZM97.377 93.1154L111.21 224.522C111.697 229.252 113.961 233.635 117.561 236.819C121.16 240.003 125.839 241.76 130.687 241.749H168.924C173.772 241.76 178.451 240.003 182.051 236.819C185.651 233.635 187.914 229.252 188.401 224.522L202.234 93.1154C202.175 84.0319 196.88 75.424 187.308 68.8587C177.323 62.0188 164.007 58.2506 149.8 58.2506C135.593 58.2506 122.277 62.0188 112.303 68.8587C102.732 75.424 97.4362 84.0319 97.377 93.1154Z" fill="currentColor"/>
    <path d="M131.073 111.476C130.229 111.476 129.42 111.137 128.823 110.533C128.226 109.929 127.891 109.11 127.891 108.256V89.53H114.936V98.3051C114.936 99.1592 114.601 99.9783 114.004 100.582C113.407 101.186 112.598 101.525 111.754 101.525C110.91 101.525 110.101 101.186 109.504 100.582C108.908 99.9783 108.572 99.1592 108.572 98.3051V86.3098C108.572 85.4558 108.908 84.6367 109.504 84.0328C110.101 83.4289 110.91 83.0896 111.754 83.0896H131.073C131.917 83.0896 132.726 83.4289 133.323 84.0328C133.92 84.6367 134.255 85.4558 134.255 86.3098V108.256C134.255 109.11 133.92 109.929 133.323 110.533C132.726 111.137 131.917 111.476 131.073 111.476Z" fill="currentColor"/>
    <path d="M161.101 116.883C160.394 116.882 159.708 116.634 159.157 116.179C157.014 114.412 155.258 112.204 154.001 109.7C152.743 107.195 152.014 104.449 151.858 101.639C151.838 101.277 151.827 100.897 151.827 100.519C151.825 95.4356 153.706 90.5394 157.09 86.8146C160.474 83.0899 165.112 80.8126 170.071 80.4403C175.03 80.068 179.943 81.6283 183.824 84.8077C187.704 87.9872 190.263 92.5501 190.988 97.5797C191.053 97.9938 191.037 98.4169 190.941 98.8246C190.845 99.2323 190.67 99.6164 190.428 99.9546C190.185 100.293 189.879 100.578 189.528 100.795C189.177 101.011 188.787 101.154 188.381 101.215C187.975 101.276 187.561 101.254 187.164 101.15C186.766 101.046 186.393 100.862 186.066 100.61C185.738 100.357 185.463 100.041 185.256 99.6786C185.049 99.3164 184.915 98.9158 184.861 98.5001C184.365 95.0507 182.609 91.9214 179.947 89.7418C177.286 87.5622 173.915 86.4938 170.515 86.7517C167.114 87.0096 163.935 88.5745 161.617 91.1317C159.299 93.689 158.014 97.0488 158.02 100.535C158.02 100.791 158.02 101.046 158.042 101.297C158.148 103.225 158.647 105.108 159.508 106.825C160.369 108.543 161.573 110.057 163.041 111.27C163.533 111.683 163.888 112.24 164.059 112.867C164.23 113.493 164.208 114.158 163.996 114.772C163.784 115.385 163.392 115.917 162.875 116.294C162.357 116.672 161.738 116.878 161.101 116.883Z" fill="currentColor"/>
    <path d="M132.041 111.476C131.48 111.475 130.929 111.328 130.444 111.05C129.958 110.772 129.555 110.372 129.275 109.891C128.995 109.41 128.847 108.865 128.848 108.31C128.848 107.755 128.996 107.21 129.276 106.729L142.224 84.6719C142.504 84.1913 142.908 83.7921 143.393 83.5144C143.879 83.2367 144.43 83.0902 144.991 83.0896C145.552 83.0902 146.103 83.2367 146.589 83.5144C147.075 83.7921 147.478 84.1913 147.758 84.6719L156.735 99.9635C156.966 100.324 157.121 100.727 157.191 101.148C157.261 101.569 157.245 102 157.142 102.414C157.039 102.829 156.853 103.218 156.594 103.56C156.335 103.901 156.009 104.187 155.636 104.401C155.262 104.615 154.849 104.751 154.42 104.803C153.992 104.854 153.558 104.819 153.143 104.701C152.729 104.582 152.343 104.381 152.009 104.111C151.675 103.841 151.4 103.506 151.2 103.128L144.991 92.5494L134.811 109.909C134.528 110.387 134.124 110.784 133.638 111.058C133.152 111.333 132.601 111.477 132.041 111.476Z" fill="currentColor"/>
    <path d="M178.397 145.269H149.59C148.749 145.269 147.943 144.984 147.349 144.477C146.755 143.97 146.421 143.283 146.421 142.566C146.421 141.849 146.755 141.161 147.349 140.654C147.943 140.147 148.749 139.862 149.59 139.862H178.397C179.237 139.862 180.043 140.147 180.638 140.654C181.232 141.161 181.566 141.849 181.566 142.566C181.566 143.283 181.232 143.97 180.638 144.477C180.043 144.984 179.237 145.269 178.397 145.269Z" fill="currentColor"/>
    <path d="M178.397 172.303H149.59C148.749 172.303 147.943 172.019 147.349 171.512C146.755 171.005 146.421 170.317 146.421 169.6C146.421 168.883 146.755 168.195 147.349 167.688C147.943 167.181 148.749 166.896 149.59 166.896H178.397C179.237 166.896 180.043 167.181 180.638 167.688C181.232 168.195 181.566 168.883 181.566 169.6C181.566 170.317 181.232 171.005 180.638 171.512C180.043 172.019 179.237 172.303 178.397 172.303Z" fill="currentColor"/>
    <path d="M178.397 196.634H149.59C148.749 196.634 147.943 196.35 147.349 195.843C146.755 195.336 146.421 194.648 146.421 193.931C146.421 193.214 146.755 192.526 147.349 192.019C147.943 191.512 148.749 191.228 149.59 191.228H178.397C179.237 191.228 180.043 191.512 180.638 192.019C181.232 192.526 181.566 193.214 181.566 193.931C181.566 194.648 181.232 195.336 180.638 195.843C180.043 196.35 179.237 196.634 178.397 196.634Z" fill="currentColor"/>
    <path d="M178.397 223.669H149.59C148.749 223.669 147.943 223.313 147.349 222.679C146.755 222.045 146.421 221.186 146.421 220.29C146.421 219.393 146.755 218.534 147.349 217.9C147.943 217.266 148.749 216.91 149.59 216.91H178.397C179.237 216.91 180.043 217.266 180.638 217.9C181.232 218.534 181.566 219.393 181.566 220.29C181.566 221.186 181.232 222.045 180.638 222.679C180.043 223.313 179.237 223.669 178.397 223.669Z" fill="currentColor"/>
</svg>
