<svg width="24" height="25" viewBox="0 0 24 25" fill="none"
    xmlns="http://www.w3.org/2000/svg">
    <path d="M23.9543 12.4481C23.9396 12.5361 23.8526 12.5414 23.7856 12.5665C23.0018 12.8631 22.0347 12.9993 21.2069 13.2832C17.1591 14.6716 14.0482 17.9681 12.7478 22.0315C12.4555 22.9442 12.3182 23.9354 12.0374 24.825C12.0154 24.8942 12.0196 24.9843 11.9253 25C11.5512 23.0406 11.02 21.1283 10.0319 19.3879C8.21807 16.1972 5.48954 14.1089 1.98772 13.0485C1.43761 12.8819 0.621359 12.7635 0.128882 12.554C0.0754432 12.5309 0.00733476 12.5204 0 12.4481C2.43724 11.9598 4.70577 11.1184 6.66625 9.56872C9.6714 7.19435 11.3081 3.73654 11.9263 0C12.0196 0.0157173 12.0164 0.10583 12.0384 0.174986C12.3193 1.06459 12.4565 2.05688 12.7489 2.96848C13.6971 5.92963 15.6597 8.57014 18.2583 10.2729C19.9946 11.4097 21.9288 12.0301 23.9543 12.4481Z" fill="currentColor"/>
    <path d="M21.6008 4.91739L20.6641 5.36586C19.9421 5.83633 19.3375 6.60858 19.2474 7.47932C19.0986 7.39759 19.1238 7.16078 19.0641 7.00989C18.6418 5.9495 17.9544 5.42035 16.9244 5.01798C16.8699 4.99703 16.7987 4.99808 16.7903 4.91739C18.0508 4.72983 18.9278 3.57723 19.2223 2.40576C19.4235 3.58456 20.3969 4.70783 21.6019 4.91739H21.6008Z" fill="currentColor"/>
</svg>
