<svg width="300" height="300" viewBox="0 0 300 300" fill="none"
    xmlns="http://www.w3.org/2000/svg">
    <path d="M197.282 187.677C193.569 202.665 216.43 208.581 220.202 193.363C224.282 176.917 224.243 160.078 219.028 142.599C217.16 136.343 210.595 132.794 204.335 134.662C198.098 136.524 194.538 143.116 196.401 149.354C200.141 161.884 200.574 174.42 197.282 187.677ZM206.141 140.71C209.068 139.838 212.111 141.502 212.979 144.404C217.497 159.543 218.202 175.206 214.075 191.845C213.358 194.735 210.353 196.584 207.42 195.852C204.473 195.122 202.679 192.147 203.41 189.197C206.803 175.522 206.711 161.821 202.449 147.548C201.582 144.644 203.239 141.578 206.141 140.71Z" fill="currentColor" stroke="currentColor"/>
    <path d="M189.759 77.6913C191.502 77.6913 192.915 76.2782 192.915 74.5351V63.9027C192.915 62.1597 191.502 60.7466 189.759 60.7466C188.016 60.7466 186.603 62.1597 186.603 63.9027V74.5351C186.603 76.2782 188.016 77.6913 189.759 77.6913Z" fill="currentColor"/>
    <path d="M176.612 77.6913C178.355 77.6913 179.768 76.2782 179.768 74.5351V63.9027C179.768 62.1597 178.355 60.7466 176.612 60.7466C174.869 60.7466 173.456 62.1597 173.456 63.9027V74.5351C173.456 76.2782 174.869 77.6913 176.612 77.6913Z" fill="currentColor"/>
    <path d="M92.0079 251C92.3955 251 202.427 250.995 202.902 250.995C208.782 250.995 214.225 248.07 217.464 243.172C217.464 243.171 217.466 243.171 217.466 243.171C248.502 196.184 246.903 134.762 211.066 89.4271H211.392C213.135 89.4271 214.548 88.014 214.548 86.2709C214.548 84.5279 213.135 83.1148 211.392 83.1148H207.057V60.7005C207.057 54.2494 201.808 49 195.356 49H171.013C164.561 49 159.312 54.249 159.312 60.7005V83.1148H154.977C153.234 83.1148 151.821 84.5279 151.821 86.2709C151.821 88.014 153.234 89.4271 154.977 89.4271H159.352C162.34 111.428 143.078 128.241 129.144 142.593C115.724 156.473 106.057 169.631 106.269 188.985H92.0075C74.9102 188.985 61 202.895 61 219.992C61 237.089 74.9106 251 92.0079 251ZM171.013 55.3123H195.357C198.328 55.3123 200.744 57.7287 200.744 60.7001V83.1144H165.625V60.7005C165.625 57.7291 168.042 55.3123 171.013 55.3123ZM133.679 146.985C146.961 133.299 168.631 114.715 165.764 89.4378H202.923C238.308 130.725 244.062 191.451 212.2 239.689C210.131 242.817 206.656 244.683 202.902 244.683H166.618C169.108 241.622 170.435 237.42 170.435 233.907C170.435 228.178 167.599 223.101 163.257 220.003C167.586 216.905 170.085 212.102 170.401 207.142C171.029 197.209 162.455 188.975 152.466 188.975H112.533C112.32 171.628 121.459 159.624 133.679 146.985ZM92.0079 195.297H152.461C159.262 195.297 164.469 200.939 164.086 206.736C163.728 212.411 159.087 216.836 153.365 216.836H112.36C110.617 216.836 109.204 218.249 109.204 219.992C109.204 221.736 110.617 223.149 112.36 223.149H153.335C153.351 223.149 153.365 223.158 153.381 223.158C159.297 223.158 164.112 227.986 164.112 233.919C164.112 239.759 159.407 244.683 153.381 244.683C153.373 244.683 153.366 244.687 153.358 244.687H92.0079C78.3903 244.687 67.3127 233.61 67.3127 219.992C67.3127 206.374 78.3907 195.297 92.0079 195.297Z" fill="currentColor" stroke="currentColor"/>
</svg>
