<svg width="300" height="300" viewBox="0 0 300 300" fill="none"
    xmlns="http://www.w3.org/2000/svg">
    <mask id="mask0_54_1360" style="mask-type:luminance" maskUnits="userSpaceOnUse" x="46" y="46" width="208" height="211">
        <path d="M46 46H254V257H46V46Z" fill="white"/>
    </mask>
    <g mask="url(#mask0_54_1360)">
        <path d="M52.0938 193.123V217.85C52.0938 236.058 66.6444 250.818 84.5938 250.818H215.406C233.356 250.818 247.906 236.058 247.906 217.85V193.123H52.0938Z" stroke="currentColor" stroke-width="8" stroke-miterlimit="10" stroke-linecap="round" stroke-linejoin="round"/>
        <path d="M247.906 217.85H52.0938" stroke="currentColor" stroke-width="8" stroke-miterlimit="10" stroke-linecap="round" stroke-linejoin="round"/>
        <path d="M125.219 89.2715C125.219 109.756 108.849 126.361 88.6563 126.361C68.4632 126.361 52.0938 109.756 52.0938 89.2715C52.0938 68.7872 68.4632 52.1816 88.6563 52.1816C108.849 52.1816 125.219 68.7872 125.219 89.2715Z" stroke="currentColor" stroke-width="8" stroke-miterlimit="10" stroke-linecap="round" stroke-linejoin="round"/>
        <path d="M76.4688 89.2715H88.6563V76.9082" stroke="currentColor" stroke-width="8" stroke-miterlimit="10" stroke-linecap="round" stroke-linejoin="round"/>
        <path d="M168.956 160.154H131.044C107.202 160.154 85.0423 172.614 72.4062 193.123H227.594C214.957 172.614 192.797 160.154 168.956 160.154Z" stroke="currentColor" stroke-width="8" stroke-miterlimit="10" stroke-linecap="round" stroke-linejoin="round"/>
        <path d="M247.906 118.943L199.925 167.616" stroke="currentColor" stroke-width="8" stroke-miterlimit="10" stroke-linecap="round" stroke-linejoin="round"/>
        <path d="M179.103 160.945L215.406 98.3398" stroke="currentColor" stroke-width="8" stroke-miterlimit="10" stroke-linecap="round" stroke-linejoin="round"/>
    </g>
</svg>
