<svg width="19" height="23" viewBox="0 0 19 23" fill="none"
    xmlns="http://www.w3.org/2000/svg">
    <path d="M14.0035 0.194477C13.662 -0.0590234 13.272 -0.0525234 12.972 0.143477C12.682 0.333477 12.5 0.682977 12.5 1.07848V20.787C12.5 22.112 13.8535 22.9095 15.0635 22.5765C15.7095 22.3985 16.173 22.007 16.446 21.4895C16.716 20.9775 16.7925 20.357 16.702 19.721L15.918 14.2335C16.8045 14.03 17.493 13.768 17.9845 13.54C18.6615 13.2255 19.0095 12.5265 18.9775 11.813C18.705 5.67798 15.993 1.67198 14.0035 0.194477ZM2.20203 0.0754766C1.38403 0.0754766 0.669028 0.644477 0.530028 1.46348C0.299028 2.83048 -0.0249725 5.21998 0.00152754 7.77598C0.0160275 9.19598 0.966528 10.4725 2.45853 10.8065C2.67619 10.8558 2.90403 10.9001 3.14203 10.9395L2.22103 19.7115C2.08303 21.0255 2.90103 22.346 4.26303 22.5355C4.43903 22.56 4.60703 22.5755 4.75003 22.5755C4.89303 22.5755 5.06153 22.56 5.23753 22.5355C6.59953 22.3455 7.41753 21.0255 7.27953 19.7115L6.35853 10.94C6.59653 10.9006 6.82436 10.8563 7.04203 10.807C8.53403 10.473 9.48453 9.19648 9.49903 7.77698C9.52503 5.22048 9.20103 2.83048 8.96903 1.46348C8.83053 0.644477 8.11553 0.0759766 7.29753 0.0759766H7.15253C7.11871 0.0759408 7.08523 0.0827678 7.05412 0.0960444C7.02302 0.109321 6.99493 0.128771 6.97156 0.153218C6.94819 0.177664 6.93002 0.206599 6.91815 0.23827C6.90629 0.269942 6.90097 0.303691 6.90253 0.337477L7.12453 5.22248C7.12824 5.30449 7.11576 5.38643 7.0878 5.46361C7.05984 5.5408 7.01696 5.61173 6.96159 5.67234C6.90622 5.73295 6.83946 5.78207 6.76511 5.81688C6.69076 5.85169 6.61029 5.87152 6.52828 5.87523C6.44627 5.87894 6.36433 5.86646 6.28714 5.8385C6.20995 5.81054 6.13903 5.76766 6.07841 5.71229C6.0178 5.65692 5.96869 5.59016 5.93388 5.51581C5.89906 5.44146 5.87924 5.36099 5.87553 5.27898L5.65003 0.314477C5.64719 0.250097 5.61961 0.1893 5.57303 0.144769C5.52645 0.100238 5.46447 0.0754142 5.40003 0.0754766H4.10003C4.03559 0.0754142 3.97361 0.100238 3.92703 0.144769C3.88045 0.1893 3.85286 0.250097 3.85003 0.314477L3.62453 5.27848C3.61697 5.4441 3.54392 5.59995 3.42146 5.71172C3.299 5.82349 3.13716 5.88204 2.97153 5.87448C2.8059 5.86692 2.65006 5.79387 2.53829 5.67141C2.42652 5.54895 2.36797 5.3871 2.37553 5.22148L2.59753 0.336977C2.59908 0.303191 2.59377 0.269442 2.5819 0.23777C2.57004 0.206099 2.55187 0.177164 2.5285 0.152718C2.50513 0.128271 2.47704 0.108821 2.44593 0.0955445C2.41483 0.0822678 2.38135 0.0754408 2.34753 0.0754766H2.20203Z" fill="currentColor"/>
</svg>
