<svg width="25" height="25" viewBox="0 0 25 25" fill="none"
    xmlns="http://www.w3.org/2000/svg">
    <path fill-rule="evenodd" clip-rule="evenodd" d="M23.9229 12.0317L17.0899 15.2286C17.0456 15.1736 16.9983 15.1211 16.948 15.0714L9.90775 8.01498L9.81065 7.92326L12.9965 1.0821C13.1232 0.809122 13.3138 0.570813 13.552 0.387397C13.7902 0.20398 14.0691 0.0808712 14.3649 0.0285157C14.6607 -0.0238397 14.9648 -0.00389598 15.2513 0.0866546C15.5378 0.177205 15.7982 0.33569 16.0106 0.54866L17.1068 1.64924L14.6006 4.9753C14.4142 5.22301 14.3335 5.53482 14.3764 5.84213C14.4193 6.14945 14.5823 6.42709 14.8294 6.61399C15.0765 6.80089 15.3876 6.88173 15.6943 6.83874C16.0009 6.79574 16.2779 6.63242 16.4644 6.38471L18.7725 3.31882L21.7978 6.35101L18.7706 8.26766C18.641 8.34976 18.5288 8.45664 18.4404 8.5822C18.352 8.70776 18.2892 8.84954 18.2555 8.99945C18.2217 9.14936 18.2178 9.30445 18.2439 9.45589C18.2699 9.60732 18.3255 9.75212 18.4074 9.88203C18.4893 10.0119 18.596 10.1244 18.7212 10.213C18.8465 10.3016 18.988 10.3646 19.1375 10.3984C19.2871 10.4322 19.4418 10.4362 19.5929 10.41C19.744 10.3839 19.8885 10.3282 20.0181 10.2461L23.4878 8.04493L24.4533 9.01261C24.6654 9.22532 24.8233 9.48614 24.9136 9.77298C25.0038 10.0598 25.0237 10.3642 24.9717 10.6604C24.9197 10.9567 24.7972 11.2359 24.6146 11.4746C24.4321 11.7133 24.1948 11.9044 23.9229 12.0317ZM15.2953 16.726L8.25507 9.66959L1.50239 16.4378C1.03061 16.899 0.654884 17.4495 0.397 18.0573C0.139117 18.6652 0.00420739 19.3183 9.68526e-05 19.9789C-0.00401368 20.6394 0.122756 21.2941 0.373054 21.9052C0.623353 22.5162 0.992198 23.0714 1.4582 23.5385C1.9242 24.0055 2.47809 24.3752 3.08773 24.6261C3.69737 24.877 4.35065 25.004 5.00966 24.9999C5.66867 24.9958 6.32031 24.8606 6.92679 24.6021C7.53326 24.3436 8.0825 23.967 8.54265 23.4942L15.2953 16.726Z" fill="currentColor"/>
</svg>
