<svg width="300" height="300" viewBox="0 0 300 300" fill="none"
    xmlns="http://www.w3.org/2000/svg">
    <mask id="mask0_53_1215" style="mask-type:luminance" maskUnits="userSpaceOnUse" x="36" y="39" width="227" height="227">
        <path d="M36 39H263V266H36V39Z" fill="white"/>
    </mask>
    <g mask="url(#mask0_53_1215)">
        <path d="M220.438 149.84H209.807C185.873 149.84 163.412 138.281 149.5 118.805C135.588 138.281 113.127 149.84 89.1929 149.84H78.5625" stroke="currentColor" stroke-width="9" stroke-miterlimit="10" stroke-linecap="round" stroke-linejoin="round"/>
        <path d="M216.414 194.176H224.87C237.113 194.176 247.038 184.251 247.038 172.008C247.038 159.765 237.113 149.84 224.87 149.84H220.436" stroke="currentColor" stroke-width="9" stroke-miterlimit="10" stroke-linecap="round" stroke-linejoin="round"/>
        <path d="M82.5847 194.176H74.1289C61.8855 194.176 51.9609 184.251 51.9609 172.008C51.9609 159.765 61.8855 149.84 74.1289 149.84H78.5625" stroke="currentColor" stroke-width="9" stroke-miterlimit="10" stroke-linecap="round" stroke-linejoin="round"/>
        <path d="M170.47 173.874C159.083 180.497 149.124 190.456 142.5 201.844C138.092 209.422 141.814 219.116 150.244 221.524L179.779 229.963L198.589 211.153L190.151 181.618C187.742 173.188 178.048 169.466 170.47 173.874Z" stroke="currentColor" stroke-width="9" stroke-miterlimit="10" stroke-linecap="round" stroke-linejoin="round"/>
        <path d="M128.662 174.225C122.541 180.136 112.616 180.136 106.494 174.225" stroke="currentColor" stroke-width="9" stroke-miterlimit="10" stroke-linecap="round" stroke-linejoin="round"/>
        <path d="M205.664 218.229C215.132 202.941 220.438 185.097 220.438 166.457V148.51C220.438 109.332 188.678 77.5723 149.5 77.5723C110.323 77.5723 78.5625 109.332 78.5625 148.51V166.457C78.5625 202.644 98.4321 235.91 130.294 253.066C134.17 255.153 145.098 259.35 149.5 259.35C153.902 259.35 164.83 255.153 168.706 253.066C176.025 249.125 182.676 244.301 188.634 238.819" stroke="currentColor" stroke-width="9" stroke-miterlimit="10" stroke-linecap="round" stroke-linejoin="round"/>
        <path d="M188.37 89.166C189.045 86.5803 189.402 83.8869 189.402 81.119C189.402 61.5301 171.537 45.6503 149.5 45.6503C127.462 45.6503 109.598 61.5301 109.598 81.119C109.598 83.8869 109.955 86.5803 110.629 89.166" stroke="currentColor" stroke-width="9" stroke-miterlimit="10" stroke-linecap="round" stroke-linejoin="round"/>
        <path d="M198.589 211.154L179.779 229.964L209.165 259.35H246.785L198.589 211.154Z" stroke="currentColor" stroke-width="9" stroke-miterlimit="10" stroke-linecap="round" stroke-linejoin="round"/>
    </g>
</svg>
