<svg width="300" height="300" viewBox="0 0 300 300" fill="none"
    xmlns="http://www.w3.org/2000/svg">
    <path d="M102.129 160.073H196.872" stroke="currentColor" stroke-width="8" stroke-miterlimit="10" stroke-linecap="round" stroke-linejoin="round"/>
    <path d="M131.822 118.288V54.357C131.822 49.7414 135.78 46 140.662 46H158.341C163.223 46 167.181 49.7414 167.181 54.357V118.288" stroke="currentColor" stroke-width="8" stroke-miterlimit="10" stroke-linecap="round" stroke-linejoin="round"/>
    <path d="M184.858 252H114.143C103.945 252 95.862 243.866 96.498 234.243L103.535 141.564C104.531 128.448 116.076 118.288 129.985 118.288H169.014C182.924 118.288 194.469 128.448 195.465 141.564L202.502 234.243C203.139 243.866 195.055 252 184.858 252Z" stroke="currentColor" stroke-width="8" stroke-miterlimit="10" stroke-linecap="round" stroke-linejoin="round"/>
    <path d="M149.5 118.288V190.785" stroke="currentColor" stroke-width="8" stroke-miterlimit="10" stroke-linecap="round" stroke-linejoin="round"/>
    <path d="M149.5 190.785L162.759 215.856C155.43 221.427 143.569 221.427 136.24 215.856L149.5 190.785Z" stroke="currentColor" stroke-width="8" stroke-miterlimit="10" stroke-linecap="round" stroke-linejoin="round"/>
    <path d="M149.5 190.785L162.759 215.856C155.43 221.427 143.569 221.427 136.24 215.856L149.5 190.785Z" fill="currentColor"/>
</svg>
