<svg width="19" height="28" viewBox="0 0 19 28" fill="none"
    xmlns="http://www.w3.org/2000/svg">
    <mask id="mask0_13_3872" style="mask-type:luminance" maskUnits="userSpaceOnUse" x="0" y="0" width="19" height="28">
        <path d="M6.68899 3.12257C6.7057 2.81928 6.83794 2.53392 7.05855 2.32513C7.27916 2.11635 7.57137 2 7.87511 2H11.5671C11.8709 2 12.1631 2.11635 12.3837 2.32513C12.6043 2.53392 12.7365 2.81928 12.7532 3.12257L13.2153 11.4379C13.2242 11.5992 13.2001 11.7605 13.1445 11.9122C13.0889 12.0638 13.003 12.2025 12.892 12.3198C12.781 12.4371 12.6472 12.5305 12.4989 12.5944C12.3505 12.6582 12.1907 12.6911 12.0292 12.6911H7.41302C7.25152 12.6911 7.09171 12.6582 6.94337 12.5944C6.79502 12.5305 6.66126 12.4371 6.55024 12.3198C6.43923 12.2025 6.3533 12.0638 6.2977 11.9122C6.24211 11.7605 6.21801 11.5992 6.2269 11.4379L6.68899 3.12257Z" stroke="white" stroke-width="2.61538"/>
        <path d="M2 16.2549C2 15.3097 2.37546 14.4033 3.04379 13.7349C3.71211 13.0666 4.61856 12.6912 5.56371 12.6912H13.879C14.8242 12.6912 15.7306 13.0666 16.399 13.7349C17.0673 14.4033 17.4427 15.3097 17.4427 16.2549V23.9762C17.4427 24.4488 17.255 24.902 16.9209 25.2362C16.5867 25.5704 16.1335 25.7581 15.6609 25.7581H3.78186C3.30928 25.7581 2.85606 25.5704 2.52189 25.2362C2.18773 24.902 2 24.4488 2 23.9762V16.2549Z" fill="currentColor" stroke="white" stroke-width="2.61538"/>
        <path d="M9.72131 21.0063C10.7054 21.0063 11.5032 20.2086 11.5032 19.2245C11.5032 18.2404 10.7054 17.4426 9.72131 17.4426C8.73722 17.4426 7.93945 18.2404 7.93945 19.2245C7.93945 20.2086 8.73722 21.0063 9.72131 21.0063Z" fill="currentColor"/>
    </mask>
    <g mask="url(#mask0_13_3872)">
        <path d="M-4.53369 -0.375977H23.976V28.1337H-4.53369V-0.375977Z" fill="currentColor"/>
    </g>
</svg>
