<svg width="300" height="300" viewBox="0 0 300 300" fill="none"
    xmlns="http://www.w3.org/2000/svg">
    <path d="M156.253 45.5C157.271 45.5089 158.245 45.9204 158.964 46.6445C159.683 47.3686 160.09 48.3476 160.099 49.3701C160.107 50.3925 159.717 51.3778 159.011 52.1143L159.005 52.1211L157.026 54.1123C155.513 55.658 154.424 57.5705 153.862 59.6611C156.626 60.3658 159.177 61.7486 161.284 63.6895C163.517 65.7464 165.176 68.3577 166.092 71.2617C167.008 74.1657 167.15 77.2614 166.505 80.2383C165.923 82.9257 164.714 85.4298 162.988 87.5518C180.049 90.7199 195.5 99.7521 206.696 113.119C217.973 126.583 224.215 143.589 224.355 161.19H230.619C231.261 161.19 231.892 161.351 232.457 161.656C233.021 161.962 233.502 162.402 233.855 162.939C234.209 163.477 234.424 164.094 234.483 164.735C234.542 165.377 234.443 166.023 234.193 166.616L197.014 255.117C196.717 255.823 196.22 256.426 195.585 256.85C194.949 257.273 194.203 257.5 193.44 257.5H102.182C101.396 257.5 100.629 257.261 99.9824 256.813C99.3356 256.366 98.8388 255.732 98.5576 254.996L64.7578 166.495C64.5321 165.904 64.4527 165.266 64.5264 164.638C64.6001 164.009 64.8252 163.407 65.1816 162.885C65.5381 162.363 66.0156 161.935 66.5732 161.64C67.1308 161.344 67.7516 161.19 68.3818 161.19H74.6455C74.7855 143.589 81.0285 126.583 92.3057 113.119C103.502 99.7523 118.953 90.72 136.013 87.5518C134.252 85.3847 133.031 82.8198 132.464 80.0703C131.837 77.0306 132.027 73.8768 133.018 70.9365C134.008 67.9962 135.762 65.3756 138.097 63.3467C140.342 61.3954 143.048 60.0617 145.951 59.4678C146.668 55.3597 148.614 51.5667 151.534 48.5996L151.535 48.5977L153.517 46.6035L153.522 46.5967C154.254 45.8853 155.235 45.4911 156.253 45.5ZM172.048 249.692H190.867L224.753 168.999H202.866L172.048 249.692ZM153.381 249.692H163.734L194.553 168.999H153.381V249.692ZM135.268 249.692H145.621V168.999H104.449L135.268 249.692ZM104.848 249.692H126.954L96.1357 168.999H74.0293L104.848 249.692ZM149.5 94.1123C131.712 94.1332 114.658 101.26 102.079 113.928C89.6168 126.478 82.5567 143.454 82.4062 161.19H216.596C216.445 143.454 209.385 126.478 196.923 113.928C184.343 101.259 167.288 94.1329 149.5 94.1123ZM151.381 67.0684C149.512 66.6939 147.574 66.8855 145.812 67.6201C144.052 68.3548 142.546 69.5992 141.486 71.1963C140.427 72.7935 139.861 74.6722 139.861 76.5938C139.861 79.1704 140.877 81.641 142.686 83.4619C144.494 85.2828 146.945 86.3047 149.501 86.3047C151.407 86.3047 153.27 85.7356 154.855 84.6689C156.44 83.6022 157.676 82.0854 158.406 80.3105C159.136 78.5357 159.327 76.5826 158.955 74.6982C158.583 72.8137 157.665 71.0826 156.316 69.7246C154.968 68.3667 153.25 67.4428 151.381 67.0684Z" fill="currentColor" stroke="currentColor"/>
</svg>
