<svg width="23" height="23" viewBox="0 0 23 23" fill="none" xmlns="http://www.w3.org/2000/svg">
<path fill-rule="evenodd" clip-rule="evenodd" d="M10.247 6.25C10.2468 5.59024 10.4641 4.94881 10.8652 4.42501C11.2664 3.90121 11.829 3.52426 12.466 3.3525C12.296 2.2865 11.444 1.5 10.247 1.5C10.0481 1.5 9.85732 1.42098 9.71667 1.28033C9.57602 1.13968 9.497 0.948912 9.497 0.75C9.497 0.551088 9.57602 0.360322 9.71667 0.21967C9.85732 0.0790177 10.0481 0 10.247 0C12.3065 0 13.7855 1.4765 13.976 3.339C14.5211 3.47556 15.017 3.7625 15.407 4.16712C15.797 4.57174 16.0655 5.07777 16.1819 5.62756C16.2983 6.17735 16.258 6.74879 16.0655 7.27677C15.873 7.80475 15.536 8.26804 15.093 8.61385C14.65 8.95967 14.1188 9.1741 13.5599 9.23271C13.001 9.29133 12.4369 9.19178 11.9318 8.9454C11.4267 8.69902 11.0009 8.31572 10.7031 7.83917C10.4052 7.36262 10.2472 6.81198 10.247 6.25ZM17.747 6.25C17.7471 7.38999 17.3146 8.48754 16.5367 9.32093C15.7589 10.1543 14.6938 10.6614 13.5565 10.7398C12.4192 10.8182 11.2945 10.4621 10.4097 9.74331C9.52486 9.02453 8.94581 7.99672 8.7895 6.8675L8.578 6.958C6.9645 7.653 5.368 8.4315 3.9845 9.238C2.6115 10.038 1.4045 10.8915 0.6045 11.748C0.529833 11.8283 0.4625 11.9123 0.4025 12H22.476C22.259 8.2625 20.453 5.941 19.381 4.8825C19.1009 4.60429 18.7614 4.39324 18.3879 4.26523C18.0145 4.13723 17.6169 4.09561 17.225 4.1435C17.569 4.79227 17.7483 5.51566 17.747 6.25ZM22.4955 13.5H0C0.0075 14.757 0.0345 15.8335 0.072 16.75H22.423C22.461 15.8335 22.488 14.757 22.4955 13.5ZM0.151 18.25C0.1995 18.9875 0.2535 19.575 0.3055 20.0335C0.4365 21.196 1.3505 22.0405 2.482 22.1515C4.0105 22.3005 6.869 22.5 11.242 22.5C15.617 22.5 18.4815 22.3 20.0125 22.151C21.1445 22.041 22.059 21.196 22.19 20.0325C22.2415 19.574 22.296 18.987 22.344 18.25H0.151Z" fill="white"/>
</svg>
