<svg width="26" height="26" viewBox="0 0 26 26" fill="none"
    xmlns="http://www.w3.org/2000/svg">
    <path d="M8.57112 0.00570038C7.41992 -0.0751014 6.45554 0.712716 6.17279 1.75809L5.57699 4.00034H5.65778C14.5796 4.00034 21.815 11.2372 21.815 20.1607V20.2415L24.0568 19.6456C25.107 19.3678 25.8896 18.3982 25.8088 17.2468C25.1726 8.01518 17.8009 0.642015 8.57112 0.00570038ZM20.1891 20.6758C20.1942 20.5041 20.1992 20.3324 20.1992 20.1607C20.1992 12.126 13.6909 5.61638 5.65778 5.61638C5.48611 5.61638 5.31444 5.62143 5.14277 5.62648L0.0280073 24.8018C-0.0477295 25.0795 0.0330565 25.3775 0.235021 25.5795C0.436986 25.7815 0.734884 25.8623 1.01259 25.7865L20.1891 20.6758ZM8.88921 10.4645C9.31773 10.4645 9.72869 10.6347 10.0317 10.9378C10.3347 11.2409 10.5049 11.6519 10.5049 12.0805C10.5049 12.5091 10.3347 12.9202 10.0317 13.2232C9.72869 13.5263 9.31773 13.6966 8.88921 13.6966C8.4607 13.6966 8.04973 13.5263 7.74673 13.2232C7.44372 12.9202 7.27349 12.5091 7.27349 12.0805C7.27349 11.6519 7.44372 11.2409 7.74673 10.9378C8.04973 10.6347 8.4607 10.4645 8.88921 10.4645ZM12.1206 16.9286C12.1206 16.5 12.2909 16.089 12.5939 15.7859C12.8969 15.4829 13.3079 15.3126 13.7364 15.3126C14.1649 15.3126 14.5758 15.4829 14.8789 15.7859C15.1819 16.089 15.3521 16.5 15.3521 16.9286C15.3521 17.3572 15.1819 17.7683 14.8789 18.0713C14.5758 18.3744 14.1649 18.5447 13.7364 18.5447C13.3079 18.5447 12.8969 18.3744 12.5939 18.0713C12.2909 17.7683 12.1206 17.3572 12.1206 16.9286ZM4.84992 19.3527C4.84992 18.9241 5.02014 18.513 5.32315 18.21C5.62616 17.9069 6.03712 17.7367 6.46564 17.7367C6.89415 17.7367 7.30511 17.9069 7.60812 18.21C7.91113 18.513 8.08135 18.9241 8.08135 19.3527C8.08135 19.7813 7.91113 20.1923 7.60812 20.4954C7.30511 20.7985 6.89415 20.9687 6.46564 20.9687C6.03712 20.9687 5.62616 20.7985 5.32315 20.4954C5.02014 20.1923 4.84992 19.7813 4.84992 19.3527Z" fill="currentColor"/>
</svg>
