<svg width="300" height="300" viewBox="0 0 300 300" fill="none"
    xmlns="http://www.w3.org/2000/svg">
    <path d="M141.277 148.429C149.261 148.429 155.757 141.933 155.757 133.948C155.757 125.963 149.261 119.467 141.277 119.467C133.292 119.467 126.796 125.963 126.796 133.948C126.796 141.932 133.292 148.429 141.277 148.429ZM141.277 127.742C144.699 127.742 147.483 130.526 147.483 133.948C147.483 137.37 144.699 140.154 141.277 140.154C137.855 140.154 135.071 137.37 135.071 133.948C135.071 130.526 137.855 127.742 141.277 127.742Z" fill="currentColor"/>
    <path d="M172.307 185.665C181.433 185.665 188.857 178.241 188.857 169.116C188.857 159.99 181.433 152.566 172.307 152.566C163.182 152.566 155.758 159.99 155.758 169.116C155.758 178.241 163.182 185.665 172.307 185.665ZM172.307 160.841C176.87 160.841 180.582 164.553 180.582 169.116C180.582 173.678 176.87 177.39 172.307 177.39C167.745 177.39 164.033 173.678 164.033 169.116C164.033 164.553 167.745 160.841 172.307 160.841Z" fill="currentColor"/>
    <path d="M129.721 184.453L137.996 176.178C139.612 174.563 139.612 171.943 137.996 170.327C136.38 168.712 133.761 168.712 132.145 170.327L123.87 178.602C122.254 180.217 122.254 182.837 123.87 184.453C125.486 186.069 128.106 186.068 129.721 184.453Z" fill="currentColor"/>
    <path d="M169.381 143.08C170.997 144.695 173.616 144.695 175.233 143.08C176.848 141.464 176.848 138.844 175.233 137.228L171.095 133.091C169.479 131.475 166.86 131.475 165.244 133.091C163.628 134.707 163.628 137.326 165.244 138.942L169.381 143.08Z" fill="currentColor"/>
    <path d="M220.76 196.14L213.421 179.957C213.419 179.951 213.416 179.946 213.414 179.94L153.319 47.4239C151.854 44.1943 147.25 44.1898 145.783 47.4239C143.358 52.7731 80.5852 191.195 78.3424 196.14C73.9721 195.741 69.4926 196.754 65.5882 199.205C52.7223 207.284 52.8257 226.052 65.7702 234.022C88.7884 248.194 118.542 256 149.552 256C180.561 256 210.315 248.195 233.333 234.022C243.521 227.749 245.998 214.425 239.565 205.019C235.486 199.053 228.358 195.445 220.76 196.14ZM172.574 109.917C168.251 112.642 162.857 110.762 160.773 106.65C158.491 102.15 160.801 96.4887 165.805 94.9927L172.574 109.917ZM149.552 59.15L162.371 87.4192C153.265 90.8375 149.118 101.277 153.179 109.927C157.225 118.547 167.659 121.985 176.007 117.489L204.307 179.894C190.713 187.313 171.073 195.307 149.551 195.307C128.029 195.307 108.389 187.313 94.7954 179.894L98.622 171.455C107.073 175.743 117.28 172.073 121.171 163.559C125.102 154.957 120.949 144.897 112.268 141.365L149.552 59.15ZM108.847 148.91C113.169 150.448 115.481 155.235 113.878 159.581C112.189 164.16 106.595 166.498 102.042 163.915L108.847 148.91ZM91.3692 187.45C105.831 195.267 126.604 203.581 149.552 203.581C172.498 203.581 193.272 195.267 207.734 187.45L212.783 198.584C208.874 200.736 189.855 216.68 149.552 216.681C109.272 216.681 90.2253 200.734 86.32 198.584L91.3692 187.45ZM228.994 226.976C183.705 254.861 115.399 254.861 70.1091 226.976C62.3801 222.217 62.3201 211.028 69.9887 206.213C74.2212 203.556 79.5476 203.746 83.5505 206.599C100.824 218.914 125.184 225.07 149.552 225.069C173.914 225.068 198.284 218.911 215.553 206.6C221.539 202.332 229.311 204.437 232.881 209.894C236.471 215.384 235.07 223.235 228.994 226.976Z" fill="currentColor"/>
</svg>
