<svg width="300" height="300" viewBox="0 0 300 300" fill="none"
    xmlns="http://www.w3.org/2000/svg">
    <path d="M268.234 119.478V66H31V119.477C42.1844 125.08 49.867 136.639 49.867 150C49.867 163.361 42.1844 174.92 31 180.522V234H268.234V180.522C257.049 174.92 249.367 163.36 249.367 150C249.367 136.64 257.049 125.08 268.234 119.478Z" stroke="currentColor" stroke-width="9" stroke-miterlimit="10"/>
    <path d="M219.174 153.147C219.174 124.153 195.67 100.649 166.677 100.649C137.683 100.649 114.179 124.153 114.179 153.147C114.179 173.209 125.433 181.769 141.972 185.141V199.351H191.381V185.141C207.919 181.769 219.174 173.209 219.174 153.147Z" stroke="currentColor" stroke-width="9" stroke-miterlimit="10"/>
    <path d="M139.196 148.225H153.961" stroke="currentColor" stroke-width="9" stroke-miterlimit="10"/>
    <path d="M194.156 148.225H179.391" stroke="currentColor" stroke-width="9" stroke-miterlimit="10"/>
    <path d="M83.5781 66V234" stroke="currentColor" stroke-width="9" stroke-miterlimit="10"/>
</svg>
