<svg width="31" height="31" viewBox="0 0 31 31" fill="none" xmlns="http://www.w3.org/2000/svg">
<path d="M16.4599 0L18.0466 0.199021C24.6729 1.28514 29.9868 6.75155 30.8581 13.4224C30.9054 13.7865 30.8951 14.1851 30.9879 14.534C30.9606 15.1747 31.0256 15.8331 30.9879 16.472C30.2137 29.7051 13.8909 35.896 4.49538 26.4431C-4.87285 17.0181 1.33239 0.77242 14.5225 0H16.4599ZM8.6498 10.1737L11.433 14.3847C12.0688 15.0127 13.0184 14.4448 12.8837 13.599L8.6492 7.08527L4.30486 13.6093C4.20657 14.4976 5.1531 15.0036 5.80657 14.3234C6.73308 13.3581 7.5983 11.4643 8.47931 10.3357C8.51025 10.2963 8.61158 10.1483 8.6498 10.1737ZM22.3326 10.1737C22.3709 10.1483 22.4722 10.2963 22.5031 10.3357C23.3841 11.4643 24.2494 13.3581 25.1759 14.3234C25.8287 15.0036 26.7753 14.4976 26.6776 13.6093L22.363 7.08648L18.0993 13.599C17.9652 14.4448 18.9142 15.0127 19.5501 14.3847L22.3332 10.1737H22.3326ZM15.4199 17.2129C11.223 17.2766 8.84821 22.115 11.3498 25.4905C13.6051 28.5334 18.4027 28.136 20.1022 24.7496C21.8381 21.2922 19.2868 17.1546 15.4193 17.2135L15.4199 17.2129Z" fill="white"/>
</svg>
