<svg width="30" height="30" viewBox="0 0 30 30" fill="none"
    xmlns="http://www.w3.org/2000/svg">
    <path d="M15 0C11.0218 0 7.20644 1.58035 4.3934 4.3934C1.58035 7.20644 0 11.0218 0 15C0 18.9782 1.58035 22.7936 4.3934 25.6066C7.20644 28.4196 11.0218 30 15 30C16.9698 30 18.9204 29.612 20.7403 28.8582C22.5601 28.1044 24.2137 26.9995 25.6066 25.6066C26.9995 24.2137 28.1044 22.5601 28.8582 20.7403C29.612 18.9204 30 16.9698 30 15C30 13.0302 29.612 11.0796 28.8582 9.25975C28.1044 7.43987 26.9995 5.78628 25.6066 4.3934C24.2137 3.00052 22.5601 1.89563 20.7403 1.14181C18.9204 0.387986 16.9698 0 15 0ZM15 5.23404C20.3868 5.23404 24.766 9.61321 24.766 15C24.766 20.3868 20.3868 24.766 15 24.766C9.61321 24.766 5.23404 20.3868 5.23404 15C5.23404 9.61321 9.61321 5.23404 15 5.23404ZM15 6.38298C13.6968 6.38298 12.4623 6.67149 11.356 7.18736C12.093 9.28609 13.3543 11.9362 15 11.9362C16.6483 11.9362 17.8676 9.27766 18.6225 7.17734C17.5216 6.66779 16.2947 6.38298 15 6.38298ZM21.3033 9.12C19.5343 10.4696 17.4006 12.4896 17.9095 14.0558C18.4189 15.6237 21.3249 15.9616 23.5558 16.0304C23.5959 15.6925 23.617 15.3488 23.617 15C23.617 12.725 22.739 10.6588 21.3033 9.12ZM8.68232 9.13551C7.25508 10.6726 6.38298 12.7326 6.38298 15C6.38298 15.3543 6.40468 15.7033 6.44604 16.0462C8.66943 15.9935 11.5767 15.6126 12.085 14.0483C12.594 12.4818 10.4459 10.5024 8.68232 9.13551ZM13.1624 11.9212C13.0467 11.9245 12.9347 11.9626 12.841 12.0306C12.7178 12.1202 12.6352 12.255 12.6114 12.4055C12.5875 12.556 12.6245 12.7097 12.714 12.833C12.8035 12.9562 12.9384 13.0389 13.0888 13.0627C13.2393 13.0866 13.3931 13.0497 13.5163 12.9602C13.5774 12.9159 13.6291 12.8599 13.6685 12.7956C13.708 12.7313 13.7343 12.6598 13.7461 12.5853C13.7579 12.5108 13.7549 12.4347 13.7373 12.3613C13.7197 12.2879 13.6878 12.2188 13.6435 12.1577C13.5886 12.0822 13.5161 12.0211 13.4322 11.9799C13.3484 11.9387 13.2558 11.9186 13.1624 11.9212ZM16.8376 11.9212C16.824 11.9208 16.8105 11.9209 16.7969 11.9215C16.7105 11.9251 16.626 11.9483 16.5497 11.9892C16.4734 12.0301 16.4074 12.0877 16.3565 12.1577C16.3122 12.2187 16.2803 12.2879 16.2626 12.3612C16.245 12.4346 16.242 12.5107 16.2538 12.5853C16.2656 12.6598 16.292 12.7313 16.3315 12.7956C16.3709 12.8599 16.4226 12.9159 16.4837 12.9602C16.6069 13.0497 16.7607 13.0866 16.9112 13.0628C17.0616 13.0389 17.1965 12.9563 17.286 12.833C17.3755 12.7098 17.4125 12.556 17.3886 12.4056C17.3648 12.2551 17.2822 12.1203 17.159 12.0307C17.0653 11.9627 16.9533 11.9245 16.8376 11.9212ZM15 12.9574C14.4583 12.9574 13.9388 13.1726 13.5557 13.5557C13.1726 13.9388 12.9574 14.4583 12.9574 15C12.9574 15.5417 13.1726 16.0613 13.5557 16.4443C13.9388 16.8274 14.4583 17.0426 15 17.0426C15.5417 17.0426 16.0613 16.8274 16.4443 16.4443C16.8274 16.0613 17.0426 15.5417 17.0426 15C17.0426 14.4583 16.8274 13.9388 16.4443 13.5557C16.0613 13.1726 15.5417 12.9574 15 12.9574ZM12.0449 15.3853C11.9874 15.3862 11.9303 15.3956 11.8756 15.4134C11.8038 15.4367 11.7374 15.4739 11.68 15.5229C11.6226 15.5719 11.5754 15.6317 11.5412 15.699C11.5069 15.7662 11.4862 15.8395 11.4803 15.9147C11.4744 15.9899 11.4833 16.0656 11.5067 16.1373C11.5537 16.2822 11.6565 16.4025 11.7922 16.4716C11.9279 16.5408 12.0856 16.5532 12.2305 16.5061C12.3022 16.4828 12.3687 16.4456 12.4261 16.3966C12.4834 16.3476 12.5306 16.2878 12.5649 16.2206C12.5991 16.1534 12.6198 16.0801 12.6257 16.0049C12.6317 15.9297 12.6227 15.8541 12.5994 15.7823C12.5615 15.6656 12.4872 15.5641 12.3874 15.4926C12.2876 15.4212 12.1676 15.3836 12.0449 15.3853ZM17.9719 15.3859C17.8464 15.3804 17.7226 15.4162 17.6194 15.4878C17.5163 15.5594 17.4394 15.6628 17.4006 15.7822C17.3773 15.854 17.3683 15.9296 17.3743 16.0048C17.3802 16.08 17.4009 16.1533 17.4351 16.2206C17.4694 16.2878 17.5166 16.3476 17.5739 16.3966C17.6313 16.4456 17.6978 16.4828 17.7695 16.5061C17.9144 16.5531 18.072 16.5407 18.2078 16.4716C18.3435 16.4024 18.4462 16.2822 18.4933 16.1373C18.5167 16.0656 18.5256 15.9899 18.5197 15.9147C18.5138 15.8395 18.4931 15.7662 18.4588 15.699C18.4246 15.6317 18.3774 15.5719 18.32 15.5229C18.2626 15.4739 18.1962 15.4367 18.1244 15.4134C18.075 15.3974 18.0237 15.3881 17.9719 15.3859ZM12.0904 17.1548C10.7123 17.1614 8.88357 18.2291 7.46757 19.1927C8.68219 21.3737 10.8161 22.9691 13.349 23.4589C13.9867 21.3276 14.5248 18.4407 13.1929 17.4731C12.8831 17.248 12.5076 17.1527 12.0904 17.1548ZM17.8999 17.156C17.4799 17.156 17.1026 17.2528 16.7927 17.4779C15.459 18.4469 16.0355 21.3144 16.6594 23.4573C19.1927 22.9649 21.3259 21.3663 22.5382 19.1824C21.1335 18.2107 19.287 17.156 17.8999 17.156V17.156ZM15 17.5264C14.8476 17.5264 14.7015 17.5869 14.5938 17.6946C14.4861 17.8024 14.4255 17.9485 14.4255 18.1009C14.4255 18.2532 14.4861 18.3993 14.5938 18.5071C14.7015 18.6148 14.8476 18.6753 15 18.6753C15.1524 18.6753 15.2985 18.6148 15.4062 18.5071C15.5139 18.3993 15.5745 18.2532 15.5745 18.1009C15.5745 17.9485 15.5139 17.8024 15.4062 17.6946C15.2985 17.5869 15.1524 17.5264 15 17.5264Z" fill="currentColor"/>
</svg>
