<svg width="300" height="300" viewBox="0 0 300 300" fill="none"
    xmlns="http://www.w3.org/2000/svg">
    <path d="M186.932 39H113.066C72.225 39 39 89.9163 39 152.5C39 215.084 72.225 266 113.066 266H186.932C227.772 266 261 215.084 261 152.5C261 89.9163 227.77 39 186.932 39ZM113.066 46.9189H159.803C148.663 53.6633 138.843 64.4252 131.099 78.0432L87.1882 98.8621L64.9882 80.0678C77.0609 59.6791 94.1433 46.9189 113.066 46.9189ZM113.347 139.708L79.2011 160.466L47.2924 141.07C48.664 120.853 53.6315 102.344 61.1421 87.1764L84.0371 106.557C84.7636 107.172 85.6719 107.491 86.5853 107.491C87.1566 107.491 87.7331 107.367 88.2728 107.111L125.346 89.5336C118.934 104.213 114.703 121.302 113.347 139.708ZM46.9344 150.111L77.153 168.478C77.7822 168.863 78.4904 169.053 79.2011 169.053C79.9093 169.053 80.6201 168.863 81.2466 168.48L112.918 149.227C112.897 150.317 112.863 151.399 112.863 152.497C112.863 172.519 116.277 191.335 122.24 207.682L98.2474 226.389L56.2298 205.459C56.0903 205.391 55.9429 205.349 55.8007 205.296C50.1487 189.751 46.8949 171.722 46.8949 152.495C46.8975 151.7 46.9239 150.908 46.9344 150.111ZM113.066 258.081C91.624 258.081 72.5382 241.71 60.4392 216.403L96.9574 234.593C97.5129 234.868 98.1158 235.005 98.7133 235.005C99.5742 235.005 100.43 234.723 101.138 234.174L125.289 215.342C133.626 234.482 145.654 249.515 159.801 258.081H113.066ZM186.932 258.081C163.334 258.081 142.597 238.255 130.88 208.508C130.801 207.877 130.572 207.26 130.177 206.711C124.207 190.854 120.763 172.308 120.763 152.5C120.763 94.2823 150.445 46.9189 186.932 46.9189C223.418 46.9189 253.102 94.2823 253.102 152.5C253.1 210.718 223.418 258.081 186.932 258.081Z" fill="currentColor" stroke="currentColor" stroke-width="2"/>
    <path d="M187 84C165.692 84 149 114.09 149 152.499C149 190.91 165.689 221 187 221C208.311 221 225 190.91 225 152.499C225 114.09 208.308 84 187 84ZM187 213.099C170.741 213.099 157.006 185.347 157.006 152.496C157.006 119.647 170.741 91.8956 187 91.8956C203.259 91.8956 216.994 119.647 216.994 152.496C216.994 185.347 203.257 213.099 187 213.099Z" fill="currentColor" stroke="currentColor" stroke-width="0.5"/>
</svg>
