<svg width="27" height="22" viewBox="0 0 27 22" fill="none"
    xmlns="http://www.w3.org/2000/svg">
    <path d="M14.1749 1.64544V4.24489C19.8359 4.54406 24.7733 8.62496 26.2204 14.0776C26.4497 14.943 26.6414 15.9901 26.678 16.8832C26.7013 17.456 26.7545 18.0732 26.1273 18.3225L0.524991 18.3059C-0.0667014 18.0444 -0.0101915 17.435 0.0130773 16.8832C0.0562908 15.8361 0.300059 14.6061 0.605877 13.6045C2.20367 8.37898 7.0325 4.54295 12.5151 4.24489V1.64544H8.78098C8.7566 1.64544 8.40757 1.42826 8.36546 1.38172C7.9433 0.908591 8.21034 0.162882 8.80536 0.0110804L17.8403 0C18.4674 0.139613 18.7544 0.888646 18.3145 1.38837C18.2492 1.46372 17.9866 1.64654 17.9079 1.64654H14.1738L14.1749 1.64544ZM16.873 7.68646C16.453 7.7474 16.1173 8.20613 16.1793 8.62829C16.2669 9.22441 16.9217 9.37843 17.3583 9.6643C18.4708 10.3945 19.4558 11.2964 20.2181 12.3912C20.4963 12.7901 20.9129 13.7208 21.1733 13.9801C21.7151 14.5186 22.6536 14.092 22.5849 13.2887C22.5339 12.6981 21.3705 11.1025 20.9528 10.605C20.145 9.64325 18.8874 8.55959 17.7716 7.97787C17.4968 7.83493 17.1899 7.64103 16.8719 7.68646H16.873Z" fill="currentColor"/>
    <path d="M0.605877 20.3513L25.9888 20.3369C26.9949 20.5707 26.8653 21.9081 25.8237 22.0001L0.631362 21.9602C-0.168641 21.6876 -0.200775 20.6394 0.605877 20.3513Z" fill="currentColor"/>
</svg>
