<svg width="39" height="39" viewBox="0 0 39 39" fill="none" xmlns="http://www.w3.org/2000/svg">
<path d="M30.6068 29.7766L28.766 27.9358C28.5359 27.7057 28.1654 27.7057 27.9392 27.9358C27.713 28.1659 27.7091 28.5364 27.9392 28.7626L29.78 30.6034L27.9392 32.4442C27.7091 32.6743 27.7091 33.0448 27.9392 33.271C28.0523 33.3841 28.2044 33.4426 28.3526 33.4426C28.5008 33.4426 28.6529 33.3841 28.766 33.271L30.6068 31.4302L32.4476 33.271C32.5607 33.3841 32.7128 33.4426 32.861 33.4426C33.0092 33.4426 33.1613 33.3841 33.2744 33.271C33.5045 33.0409 33.5045 32.6704 33.2744 32.4442L31.4336 30.6034L33.2744 28.7626C33.5045 28.5325 33.5045 28.162 33.2744 27.9358C33.0443 27.7096 32.6738 27.7057 32.4476 27.9358L30.6068 29.7766Z" fill="#B81935"/>
<path d="M2.83943 21.5475L5.42903 22.4133C5.75273 22.5225 5.98673 22.7721 6.07253 23.0997C6.15833 23.4273 6.08033 23.7588 5.85803 24.0123L4.04453 26.0559C3.41663 26.7657 3.31913 27.7524 3.79103 28.5675C4.26293 29.3865 5.16773 29.7921 6.09203 29.6049L8.77133 29.0589C9.10283 28.9926 9.43044 29.0901 9.66833 29.328C9.90623 29.5659 10.0037 29.8935 9.93743 30.225L9.39143 32.9043C9.20423 33.8286 9.60983 34.7334 10.4288 35.2053C11.2478 35.6772 12.2345 35.5797 12.9443 34.9518L14.9879 33.1383C15.2414 32.9121 15.5768 32.838 15.9005 32.9238C16.2281 33.0135 16.4777 33.2475 16.583 33.5673L17.4488 36.1569C17.7491 37.0539 18.5525 37.6311 19.4963 37.6311C20.4401 37.6311 21.2435 37.05 21.5438 36.1569L22.4096 33.5673C22.5188 33.2436 22.7684 33.0096 23.0921 32.9238C23.4197 32.838 23.7512 32.916 24.0047 33.1383L24.0593 33.189C25.1162 35.8527 27.7253 37.635 30.5996 37.635C34.4762 37.635 37.6274 34.4838 37.6274 30.6072C37.6274 27.7329 35.8451 25.1277 33.1814 24.0669L33.1307 24.0084C32.9084 23.7549 32.8265 23.4234 32.9162 23.0958C33.0059 22.7682 33.2399 22.5186 33.5597 22.4133L36.1493 21.5475C37.0463 21.2472 37.6235 20.4438 37.6235 19.5C37.6235 18.5562 37.0424 17.7528 36.1493 17.4525L33.5597 16.5867C33.236 16.4775 33.002 16.2279 32.9123 15.9003C32.8265 15.5727 32.9045 15.2412 33.1268 14.9877L34.9403 12.9441C35.5682 12.2343 35.6657 11.2476 35.1938 10.4325C34.7219 9.61349 33.8171 9.20789 32.8928 9.39509L30.2135 9.94109C29.882 10.0074 29.5544 9.90989 29.3165 9.67199C29.0786 9.43409 28.9811 9.10649 29.0474 8.77499L29.5934 6.09569C29.7806 5.17139 29.375 4.26659 28.556 3.79469C27.737 3.32279 26.7503 3.42029 26.0405 4.04819L23.9969 5.86169C23.7434 6.08789 23.4119 6.16589 23.0843 6.07619C22.7567 5.98649 22.5071 5.75249 22.4018 5.43269L21.536 2.84309C21.2474 1.94609 20.444 1.36499 19.5002 1.36499C18.5564 1.36499 17.753 1.94609 17.4527 2.83919L16.5869 5.42879C16.4777 5.75249 16.2281 5.98649 15.9044 6.07229C15.5768 6.15809 15.2453 6.08009 14.9918 5.85779L12.9482 4.04429C12.2384 3.42029 11.2517 3.31889 10.4366 3.79079C9.61763 4.26269 9.21203 5.16749 9.39923 6.09179L9.94523 8.77109C10.0115 9.10259 9.91403 9.43019 9.67613 9.66809C9.43823 9.90599 9.11063 10.0035 8.77913 9.93719L6.09983 9.39119C5.17553 9.20399 4.27073 9.60959 3.79883 10.4286C3.32693 11.2476 3.42443 12.2343 4.05233 12.9441L5.86583 14.9877C6.08813 15.2412 6.17003 15.5727 6.08033 15.9003C5.99063 16.2279 5.75663 16.4775 5.43683 16.5867L2.84723 17.4525C1.94633 17.7528 1.36523 18.5562 1.36523 19.5C1.36523 20.4438 1.94633 21.2472 2.83943 21.5475ZM28.0178 24.0669C27.9164 24.1059 27.8228 24.1566 27.7214 24.2034C27.6239 24.2463 27.5225 24.2892 27.4289 24.336C27.2924 24.4062 27.1598 24.4842 27.0311 24.5622C26.9453 24.6129 26.8556 24.6636 26.7698 24.7182C26.6294 24.8079 26.4968 24.9093 26.3642 25.0107C26.294 25.0653 26.2199 25.1121 26.1536 25.1667C25.9703 25.3188 25.7909 25.4787 25.6232 25.6503C25.6076 25.6659 25.592 25.6776 25.5803 25.6932C25.4087 25.8687 25.2449 26.0559 25.0928 26.247C25.0382 26.3133 24.9914 26.3874 24.9407 26.4576C24.8432 26.5941 24.7418 26.7267 24.6521 26.871C24.5975 26.9568 24.5546 27.0465 24.5039 27.1323C24.4259 27.2649 24.3518 27.4014 24.2816 27.5379C24.2348 27.6315 24.1958 27.7329 24.1529 27.8265C24.11 27.9279 24.0593 28.0254 24.0203 28.1307C22.6046 28.9068 21.0017 29.3124 19.3715 29.3124C14.0051 29.3124 9.64103 24.9483 9.64103 19.5819C9.64103 14.2155 14.0051 9.85139 19.3715 9.85139C24.7379 9.85139 29.102 14.2155 29.102 19.5819C29.1059 21.1536 28.7315 22.698 28.0178 24.0669ZM36.4652 30.6072C36.4652 33.8364 33.8366 36.465 30.6074 36.465C28.1816 36.465 25.9781 34.944 25.1201 32.6742C25.1162 32.6625 25.1123 32.6508 25.1084 32.6391C24.8666 31.9878 24.7457 31.3053 24.7457 30.6072C24.7457 29.9676 24.851 29.3319 25.0538 28.7274C25.5491 27.2571 26.6372 26.0286 28.0178 25.3461C28.2167 25.2486 28.4195 25.1628 28.6262 25.0887H28.6301C29.9015 24.6285 31.3523 24.6324 32.6393 25.1082C32.651 25.1121 32.6627 25.116 32.6705 25.1199C34.9442 25.9779 36.4652 28.1775 36.4652 30.6072ZM3.21383 18.5601L5.80343 17.6943C6.49373 17.4642 7.02023 16.9065 7.20743 16.2045C7.39463 15.5025 7.21913 14.7576 6.73943 14.2155L4.92593 12.1719C4.57883 11.778 4.63733 11.3178 4.80893 11.0175C4.98053 10.7172 5.35103 10.4403 5.86583 10.5417L8.54513 11.0877C9.25883 11.2359 9.99203 11.0136 10.5029 10.4988C11.0177 9.98399 11.2361 9.25469 11.0918 8.54099L10.5458 5.86169C10.4405 5.34689 10.7213 4.98029 11.0216 4.80479C11.3219 4.63319 11.7821 4.57079 12.176 4.92179L14.2196 6.73529C14.7656 7.21889 15.5066 7.39049 16.2086 7.20329C16.9106 7.01609 17.4683 6.48959 17.6984 5.79929L18.5642 3.20969C18.728 2.71439 19.157 2.53499 19.5002 2.53499C19.8434 2.53499 20.2724 2.71439 20.4401 3.21359L21.3059 5.80319C21.536 6.49349 22.0937 7.01999 22.7957 7.20719C23.4977 7.39439 24.2426 7.21889 24.7886 6.73919L26.8322 4.92569C27.2261 4.57469 27.6863 4.63709 27.9866 4.80869C28.283 4.98029 28.5677 5.34689 28.4624 5.86559L27.9164 8.54489C27.7721 9.25859 27.9905 9.99179 28.5053 10.5027C29.0201 11.0175 29.7494 11.2359 30.4631 11.0916L33.1424 10.5456C33.6611 10.4403 34.0238 10.7211 34.1993 11.0214C34.3709 11.3217 34.4333 11.778 34.0823 12.1758L32.2688 14.2194C31.7852 14.7654 31.6136 15.5064 31.8008 16.2084C31.988 16.9104 32.5145 17.4681 33.2048 17.6982L35.7944 18.564C36.2936 18.7317 36.473 19.1568 36.473 19.5039C36.473 19.851 36.2936 20.2761 35.7944 20.4438L33.2048 21.3096C32.5145 21.5397 31.988 22.0974 31.8008 22.7994C31.7228 23.088 31.7072 23.3844 31.7501 23.6691C31.3874 23.6106 31.0247 23.5833 30.6581 23.5833C30.6347 23.5833 30.6113 23.5833 30.5879 23.5833C30.2213 23.5833 29.8547 23.6106 29.4959 23.6691C30.0146 22.3821 30.2837 20.9937 30.2837 19.5936C30.2837 13.5837 25.3931 8.69309 19.3832 8.69309C13.3733 8.69309 8.48273 13.5837 8.48273 19.5936C8.48273 25.6035 13.3733 30.4941 19.3832 30.4941C20.8613 30.4941 22.316 30.1899 23.6576 29.6166C23.6108 29.9442 23.5835 30.2757 23.5835 30.6111C23.5835 30.81 23.5913 31.0089 23.6108 31.2039C23.6147 31.2663 23.6264 31.3326 23.6342 31.395C23.6459 31.512 23.6576 31.629 23.6771 31.746C23.3924 31.7031 23.096 31.7187 22.8074 31.7967C22.1054 31.9839 21.5477 32.5104 21.3176 33.2007L20.4518 35.7903C20.2841 36.2895 19.859 36.4689 19.5119 36.4689C19.1648 36.4689 18.7397 36.2895 18.572 35.7903L17.7062 33.2007C17.4761 32.5104 16.9184 31.9839 16.2164 31.7967C16.0292 31.746 15.842 31.7226 15.6548 31.7226C15.1361 31.7226 14.6252 31.9098 14.2235 32.2647L12.1799 34.0782C11.786 34.4253 11.3258 34.3668 11.0255 34.1952C10.7291 34.0236 10.4444 33.657 10.5497 33.1383L11.0957 30.459C11.24 29.7453 11.0216 29.0121 10.5068 28.5012C9.99203 27.9864 9.26273 27.768 8.54903 27.9123L5.86973 28.4583C5.35493 28.5636 4.98443 28.2828 4.81283 27.9825C4.64123 27.6822 4.57883 27.2259 4.92983 26.8281L6.74333 24.7845C7.22693 24.2385 7.40243 23.4975 7.21133 22.7955C7.02413 22.0935 6.49763 21.5358 5.80733 21.3057L3.21773 20.4399C2.71463 20.2722 2.53523 19.8432 2.53523 19.5C2.53523 19.1568 2.71463 18.7278 3.21383 18.5601Z" fill="#363636"/>
<path d="M24.5625 14.4028C24.3324 14.1727 23.9619 14.1727 23.7357 14.4028L14.3679 23.7706C14.1378 24.0007 14.1378 24.3712 14.3679 24.5974C14.481 24.7105 14.6331 24.769 14.7813 24.769C14.9295 24.769 15.0816 24.7105 15.1947 24.5974L24.5625 15.2296C24.7926 14.9995 24.7926 14.629 24.5625 14.4028Z" fill="#B81935"/>
<path d="M22.6358 20.2878C21.3215 20.2878 20.2529 21.3564 20.2529 22.6707C20.2529 23.985 21.3215 25.0536 22.6358 25.0536C23.9501 25.0536 25.0187 23.985 25.0187 22.6707C25.0187 21.3564 23.9501 20.2878 22.6358 20.2878ZM22.6358 23.8875C21.965 23.8875 21.4229 23.3415 21.4229 22.6746C21.4229 22.0077 21.9689 21.4617 22.6358 21.4617C23.3027 21.4617 23.8487 22.0077 23.8487 22.6746C23.8487 23.3415 23.3066 23.8875 22.6358 23.8875Z" fill="#B81935"/>
<path d="M16.3447 18.8175C17.6863 18.8175 18.7822 17.7255 18.7822 16.38C18.7822 15.0345 17.6902 13.9425 16.3447 13.9425C14.9992 13.9425 13.9072 15.0345 13.9072 16.38C13.9072 17.7255 14.9992 18.8175 16.3447 18.8175ZM16.3447 15.1125C17.0428 15.1125 17.6122 15.6819 17.6122 16.38C17.6122 17.0781 17.0428 17.6475 16.3447 17.6475C15.6466 17.6475 15.0772 17.0781 15.0772 16.38C15.0772 15.6819 15.6466 15.1125 16.3447 15.1125Z" fill="#B81935"/>
</svg>
