<svg width="176" height="176" viewBox="0 0 64 64" fill="none" xmlns="http://www.w3.org/2000/svg">
  <g transform="translate(3,18) scale(1)">
    <path d="M28.8349 9.168C26.9643 10.212 22.2878 11.508 17.58 12.246C14.2441 12.768 13.0906 13.074 8.85051 12.966C6.10694 12.894 3.14513 12.336 2.08512 11.724C1.24334 11.238 0.806862 10.266 1.64864 9.816C3.39455 8.88 7.66578 8.106 12.997 7.224C16.3641 6.684 19.7936 5.892 21.7266 5.676C22.9736 5.532 24.4701 5.46 25.6237 5.766C26.5278 5.712 28.3361 6.18 29.022 6.576C29.9885 7.134 30.1755 8.43 28.8349 9.168ZM27.2761 8.412C28.0555 7.962 27.5567 7.494 27.3384 7.368C26.9955 7.17 25.5925 6.9 24.5637 6.954C23.566 7.026 22.6307 7.134 21.2901 7.332C19.1077 7.728 16.52 8.25 15.7718 8.394C12.5294 8.97 5.45222 10.068 4.61045 10.518C4.36103 10.662 4.08044 10.932 4.36103 11.094C5.67046 11.814 9.81699 12.12 13.6518 11.634C15.1794 11.436 16.7694 11.238 18.6712 10.86C22.1942 10.158 26.216 9.024 27.2761 8.412ZM41.7441 16.6211C39.8735 17.6651 35.1969 18.9611 30.4892 19.6991C27.1533 20.2211 25.9998 20.5271 21.7597 20.4191C19.0161 20.3471 16.0543 19.7891 14.9943 19.1771C14.1525 18.6911 13.7161 17.7191 14.5578 17.2691C16.3037 16.3331 20.575 15.5591 25.9062 14.6771C29.2733 14.1371 32.7028 13.3451 34.6358 13.1291C35.8828 12.9851 37.3793 12.9131 38.5329 13.2191C39.437 13.1651 41.2453 13.6331 41.9312 14.0291C42.8976 14.5871 43.0847 15.8831 41.7441 16.6211ZM40.1853 15.8651C40.9647 15.4151 40.4658 14.9471 40.2476 14.8211C39.9047 14.6231 38.5017 14.3531 37.4729 14.4071C36.4752 14.4791 35.5399 14.5871 34.1993 14.7851C32.0169 15.1811 29.4292 15.7031 28.681 15.8471C25.4386 16.4231 18.3614 17.5211 17.5196 17.9711C17.2702 18.1151 16.9896 18.3851 17.2702 18.5471C18.5797 19.2671 22.7262 19.5731 26.5609 19.0871C28.0886 18.8891 29.6786 18.6911 31.5804 18.3131C35.1034 17.6111 39.1252 16.4771 40.1853 15.8651ZM54.6533 24.0742C52.7827 25.1182 48.1061 26.4142 43.3984 27.1523C40.0625 27.6743 38.9089 27.9803 34.6689 27.8723C31.9253 27.8002 28.9635 27.2423 27.9035 26.6303C27.0617 26.1443 26.6252 25.1722 27.467 24.7222C29.2129 23.7862 33.4842 23.0122 38.8154 22.1302C42.1825 21.5902 45.612 20.7982 47.545 20.5822C48.792 20.4383 50.2885 20.3663 51.4421 20.6722C52.3462 20.6182 54.1545 21.0863 54.8404 21.4823C55.8068 22.0403 55.9939 23.3363 54.6533 24.0742ZM53.0944 23.3182C53.8739 22.8682 53.375 22.4002 53.1568 22.2742C52.8139 22.0762 51.4109 21.8062 50.3821 21.8603C49.3844 21.9322 48.4491 22.0402 47.1085 22.2383C44.9261 22.6343 42.3384 23.1562 41.5902 23.3002C38.3478 23.8762 31.2706 24.9742 30.4288 25.4243C30.1794 25.5683 29.8988 25.8383 30.1794 26.0003C31.4888 26.7203 35.6354 27.0262 39.4701 26.5403C40.9978 26.3423 42.5878 26.1442 44.4896 25.7663C48.0126 25.0643 52.0344 23.9302 53.0944 23.3182Z" fill="#C5C5C5"/>
  </g>

  <g transform="translate(30,6) scale(1.05) rotate(-10 20 20)">
    <path d="M23.7258 0.000390015C24.1408 -0.00415731 24.5553 0.0304081 24.9573 0.138407C25.9071 0.387828 26.7158 1.02172 27.1968 1.89322C27.6806 2.7663 27.7992 3.8015 27.5256 4.76463C27.3448 5.42331 27.0723 5.86167 26.64 6.37916C25.3443 7.92934 23.8068 9.34447 22.3911 10.7873L15.773 17.5933L11.6274 21.8517C10.8974 22.6072 10.2227 23.4414 9.4095 24.1071C7.84427 25.389 5.71471 26.2207 3.96441 27.2298C3.37533 27.5927 2.63843 28.0669 1.92359 27.9921C1.38067 27.9353 1.07141 27.6006 0.741636 27.1993C0.722015 27.1065 0.705519 27.0131 0.692141 26.9192C0.641527 26.5545 0.680768 26.2323 0.775529 25.8804C1.20296 24.2911 3.41056 19.9716 4.38493 18.6462C5.45317 17.1932 6.85564 16.0093 8.10894 14.7299L14.8646 7.81929C16.1877 6.47078 17.5242 5.13341 18.8297 3.76717C19.7099 2.84611 20.5209 1.83979 21.5064 1.03127C22.1766 0.481503 22.8727 0.127942 23.7258 0.000390015Z" fill="#B81935"/>
  </g>
</svg>
