<svg width="300" height="300" viewBox="0 0 300 300" fill="none" xmlns="http://www.w3.org/2000/svg">
<g clip-path="url(#clip0_51_1012)">
<mask id="mask0_51_1012" style="mask-type:luminance" maskUnits="userSpaceOnUse" x="-5" y="-5" width="310" height="310">
<path d="M-5 -4.99997H305V305H-5V-4.99997Z" fill="white"/>
</mask>
<g mask="url(#mask0_51_1012)">
<path d="M295.918 210.764C295.918 237.611 230.588 259.377 150 259.377C69.4121 259.377 4.08203 237.611 4.08203 210.764C4.08203 194.677 27.55 180.406 63.7025 171.566C66.5119 175.92 69.7875 180.091 73.608 183.912C101.411 211.715 147.723 210.728 149.897 210.667C149.964 210.734 150 210.764 150 210.764C150 210.764 150.036 210.728 150.103 210.661H150.109C150.751 210.686 198.189 212.193 226.471 183.912C230.285 180.097 233.561 175.932 236.364 171.578C272.48 180.424 295.918 194.683 295.918 210.764Z" stroke="currentColor" stroke-width="9" stroke-miterlimit="10" stroke-linecap="round" stroke-linejoin="round"/>
<path d="M176.853 134.287C148.377 162.763 150.103 210.661 150.103 210.661C150.036 210.728 150 210.764 150 210.764C150 210.764 149.964 210.734 149.897 210.667C149.952 210.661 149.976 210.661 149.976 210.661C149.976 210.661 151.701 162.763 123.226 134.287C118.891 129.952 114.102 126.313 109.101 123.268C110.469 77.4097 150 40.6214 150 40.6214C150 40.6214 189.561 77.4339 190.893 123.322C185.922 126.356 181.163 129.976 176.853 134.287Z" stroke="currentColor" stroke-width="9" stroke-miterlimit="10" stroke-linecap="round" stroke-linejoin="round"/>
<path d="M149.976 210.662C149.976 210.662 149.952 210.662 149.897 210.668C147.723 210.728 101.411 211.715 73.608 183.912C69.7875 180.092 66.5119 175.92 63.7025 171.567C45.5627 143.443 46.8584 107.538 46.8584 107.538C46.8584 107.538 81.2732 106.297 109.101 123.268C114.102 126.314 118.891 129.953 123.226 134.288C151.701 162.763 149.976 210.662 149.976 210.662Z" stroke="currentColor" stroke-width="9" stroke-miterlimit="10" stroke-linecap="round" stroke-linejoin="round"/>
<path d="M236.364 171.579C233.561 175.932 230.285 180.098 226.471 183.912C198.189 212.193 150.751 210.686 150.109 210.662H150.103C150.103 210.662 148.377 162.763 176.853 134.288C181.164 129.977 185.922 126.356 190.893 123.323C218.733 106.297 253.22 107.538 253.22 107.538C253.22 107.538 254.516 143.455 236.364 171.579Z" stroke="currentColor" stroke-width="9" stroke-miterlimit="10" stroke-linecap="round" stroke-linejoin="round"/>
</g>
</g>
<defs>
<clipPath id="clip0_51_1012">
<rect width="300" height="300" fill="white"/>
</clipPath>
</defs>
</svg>
