<svg width="27" height="27" viewBox="0 0 27 27" fill="none"
    xmlns="http://www.w3.org/2000/svg">
    <path d="M13.4998 27C11.3795 26.73 9.48483 26.19 7.81568 25.38C6.14653 24.57 4.73136 23.5125 3.57018 22.2075C2.40899 20.9025 1.52344 19.3896 0.913522 17.6688C0.303607 15.948 -0.000900243 14.0409 1.99906e-06 11.9475C2.48117 12.195 4.57888 12.645 6.29314 13.2975C8.0074 13.95 9.40047 14.8725 10.4723 16.065C11.5442 17.2575 12.3165 18.7484 12.7893 20.5375C13.2621 22.3267 13.4989 24.4809 13.4998 27ZM13.4998 15.6263C12.981 14.8387 12.2764 14.0625 11.3859 13.2975C10.4953 12.5325 9.46317 11.835 8.28935 11.205C8.42469 10.26 8.65025 9.28125 8.96604 8.26875C9.28182 7.25625 9.66527 6.26085 10.1164 5.28255C10.5675 4.30425 11.0809 3.36465 11.6565 2.46375C12.2322 1.56285 12.8466 0.7416 13.4998 0C14.1539 0.7425 14.7688 1.56375 15.3444 2.46375C15.9201 3.36375 16.433 4.30335 16.8832 5.28255C17.3334 6.26175 17.7169 7.25715 18.0336 8.26875C18.3503 9.28035 18.5758 10.2591 18.7103 11.205C17.5373 11.8125 16.5056 12.4987 15.6151 13.2638C14.7246 14.0288 14.0195 14.8162 13.4998 15.6263ZM16.2065 26.46C16.1614 24.885 16.0432 23.4279 15.852 22.0887C15.6607 20.7495 15.3616 19.4841 14.9547 18.2925C16.0148 16.47 17.4755 14.985 19.3369 13.8375C21.1982 12.69 23.7524 12.06 26.9996 11.9475C27.0222 15.5025 26.0689 18.5683 24.14 21.1451C22.211 23.7218 19.5665 25.4934 16.2065 26.46Z" fill="currentColor"/>
</svg>
