<svg width="300" height="300" viewBox="0 0 300 300" fill="none"
    xmlns="http://www.w3.org/2000/svg">
    <mask id="path-1-outside-1_57_1684" maskUnits="userSpaceOnUse" x="75.875" y="48.9688" width="149" height="215" fill="currentColor">
        <rect fill="white" x="75.875" y="48.9688" width="149" height="215"/>
        <path d="M150 152.344C133.872 152.344 120.75 165.466 120.75 181.594C120.75 197.722 133.872 210.844 150 210.844C166.128 210.844 179.25 197.722 179.25 181.594C179.25 165.466 166.128 152.344 150 152.344ZM150 203.531C137.903 203.531 128.062 193.691 128.062 181.594C128.062 169.497 137.903 159.656 150 159.656C162.097 159.656 171.937 169.497 171.937 181.594C171.937 193.691 162.097 203.531 150 203.531ZM146.344 141.375V130.588C146.344 128.569 147.979 126.932 150 126.932C152.021 126.932 153.656 128.569 153.656 130.588V141.375C153.656 143.394 152.021 145.031 150 145.031C147.979 145.031 146.344 143.394 146.344 141.375ZM121.332 139.251C120.322 137.501 120.921 135.266 122.671 134.255C124.413 133.245 126.656 133.843 127.666 135.594L133.058 144.935C134.068 146.684 133.468 148.92 131.719 149.93C131.144 150.262 130.515 150.419 129.894 150.419C128.63 150.419 127.402 149.764 126.724 148.591L121.332 139.251ZM118.336 163.312C117.658 164.485 116.43 165.141 115.166 165.141C114.544 165.141 113.916 164.984 113.341 164.651L104 159.258C102.251 158.248 101.651 156.011 102.662 154.263C103.672 152.513 105.911 151.913 107.657 152.924L116.997 158.317C118.747 159.328 119.347 161.565 118.336 163.312ZM109.781 185.25H98.9946C96.9737 185.25 95.3383 183.613 95.3383 181.594C95.3383 179.575 96.9737 177.937 98.9946 177.937H109.781C111.802 177.937 113.437 179.575 113.437 181.594C113.437 183.613 111.802 185.25 109.781 185.25ZM118.336 199.875C119.347 201.623 118.747 203.86 116.997 204.87L107.657 210.264C107.082 210.596 106.453 210.753 105.832 210.753C104.568 210.753 103.34 210.098 102.662 208.925C101.651 207.177 102.251 204.94 104 203.929L113.341 198.536C115.084 197.527 117.326 198.125 118.336 199.875ZM133.058 218.253L127.666 227.593C126.988 228.766 125.76 229.421 124.495 229.421C123.874 229.421 123.246 229.264 122.671 228.932C120.921 227.922 120.322 225.687 121.332 223.937L126.724 214.596C127.738 212.847 129.969 212.247 131.719 213.257C133.468 214.268 134.068 216.503 133.058 218.253ZM153.656 221.812V232.599C153.656 234.618 152.021 236.255 150 236.255C147.979 236.255 146.344 234.618 146.344 232.599V221.812C146.344 219.793 147.979 218.156 150 218.156C152.021 218.156 153.656 219.793 153.656 221.812ZM178.668 223.937C179.678 225.687 179.079 227.922 177.329 228.932C176.754 229.264 176.126 229.421 175.504 229.421C174.241 229.421 173.012 228.766 172.334 227.593L166.942 218.253C165.932 216.503 166.532 214.268 168.281 213.257C170.02 212.247 172.262 212.847 173.276 214.596L178.668 223.937ZM197.338 208.925C196.66 210.097 195.432 210.753 194.168 210.753C193.547 210.753 192.918 210.596 192.343 210.264L183.003 204.87C181.253 203.86 180.653 201.623 181.664 199.875C182.674 198.125 184.913 197.527 186.659 198.536L195.999 203.929C197.749 204.94 198.349 207.177 197.338 208.925ZM204.662 181.594C204.662 183.613 203.026 185.25 201.005 185.25H190.219C188.198 185.25 186.562 183.613 186.562 181.594C186.562 179.575 188.198 177.937 190.219 177.937H201.005C203.026 177.937 204.662 179.575 204.662 181.594ZM181.664 163.312C180.653 161.565 181.253 159.328 183.003 158.317L192.343 152.924C194.086 151.913 196.324 152.513 197.338 154.263C198.349 156.011 197.749 158.248 195.999 159.258L186.659 164.651C186.084 164.983 185.456 165.141 184.834 165.141C183.57 165.141 182.342 164.485 181.664 163.312ZM166.942 144.935L172.334 135.594C173.344 133.843 175.579 133.245 177.329 134.255C179.079 135.266 179.678 137.501 178.668 139.25L173.276 148.591C172.598 149.764 171.37 150.419 170.106 150.419C169.485 150.419 168.856 150.262 168.281 149.93C166.532 148.92 165.932 146.684 166.942 144.935ZM212.156 90.1875H190.16C190.175 89.9931 190.219 89.8072 190.219 89.609V60.9375C190.219 54.889 185.299 49.9688 179.25 49.9688H120.75C114.701 49.9688 109.781 54.889 109.781 60.9375V89.6091C109.781 89.8072 109.825 89.9931 109.84 90.1875H87.8437C81.7952 90.1875 76.875 95.1077 76.875 101.156V251.062C76.875 257.111 81.7952 262.031 87.8437 262.031H212.156C218.205 262.031 223.125 257.111 223.125 251.062V101.156C223.125 95.1077 218.205 90.1875 212.156 90.1875ZM117.094 89.609V60.9375C117.094 58.9219 118.733 57.2812 120.75 57.2812H179.25C181.267 57.2812 182.906 58.9219 182.906 60.9375V89.6091C182.906 89.9286 182.646 90.1875 182.328 90.1875H117.672C117.354 90.1875 117.094 89.9286 117.094 89.609ZM215.812 251.062C215.812 253.078 214.174 254.719 212.156 254.719H87.8437C85.8264 254.719 84.1875 253.078 84.1875 251.062V101.156C84.1875 99.1407 85.8264 97.5 87.8437 97.5H212.156C214.174 97.5 215.812 99.1407 215.812 101.156V251.062ZM150 166.969C141.934 166.969 135.375 173.53 135.375 181.594C135.375 189.658 141.934 196.219 150 196.219C158.066 196.219 164.625 189.658 164.625 181.594C164.625 173.53 158.066 166.969 150 166.969ZM150 188.906C145.969 188.906 142.687 185.627 142.687 181.594C142.687 177.561 145.969 174.281 150 174.281C154.031 174.281 157.312 177.561 157.312 181.594C157.312 185.627 154.031 188.906 150 188.906ZM164.625 79.2187C164.625 81.2379 162.99 82.875 160.969 82.875H139.031C137.01 82.875 135.375 81.2379 135.375 79.2187C135.375 77.1995 137.01 75.5625 139.031 75.5625H160.969C162.99 75.5625 164.625 77.1995 164.625 79.2187Z"/>
    </mask>
    <path d="M150 152.344C133.872 152.344 120.75 165.466 120.75 181.594C120.75 197.722 133.872 210.844 150 210.844C166.128 210.844 179.25 197.722 179.25 181.594C179.25 165.466 166.128 152.344 150 152.344ZM150 203.531C137.903 203.531 128.062 193.691 128.062 181.594C128.062 169.497 137.903 159.656 150 159.656C162.097 159.656 171.937 169.497 171.937 181.594C171.937 193.691 162.097 203.531 150 203.531ZM146.344 141.375V130.588C146.344 128.569 147.979 126.932 150 126.932C152.021 126.932 153.656 128.569 153.656 130.588V141.375C153.656 143.394 152.021 145.031 150 145.031C147.979 145.031 146.344 143.394 146.344 141.375ZM121.332 139.251C120.322 137.501 120.921 135.266 122.671 134.255C124.413 133.245 126.656 133.843 127.666 135.594L133.058 144.935C134.068 146.684 133.468 148.92 131.719 149.93C131.144 150.262 130.515 150.419 129.894 150.419C128.63 150.419 127.402 149.764 126.724 148.591L121.332 139.251ZM118.336 163.312C117.658 164.485 116.43 165.141 115.166 165.141C114.544 165.141 113.916 164.984 113.341 164.651L104 159.258C102.251 158.248 101.651 156.011 102.662 154.263C103.672 152.513 105.911 151.913 107.657 152.924L116.997 158.317C118.747 159.328 119.347 161.565 118.336 163.312ZM109.781 185.25H98.9946C96.9737 185.25 95.3383 183.613 95.3383 181.594C95.3383 179.575 96.9737 177.937 98.9946 177.937H109.781C111.802 177.937 113.437 179.575 113.437 181.594C113.437 183.613 111.802 185.25 109.781 185.25ZM118.336 199.875C119.347 201.623 118.747 203.86 116.997 204.87L107.657 210.264C107.082 210.596 106.453 210.753 105.832 210.753C104.568 210.753 103.34 210.098 102.662 208.925C101.651 207.177 102.251 204.94 104 203.929L113.341 198.536C115.084 197.527 117.326 198.125 118.336 199.875ZM133.058 218.253L127.666 227.593C126.988 228.766 125.76 229.421 124.495 229.421C123.874 229.421 123.246 229.264 122.671 228.932C120.921 227.922 120.322 225.687 121.332 223.937L126.724 214.596C127.738 212.847 129.969 212.247 131.719 213.257C133.468 214.268 134.068 216.503 133.058 218.253ZM153.656 221.812V232.599C153.656 234.618 152.021 236.255 150 236.255C147.979 236.255 146.344 234.618 146.344 232.599V221.812C146.344 219.793 147.979 218.156 150 218.156C152.021 218.156 153.656 219.793 153.656 221.812ZM178.668 223.937C179.678 225.687 179.079 227.922 177.329 228.932C176.754 229.264 176.126 229.421 175.504 229.421C174.241 229.421 173.012 228.766 172.334 227.593L166.942 218.253C165.932 216.503 166.532 214.268 168.281 213.257C170.02 212.247 172.262 212.847 173.276 214.596L178.668 223.937ZM197.338 208.925C196.66 210.097 195.432 210.753 194.168 210.753C193.547 210.753 192.918 210.596 192.343 210.264L183.003 204.87C181.253 203.86 180.653 201.623 181.664 199.875C182.674 198.125 184.913 197.527 186.659 198.536L195.999 203.929C197.749 204.94 198.349 207.177 197.338 208.925ZM204.662 181.594C204.662 183.613 203.026 185.25 201.005 185.25H190.219C188.198 185.25 186.562 183.613 186.562 181.594C186.562 179.575 188.198 177.937 190.219 177.937H201.005C203.026 177.937 204.662 179.575 204.662 181.594ZM181.664 163.312C180.653 161.565 181.253 159.328 183.003 158.317L192.343 152.924C194.086 151.913 196.324 152.513 197.338 154.263C198.349 156.011 197.749 158.248 195.999 159.258L186.659 164.651C186.084 164.983 185.456 165.141 184.834 165.141C183.57 165.141 182.342 164.485 181.664 163.312ZM166.942 144.935L172.334 135.594C173.344 133.843 175.579 133.245 177.329 134.255C179.079 135.266 179.678 137.501 178.668 139.25L173.276 148.591C172.598 149.764 171.37 150.419 170.106 150.419C169.485 150.419 168.856 150.262 168.281 149.93C166.532 148.92 165.932 146.684 166.942 144.935ZM212.156 90.1875H190.16C190.175 89.9931 190.219 89.8072 190.219 89.609V60.9375C190.219 54.889 185.299 49.9688 179.25 49.9688H120.75C114.701 49.9688 109.781 54.889 109.781 60.9375V89.6091C109.781 89.8072 109.825 89.9931 109.84 90.1875H87.8437C81.7952 90.1875 76.875 95.1077 76.875 101.156V251.062C76.875 257.111 81.7952 262.031 87.8437 262.031H212.156C218.205 262.031 223.125 257.111 223.125 251.062V101.156C223.125 95.1077 218.205 90.1875 212.156 90.1875ZM117.094 89.609V60.9375C117.094 58.9219 118.733 57.2812 120.75 57.2812H179.25C181.267 57.2812 182.906 58.9219 182.906 60.9375V89.6091C182.906 89.9286 182.646 90.1875 182.328 90.1875H117.672C117.354 90.1875 117.094 89.9286 117.094 89.609ZM215.812 251.062C215.812 253.078 214.174 254.719 212.156 254.719H87.8437C85.8264 254.719 84.1875 253.078 84.1875 251.062V101.156C84.1875 99.1407 85.8264 97.5 87.8437 97.5H212.156C214.174 97.5 215.812 99.1407 215.812 101.156V251.062ZM150 166.969C141.934 166.969 135.375 173.53 135.375 181.594C135.375 189.658 141.934 196.219 150 196.219C158.066 196.219 164.625 189.658 164.625 181.594C164.625 173.53 158.066 166.969 150 166.969ZM150 188.906C145.969 188.906 142.687 185.627 142.687 181.594C142.687 177.561 145.969 174.281 150 174.281C154.031 174.281 157.312 177.561 157.312 181.594C157.312 185.627 154.031 188.906 150 188.906ZM164.625 79.2187C164.625 81.2379 162.99 82.875 160.969 82.875H139.031C137.01 82.875 135.375 81.2379 135.375 79.2187C135.375 77.1995 137.01 75.5625 139.031 75.5625H160.969C162.99 75.5625 164.625 77.1995 164.625 79.2187Z" fill="currentColor"/>
    <path d="M150 152.344C133.872 152.344 120.75 165.466 120.75 181.594C120.75 197.722 133.872 210.844 150 210.844C166.128 210.844 179.25 197.722 179.25 181.594C179.25 165.466 166.128 152.344 150 152.344ZM150 203.531C137.903 203.531 128.062 193.691 128.062 181.594C128.062 169.497 137.903 159.656 150 159.656C162.097 159.656 171.937 169.497 171.937 181.594C171.937 193.691 162.097 203.531 150 203.531ZM146.344 141.375V130.588C146.344 128.569 147.979 126.932 150 126.932C152.021 126.932 153.656 128.569 153.656 130.588V141.375C153.656 143.394 152.021 145.031 150 145.031C147.979 145.031 146.344 143.394 146.344 141.375ZM121.332 139.251C120.322 137.501 120.921 135.266 122.671 134.255C124.413 133.245 126.656 133.843 127.666 135.594L133.058 144.935C134.068 146.684 133.468 148.92 131.719 149.93C131.144 150.262 130.515 150.419 129.894 150.419C128.63 150.419 127.402 149.764 126.724 148.591L121.332 139.251ZM118.336 163.312C117.658 164.485 116.43 165.141 115.166 165.141C114.544 165.141 113.916 164.984 113.341 164.651L104 159.258C102.251 158.248 101.651 156.011 102.662 154.263C103.672 152.513 105.911 151.913 107.657 152.924L116.997 158.317C118.747 159.328 119.347 161.565 118.336 163.312ZM109.781 185.25H98.9946C96.9737 185.25 95.3383 183.613 95.3383 181.594C95.3383 179.575 96.9737 177.937 98.9946 177.937H109.781C111.802 177.937 113.437 179.575 113.437 181.594C113.437 183.613 111.802 185.25 109.781 185.25ZM118.336 199.875C119.347 201.623 118.747 203.86 116.997 204.87L107.657 210.264C107.082 210.596 106.453 210.753 105.832 210.753C104.568 210.753 103.34 210.098 102.662 208.925C101.651 207.177 102.251 204.94 104 203.929L113.341 198.536C115.084 197.527 117.326 198.125 118.336 199.875ZM133.058 218.253L127.666 227.593C126.988 228.766 125.76 229.421 124.495 229.421C123.874 229.421 123.246 229.264 122.671 228.932C120.921 227.922 120.322 225.687 121.332 223.937L126.724 214.596C127.738 212.847 129.969 212.247 131.719 213.257C133.468 214.268 134.068 216.503 133.058 218.253ZM153.656 221.812V232.599C153.656 234.618 152.021 236.255 150 236.255C147.979 236.255 146.344 234.618 146.344 232.599V221.812C146.344 219.793 147.979 218.156 150 218.156C152.021 218.156 153.656 219.793 153.656 221.812ZM178.668 223.937C179.678 225.687 179.079 227.922 177.329 228.932C176.754 229.264 176.126 229.421 175.504 229.421C174.241 229.421 173.012 228.766 172.334 227.593L166.942 218.253C165.932 216.503 166.532 214.268 168.281 213.257C170.02 212.247 172.262 212.847 173.276 214.596L178.668 223.937ZM197.338 208.925C196.66 210.097 195.432 210.753 194.168 210.753C193.547 210.753 192.918 210.596 192.343 210.264L183.003 204.87C181.253 203.86 180.653 201.623 181.664 199.875C182.674 198.125 184.913 197.527 186.659 198.536L195.999 203.929C197.749 204.94 198.349 207.177 197.338 208.925ZM204.662 181.594C204.662 183.613 203.026 185.25 201.005 185.25H190.219C188.198 185.25 186.562 183.613 186.562 181.594C186.562 179.575 188.198 177.937 190.219 177.937H201.005C203.026 177.937 204.662 179.575 204.662 181.594ZM181.664 163.312C180.653 161.565 181.253 159.328 183.003 158.317L192.343 152.924C194.086 151.913 196.324 152.513 197.338 154.263C198.349 156.011 197.749 158.248 195.999 159.258L186.659 164.651C186.084 164.983 185.456 165.141 184.834 165.141C183.57 165.141 182.342 164.485 181.664 163.312ZM166.942 144.935L172.334 135.594C173.344 133.843 175.579 133.245 177.329 134.255C179.079 135.266 179.678 137.501 178.668 139.25L173.276 148.591C172.598 149.764 171.37 150.419 170.106 150.419C169.485 150.419 168.856 150.262 168.281 149.93C166.532 148.92 165.932 146.684 166.942 144.935ZM212.156 90.1875H190.16C190.175 89.9931 190.219 89.8072 190.219 89.609V60.9375C190.219 54.889 185.299 49.9688 179.25 49.9688H120.75C114.701 49.9688 109.781 54.889 109.781 60.9375V89.6091C109.781 89.8072 109.825 89.9931 109.84 90.1875H87.8437C81.7952 90.1875 76.875 95.1077 76.875 101.156V251.062C76.875 257.111 81.7952 262.031 87.8437 262.031H212.156C218.205 262.031 223.125 257.111 223.125 251.062V101.156C223.125 95.1077 218.205 90.1875 212.156 90.1875ZM117.094 89.609V60.9375C117.094 58.9219 118.733 57.2812 120.75 57.2812H179.25C181.267 57.2812 182.906 58.9219 182.906 60.9375V89.6091C182.906 89.9286 182.646 90.1875 182.328 90.1875H117.672C117.354 90.1875 117.094 89.9286 117.094 89.609ZM215.812 251.062C215.812 253.078 214.174 254.719 212.156 254.719H87.8437C85.8264 254.719 84.1875 253.078 84.1875 251.062V101.156C84.1875 99.1407 85.8264 97.5 87.8437 97.5H212.156C214.174 97.5 215.812 99.1407 215.812 101.156V251.062ZM150 166.969C141.934 166.969 135.375 173.53 135.375 181.594C135.375 189.658 141.934 196.219 150 196.219C158.066 196.219 164.625 189.658 164.625 181.594C164.625 173.53 158.066 166.969 150 166.969ZM150 188.906C145.969 188.906 142.687 185.627 142.687 181.594C142.687 177.561 145.969 174.281 150 174.281C154.031 174.281 157.312 177.561 157.312 181.594C157.312 185.627 154.031 188.906 150 188.906ZM164.625 79.2187C164.625 81.2379 162.99 82.875 160.969 82.875H139.031C137.01 82.875 135.375 81.2379 135.375 79.2187C135.375 77.1995 137.01 75.5625 139.031 75.5625H160.969C162.99 75.5625 164.625 77.1995 164.625 79.2187Z" stroke="currentColor" stroke-width="2" mask="url(#path-1-outside-1_57_1684)"/>
</svg>
