<svg width="300" height="300" viewBox="0 0 300 300" fill="none"
    xmlns="http://www.w3.org/2000/svg">
    <path fill-rule="evenodd" clip-rule="evenodd" d="M44.1875 206.543C44.1875 204.011 46.2412 201.957 48.7745 201.957H250.601C253.133 201.957 255.188 204.011 255.188 206.543V234.065C255.188 236.598 253.133 238.652 250.601 238.652H48.7745C46.2412 238.652 44.1875 236.598 44.1875 234.065V206.543ZM53.3614 211.13V229.478H246.014V211.13H53.3614Z" fill="currentColor"/>
    <path fill-rule="evenodd" clip-rule="evenodd" d="M90.0566 234.065C90.0566 231.532 92.1103 229.478 94.6436 229.478H204.731C207.263 229.478 209.318 231.532 209.318 234.065V252.413C209.318 254.946 207.263 257 204.731 257H94.6436C92.1103 257 90.0566 254.946 90.0566 252.413V234.065ZM99.2306 238.652V247.826H200.144V238.652H99.2306Z" fill="currentColor"/>
    <path fill-rule="evenodd" clip-rule="evenodd" d="M103.818 137.739C81.139 137.739 62.5352 156.686 62.5352 180.333C62.5352 186.264 63.7044 190.234 65.4323 192.972C67.1299 195.663 69.6259 197.576 73.0758 198.946C80.38 201.845 90.8281 201.956 103.818 201.956C116.808 201.956 127.256 201.845 134.56 198.946C138.01 197.576 140.506 195.663 142.203 192.972C143.932 190.234 145.1 186.264 145.1 180.333C145.1 156.686 126.497 137.739 103.818 137.739ZM53.3613 180.333C53.3613 151.865 75.8305 128.565 103.818 128.565C131.806 128.565 154.274 151.865 154.274 180.333C154.274 187.43 152.876 193.25 149.962 197.869C147.018 202.535 142.796 205.546 137.945 207.473C128.73 211.131 116.383 211.13 104.147 211.13H103.489C91.2529 211.13 78.9053 211.131 69.6905 207.473C64.8396 205.546 60.6182 202.535 57.6736 197.869C54.7592 193.25 53.3613 187.43 53.3613 180.333Z" fill="currentColor"/>
    <path fill-rule="evenodd" clip-rule="evenodd" d="M103.818 165.261C96.059 165.261 90.0567 171.284 90.0567 178.367C90.0567 180.177 90.4344 181.044 90.717 181.464C90.9829 181.858 91.4423 182.274 92.4439 182.646C94.8169 183.53 98.4435 183.609 103.818 183.609C109.192 183.609 112.818 183.53 115.191 182.646C116.193 182.274 116.652 181.858 116.918 181.464C117.201 181.044 117.578 180.177 117.578 178.367C117.578 171.284 111.576 165.261 103.818 165.261ZM80.8828 178.367C80.8828 165.906 91.3097 156.087 103.818 156.087C116.325 156.087 126.752 165.906 126.752 178.367C126.752 181.442 126.103 184.246 124.529 186.586C122.938 188.95 120.71 190.381 118.392 191.244C114.25 192.785 108.903 192.784 104.24 192.783C104.099 192.783 103.958 192.783 103.818 192.783C103.677 192.783 103.536 192.783 103.395 192.783C98.7327 192.784 93.3854 192.785 89.2436 191.244C86.9248 190.381 84.6972 188.95 83.1063 186.586C81.532 184.246 80.8828 181.442 80.8828 178.367Z" fill="currentColor"/>
    <path fill-rule="evenodd" clip-rule="evenodd" d="M195.557 165.261C187.798 165.261 181.796 171.284 181.796 178.367C181.796 180.177 182.174 181.044 182.457 181.464C182.723 181.858 183.181 182.274 184.183 182.646C186.556 183.53 190.183 183.609 195.557 183.609C200.931 183.609 204.557 183.53 206.931 182.646C207.932 182.274 208.391 181.858 208.657 181.464C208.94 181.044 209.318 180.177 209.318 178.367C209.318 171.284 203.315 165.261 195.557 165.261ZM172.622 178.367C172.622 165.906 183.049 156.087 195.557 156.087C208.065 156.087 218.492 165.906 218.492 178.367C218.492 181.442 217.842 184.246 216.268 186.586C214.677 188.95 212.45 190.381 210.131 191.244C205.989 192.785 200.642 192.784 195.98 192.783C195.838 192.783 195.697 192.783 195.557 192.783C195.416 192.783 195.276 192.783 195.134 192.783C190.472 192.784 185.124 192.785 180.983 191.244C178.664 190.381 176.437 188.95 174.846 186.586C173.272 184.246 172.622 181.442 172.622 178.367Z" fill="currentColor"/>
    <path fill-rule="evenodd" clip-rule="evenodd" d="M195.557 137.739C172.878 137.739 154.274 156.686 154.274 180.333C154.274 186.264 155.443 190.234 157.172 192.972C158.869 195.663 161.365 197.576 164.815 198.946C172.12 201.845 182.568 201.956 195.557 201.956C208.546 201.956 218.995 201.845 226.299 198.946C229.749 197.576 232.245 195.663 233.943 192.972C235.671 190.234 236.84 186.264 236.84 180.333C236.84 156.686 218.236 137.739 195.557 137.739ZM145.101 180.333C145.101 151.865 167.569 128.565 195.557 128.565C223.545 128.565 246.014 151.865 246.014 180.333C246.014 187.43 244.616 193.25 241.701 197.869C238.757 202.535 234.535 205.546 229.684 207.473C220.47 211.131 208.122 211.13 195.886 211.13H195.228C182.993 211.13 170.644 211.131 161.43 207.473C156.579 205.546 152.357 202.535 149.413 197.869C146.499 193.25 145.101 187.43 145.101 180.333Z" fill="currentColor"/>
    <path fill-rule="evenodd" clip-rule="evenodd" d="M254.161 47.6945C255.758 49.6606 255.459 52.5495 253.493 54.147L106.71 173.408C104.744 175.005 101.855 174.706 100.258 172.74C98.6601 170.774 98.9589 167.885 100.925 166.288L247.708 47.0271C249.674 45.4296 252.562 45.7284 254.161 47.6945Z" fill="currentColor"/>
    <path fill-rule="evenodd" clip-rule="evenodd" d="M188.974 46.8017C191.065 48.2322 191.6 51.0868 190.17 53.1775L130.539 140.33C129.109 142.421 126.254 142.955 124.163 141.525C122.072 140.095 121.537 137.24 122.968 135.149L182.598 47.9972C184.028 45.9065 186.883 45.3712 188.974 46.8017Z" fill="currentColor"/>
</svg>
