<svg width="18" height="22" viewBox="0 0 18 22" fill="none"
    xmlns="http://www.w3.org/2000/svg">
    <path d="M9.372 20.8644L9.36 20.8664L9.289 20.9014L9.269 20.9054L9.255 20.9014L9.184 20.8654C9.17334 20.8627 9.16534 20.8647 9.16 20.8714L9.156 20.8814L9.139 21.3094L9.144 21.3294L9.154 21.3424L9.258 21.4164L9.273 21.4204L9.285 21.4164L9.389 21.3424L9.401 21.3264L9.405 21.3094L9.388 20.8824C9.38534 20.8717 9.38 20.8657 9.372 20.8644ZM9.636 20.7514L9.622 20.7534L9.438 20.8464L9.428 20.8564L9.425 20.8674L9.443 21.2974L9.448 21.3094L9.456 21.3174L9.657 21.4094C9.66967 21.4127 9.67934 21.4101 9.686 21.4014L9.69 21.3874L9.656 20.7734C9.65267 20.7607 9.646 20.7534 9.636 20.7514ZM8.921 20.7534C8.9166 20.7507 8.91133 20.7498 8.9063 20.751C8.90127 20.7521 8.89686 20.7551 8.894 20.7594L8.888 20.7734L8.854 21.3874C8.85467 21.3994 8.86034 21.4074 8.871 21.4114L8.886 21.4094L9.087 21.3164L9.097 21.3084L9.1 21.2974L9.118 20.8674L9.115 20.8554L9.105 20.8454L8.921 20.7534Z" fill="currentColor"/>
    <path d="M14.969 3.9684C15.2323 3.68794 15.5933 3.51938 15.9774 3.49756C16.3615 3.47574 16.7393 3.60234 17.0327 3.85119C17.3261 4.10003 17.5127 4.4521 17.5539 4.8346C17.595 5.21711 17.4877 5.60082 17.254 5.9064L17.154 6.0234L5.19195 18.7464C4.92862 19.0269 4.56758 19.1954 4.18349 19.2172C3.79939 19.2391 3.42159 19.1125 3.12819 18.8636C2.83479 18.6148 2.64822 18.2627 2.60704 17.8802C2.56587 17.4977 2.67324 17.114 2.90695 16.8084L3.00695 16.6914L14.969 3.9684ZM8.69895 0.746403C8.89216 0.413894 9.2057 0.168291 9.57479 0.060327C9.94389 -0.0476368 10.3404 -0.0097138 10.6823 0.166262C11.0242 0.342238 11.2855 0.642824 11.4122 1.00593C11.5389 1.36904 11.5212 1.76692 11.363 2.1174L11.297 2.2464L2.79695 16.9684C2.60375 17.3009 2.29021 17.5465 1.92111 17.6545C1.55201 17.7624 1.15555 17.7245 0.813605 17.5485C0.471665 17.3726 0.210374 17.072 0.0837049 16.7089C-0.0429639 16.3458 -0.0253335 15.9479 0.132954 15.5974L0.198954 15.4684L8.69895 0.746403Z" fill="currentColor"/>
</svg>
