<svg height="24" viewBox="0 0 21 24" width="21"
    xmlns="http://www.w3.org/2000/svg">
    <path d="m15.1494 1.66131c1.9715.83944 3.3467 2.73489 3.3467 4.93869v.6h.625c1.0355 0 1.875.80589 1.875 1.8v6c0 .9941-.8395 1.8-1.875 1.8h-.625v1.8c0 .3314-.2798.6-.625.6h-1.875v3c0 .9941-.8395 1.8-1.875 1.8s-1.875-.8059-1.875-1.8v-3h-2.50001v3c0 .9941-.83946 1.8-1.875 1.8-1.03553 0-1.875-.8059-1.875-1.8v-3h-1.875c-.34517 0-.625-.2686-.625-.6v-1.8h-.625c-1.03553 0-1.874996-.8059-1.874996-1.8v-6c0-.99411.839466-1.8 1.874996-1.8h.625v-.6c0-2.2038 1.37516-4.09925 3.34665-4.93869l-.66359-.63705c-.24408-.234311-.24408-.614209 0-.848524.24408-.2343146.63981-.2343146.88389 0l1.14127 1.095624c.29835-.04695.6046-.07136.91678-.07136h3.75001c.3122 0 .6184.02441.9168.07136l1.1413-1.095624c.244-.2343146.6398-.2343146.8838 0 .2441.234315.2441.614213 0 .848524zm-1.6533 17.53869v3c0 .3314.2798.6.625.6s.625-.2686.625-.6v-3zm-5.00001 0h-1.25v3c0 .3314.27983.6.625.6.34518 0 .625-.2686.625-.6zm-5-10.8h-.625c-.34517 0-.625.26863-.625.6v6c0 .3314.27983.6.625.6h.625zm15.00001 0v7.2h.625c.3452 0 .625-.2686.625-.6v-6c0-.33137-.2798-.6-.625-.6zm-13.7057-2.4h12.4114c-.3033-2.03538-2.1267-3.6-4.3307-3.6h-3.75001c-2.20404 0-4.02742 1.56462-4.33069 3.6zm2.45569-2.4h1.25v1.2h-1.25zm6.25001 0h1.25v1.2h-1.25zm-8.75001 3.6v10.8h12.50001v-10.8z"></path>
</svg>
