<svg height="24" viewBox="0 0 21 24" width="21"
    xmlns="http://www.w3.org/2000/svg">
    <path d="m14.7961 22.8c.8268 0 2.2596-1.7496 4.044-5.2332-1.482-1.242-2.244-2.706-2.244-4.3668 0-1.6272.7308-3.066 2.1564-4.2912-1.0008-1.152-2.112-1.7088-3.3564-1.7088-1.3128 0-2.3292.1788-3.0492.5244-.7668.3684-1.6536.3936-2.44081.0696-.9552-.3936-2.1252-.594-3.51-.594-2.4792 0-4.2 2.5032-4.2 6 0 3.2532 3.3996 9.6 4.8 9.6.5148 0 1.1016-.1896 1.7592-.5832 1.42321-.852 3.20881-.8136 4.59361.0972.4992.3276.978.486 1.4472.486zm5.16-5.88c.2316.174.3072.4896.1764.7488-2.112 4.2264-3.7968 6.3312-5.3364 6.3312-.7164 0-1.4208-.2316-2.1072-.6828-.9996-.6588-2.2896-.6864-3.31681-.072-.8316.498-1.6236.7548-2.376.7548-2.2644 0-5.999996-6.9732-5.999996-10.8 0-4.0848 2.141996-7.2 5.399996-7.2 1.5324 0 2.856.2256 3.96721.684.4716.1944 1.0044.18 1.464-.0408.9024-.4332 2.0916-.6432 3.5688-.6432 1.8024 0 3.3732.8976 4.68 2.64.198.2652.1452.6408-.12.84-1.458 1.0932-2.16 2.322-2.16 3.72s.702 2.6268 2.16 3.72zm-8.7606-12.12c-.3312 0-.6-.2688-.6-.6 0-2.3196 1.8816-4.2 4.2-4.2.3324 0 .6.2688.6.6 0 2.3196-1.8804 4.2-4.2 4.2zm2.9244-3.5232c-1.1148.2568-1.9908 1.1328-2.2476 2.2464 1.1148-.2568 1.9908-1.1328 2.2476-2.2464z"></path>
</svg>