<svg width="20" height="19" viewBox="0 0 20 19" fill="none"
    xmlns="http://www.w3.org/2000/svg">
    <path d="M16.1579 5.20155V2.53488C16.1579 2.29914 16.0581 2.07304 15.8804 1.90635C15.7028 1.73965 15.4618 1.646 15.2105 1.646H2.89474C2.39222 1.646 1.91029 1.8333 1.55496 2.1667C1.19962 2.50009 1 2.95228 1 3.42377M1 3.42377C1 3.89527 1.19962 4.34745 1.55496 4.68085C1.91029 5.01425 2.39222 5.20155 2.89474 5.20155H17.1053C17.3565 5.20155 17.5975 5.2952 17.7752 5.4619C17.9528 5.6286 18.0526 5.85469 18.0526 6.09044V9.646M1 3.42377V15.8682C1 16.3397 1.19962 16.7919 1.55496 17.1253C1.91029 17.4587 2.39222 17.646 2.89474 17.646H17.1053C17.3565 17.646 17.5975 17.5523 17.7752 17.3856C17.9528 17.2189 18.0526 16.9929 18.0526 16.7571V13.2016M18.0526 9.646H15.2105C14.708 9.646 14.2261 9.8333 13.8707 10.1667C13.5154 10.5001 13.3158 10.9523 13.3158 11.4238C13.3158 11.8953 13.5154 12.3475 13.8707 12.6809C14.2261 13.0143 14.708 13.2016 15.2105 13.2016H18.0526M18.0526 9.646C18.3039 9.646 18.5449 9.73965 18.7225 9.90635C18.9002 10.073 19 10.2991 19 10.5349V12.3127C19 12.5484 18.9002 12.7745 18.7225 12.9412C18.5449 13.1079 18.3039 13.2016 18.0526 13.2016" stroke="black" stroke-width="1.5" stroke-linecap="round" stroke-linejoin="round"/>
</svg>
