<svg height="20" viewBox="0 0 21 20" width="21"
    xmlns="http://www.w3.org/2000/svg">
    <path d="m6.87254 17.9942c.11171-.0186.22645-.0026.32883.0458 1.17605.5562 2.46435.8485 3.79523.8485 4.909 0 8.8884-3.9796 8.8884-8.88868 0-4.90911-3.9794-8.88873-8.8884-8.88873-4.90894 0-8.88842 3.97962-8.88842 8.88873 0 1.89648.59473 3.70198 1.68274 5.20538.11728.1621.13838.3747.05523.5567l-1.35376 2.9623zm-5.22856 1.9979c-.4391.0732-.781627-.374-.5966-.7789l1.65624-3.6243c-1.10494-1.6363-1.706498-3.568-1.706498-5.58908 0-5.52275 4.476918-9.99982 9.999478-9.99982 5.5226 0 9.9995 4.47707 9.9995 9.99982 0 5.52278-4.4769 9.99978-9.9995 9.99978-1.436 0-2.83-.3032-4.1103-.8813z"></path>
</svg>