<svg width="16" height="15" viewBox="0 0 16 15" fill="none"
    xmlns="http://www.w3.org/2000/svg">
    <path d="M15 10.581C15 10.944 14.8525 11.2922 14.5899 11.5488C14.3274 11.8055 13.9713 11.9497 13.6 11.9497H4.3796C4.00833 11.9498 3.65229 12.0941 3.3898 12.3508L1.8484 13.8577C1.77889 13.9257 1.69034 13.9719 1.59394 13.9907C1.49754 14.0094 1.39762 13.9998 1.30681 13.963C1.21601 13.9262 1.13839 13.864 1.08378 13.7841C1.02917 13.7042 1.00001 13.6103 1 13.5142V2.36872C1 2.00571 1.1475 1.65757 1.41005 1.40089C1.6726 1.1442 2.0287 1 2.4 1H13.6C13.9713 1 14.3274 1.1442 14.5899 1.40089C14.8525 1.65757 15 2.00571 15 2.36872V10.581Z" stroke="black" stroke-linecap="round" stroke-linejoin="round"/>
</svg>
