<svg width="14" height="15" viewBox="0 0 14 15" fill="none"
    xmlns="http://www.w3.org/2000/svg">
    <path d="M9 14.0001V8.66673C9 8.48992 8.92976 8.32035 8.80474 8.19532C8.67971 8.0703 8.51014 8.00006 8.33333 8.00006H5.66667C5.48986 8.00006 5.32029 8.0703 5.19526 8.19532C5.07024 8.32035 5 8.48992 5 8.66673V14.0001M1 6.66673C0.999954 6.47277 1.04222 6.28114 1.12386 6.1052C1.20549 5.92927 1.32453 5.77326 1.47267 5.64806L6.13933 1.64873C6.37999 1.44533 6.6849 1.33374 7 1.33374C7.3151 1.33374 7.62001 1.44533 7.86067 1.64873L12.5273 5.64806C12.6755 5.77326 12.7945 5.92927 12.8761 6.1052C12.9578 6.28114 13 6.47277 13 6.66673V12.6667C13 13.0203 12.8595 13.3595 12.6095 13.6095C12.3594 13.8596 12.0203 14.0001 11.6667 14.0001H2.33333C1.97971 14.0001 1.64057 13.8596 1.39052 13.6095C1.14048 13.3595 1 13.0203 1 12.6667V6.66673Z" stroke="black" stroke-linecap="round" stroke-linejoin="round"/>
</svg>
