<svg width="14" height="16" viewBox="0 0 14 16" fill="none"
    xmlns="http://www.w3.org/2000/svg">
    <path d="M13 6.60007C13 10.0952 8.84575 13.7353 7.45075 14.8595C7.32079 14.9507 7.1626 15 7 15C6.8374 15 6.67921 14.9507 6.54925 14.8595C5.15425 13.7353 1 10.0952 1 6.60007C1 5.11484 1.63214 3.69044 2.75736 2.64022C3.88258 1.59001 5.4087 1 7 1C8.5913 1 10.1174 1.59001 11.2426 2.64022C12.3679 3.69044 13 5.11484 13 6.60007Z" stroke="black" stroke-linecap="round" stroke-linejoin="round"/>
    <path d="M7 8.7001C8.24264 8.7001 9.25 7.75988 9.25 6.60007C9.25 5.44026 8.24264 4.50004 7 4.50004C5.75736 4.50004 4.75 5.44026 4.75 6.60007C4.75 7.75988 5.75736 8.7001 7 8.7001Z" stroke="black" stroke-linecap="round" stroke-linejoin="round"/>
</svg>
