<svg width="21" height="21" viewBox="0 0 21 21" fill="none"
    xmlns="http://www.w3.org/2000/svg">
    <g clip-path="url(#clip0_58_33)">
        <path d="M1.75 10.1929V18.8125C1.75 19.5361 2.33888 20.125 3.0625 20.125H10.5V21H3.0625C1.85675 21 0.875 20.0182 0.875 18.8125V9.57425C0.335125 9.02213 0 8.26875 0 7.4375L2.303 0H18.6961L21 7.4375C21 8.49187 20.4636 9.42375 19.6499 9.975C19.4198 9.75362 19.1625 9.56462 18.8878 9.39838C19.5982 9.05188 20.0996 8.33875 20.1232 7.50138L18.053 0.875H14.8741V4.375H13.9991V0.875H6.99913V4.375H6.12413V0.875H2.94613L0.875 7.50138C0.909125 8.67825 1.87688 9.625 3.06163 9.625H3.93663C5.14237 9.625 6.12413 8.64325 6.12413 7.4375V7H6.99913V7.4375C6.99913 8.64325 7.98087 9.625 9.18662 9.625H11.8116C13.0182 9.625 13.9991 8.64325 13.9991 7.4375H14.8741C14.8741 9.12625 13.5004 10.5 11.8116 10.5H9.18662C8.06662 10.5 7.09538 9.88925 6.56163 8.98975C6.02787 9.88925 5.05662 10.5 3.93663 10.5H3.06163C2.59 10.5 2.14812 10.3836 1.74913 10.1929H1.75ZM18.8125 16.625H14.4375C13.2309 16.625 12.25 17.6068 12.25 18.8125V21H13.125V18.8125C13.125 18.0889 13.7139 17.5 14.4375 17.5H18.8125C19.5361 17.5 20.125 18.0889 20.125 18.8125V21H21V18.8125C21 17.6068 20.0191 16.625 18.8125 16.625ZM19.25 13.125C19.25 14.5723 18.0723 15.75 16.625 15.75C15.1777 15.75 14 14.5723 14 13.125C14 11.6777 15.1777 10.5 16.625 10.5C18.0723 10.5 19.25 11.6777 19.25 13.125ZM18.375 13.125C18.375 12.1599 17.5901 11.375 16.625 11.375C15.6599 11.375 14.875 12.1599 14.875 13.125C14.875 14.0901 15.6599 14.875 16.625 14.875C17.5901 14.875 18.375 14.0901 18.375 13.125Z" fill="black" stroke="black" stroke-width="0.5"/>
    </g>
    <defs>
        <clipPath id="clip0_58_33">
            <rect width="21" height="21" fill="white"/>
        </clipPath>
    </defs>
</svg>
