<svg width="16" height="14" viewBox="0 0 16 14" fill="none"
    xmlns="http://www.w3.org/2000/svg">
    <path d="M10.8 13V11.6667C10.8 10.9594 10.505 10.2811 9.9799 9.78105C9.4548 9.28095 8.74261 9 8 9H3.8C3.05739 9 2.3452 9.28095 1.8201 9.78105C1.295 10.2811 1 10.9594 1 11.6667V13M10.8 1.08533C11.4004 1.23358 11.9322 1.56751 12.3118 2.03471C12.6914 2.50191 12.8973 3.07593 12.8973 3.66667C12.8973 4.25741 12.6914 4.83143 12.3118 5.29863C11.9322 5.76582 11.4004 6.09975 10.8 6.248M15 13V11.6667C14.9995 11.0758 14.793 10.5018 14.413 10.0349C14.0329 9.56791 13.5007 9.23438 12.9 9.08667M8.7 3.66667C8.7 5.13943 7.4464 6.33333 5.9 6.33333C4.3536 6.33333 3.1 5.13943 3.1 3.66667C3.1 2.19391 4.3536 1 5.9 1C7.4464 1 8.7 2.19391 8.7 3.66667Z" stroke="black" stroke-linecap="round" stroke-linejoin="round"/>
</svg>
