<svg height="528" viewBox="0 0 264 528" width="264" xmlns="http://www.w3.org/2000/svg">
	<mask id="a" fill="#fff">
		<path
			d="m14.5 29c7.4558 0 13.5 6.0442 13.5 13.5v13c0 .2761.2239.5.5.5s.5-.2239.5-.5v-13c0-7.4558 6.0442-13.5 13.5-13.5h13c.2761 0 .5-.2239.5-.5s-.2239-.5-.5-.5h-13c-7.4558 0-13.5-6.0442-13.5-13.5v-14c0-.276142-.2239-.5-.5-.5s-.5.223857-.5.5v13.5c0 7.732-6.268 14-14 14h-13.5c-.276142 0-.5.2239-.5.5s.223857.5.5.5z"
			fill="#fff" fill-rule="evenodd"/>
	</mask>
	<g fill="none" fill-rule="evenodd" transform="translate(.5 .5)">
		<path
			d="m118 264.5c7.4558 0 13.5 6.0442 13.5 13.5v13c0 .2761.2239.5.5.5s.5-.2239.5-.5v-13c0-7.4558 6.0442-13.5 13.5-13.5h13c.2761 0 .5-.2239.5-.5s-.2239-.5-.5-.5h-13c-7.4558 0-13.5-6.0442-13.5-13.5v-14c0-.276142-.2239-.5-.5-.5s-.5.223857-.5.5v13.5c0 7.732-6.268 14-14 14h-13.5c-.276142 0-.5.2239-.5.5s.223857.5.5.5z"
			fill="#f7f7f8"/>
		<g fill-rule="nonzero">
			<rect fill="#eaeaed" height="527" rx="31.5" stroke="#d5d5dd" width="263"/>
			<path
				d="m29 55.5v-13h-2v13zm-1-13v13h2v-13zm27.5-14.5h-13v2h13zm-13 1h13v-2h-13zm-14.5-28.5v14h2v-14zm1 13.5v-13.5h-2v13.5zm-28.5 15h13.5v-2h-13.5zm14-1h-14v2h14zm-15.5.5c0 .8284.671572 1.5 1.5 1.5v-2c.276143 0 .5.2239.5.5zm1.5-1.5c-.828427 0-1.5.6716-1.5 1.5h2c0 .2761-.223858.5-.5.5zm26.5-13c0 7.1797-5.8203 13-13 13v2c8.2843 0 15-6.7157 15-15zm1.5-15c-.8284 0-1.5.671572-1.5 1.5h2c0 .276143-.2239.5-.5.5zm1.5 1.5c0-.828427-.6716-1.5-1.5-1.5v2c-.2761 0-.5-.223858-.5-.5zm12.5 26.5c-6.9036 0-12.5-5.5964-12.5-12.5h-2c0 8.0081 6.4919 14.5 14.5 14.5zm14.5 1.5c0-.8284-.6716-1.5-1.5-1.5v2c-.2761 0-.5-.2239-.5-.5zm-1.5 1.5c.8284 0 1.5-.6716 1.5-1.5h-2c0-.2761.2239-.5.5-.5zm-25.5 12.5c0-6.9036 5.5964-12.5 12.5-12.5v-2c-8.0081 0-14.5 6.4919-14.5 14.5zm-1.5 14.5c.8284 0 1.5-.6716 1.5-1.5h-2c0-.2761.2239-.5.5-.5zm.5-14.5c0-8.0081-6.4919-14.5-14.5-14.5v2c6.9036 0 12.5 5.5964 12.5 12.5zm-2 13c0 .8284.6716 1.5 1.5 1.5v-2c.2761 0 .5.2239.5.5z"
				fill="#a2a2ab" mask="url(#a)" transform="translate(103.5 235.5)"/>
		</g>
	</g>
</svg>
