<svg height="14.288mm" shape-rendering="crispEdges" viewBox="0 0 54.504 14.288" width="54.504mm" xmlns="http://www.w3.org/2000/svg"><path d="m0 0h54.504v14.288h-54.504z" fill="#fff"/><g><path d="m0 0h4.2333v2.3813h-4.2333z"/><path d="m4.7625 0h.5292v2.3813h-.5292z"/><path d="m5.8208 0h.5292v2.3813h-.5292z"/><path d="m6.8791 0h.5292v2.3813h-.5292z"/><path d="m8.9958 0h2.1167v2.3813h-2.1167z"/><path d="m11.6416 0h.5292v2.3813h-.5292z"/><path d="m12.7 0h.5292v2.3813h-.5292z"/><path d="m13.7583 0h2.1167v2.3813h-2.1167z"/><path d="m17.9916 0h2.1167v2.3813h-2.1167z"/><path d="m20.6374 0h.5292v2.3813h-.5292z"/><path d="m21.6958 0h.5292v2.3813h-.5292z"/><path d="m23.2833 0h2.1167v2.3813h-2.1167z"/><path d="m26.9874 0h1.0583v2.3813h-1.0583z"/><path d="m30.1624 0h1.0583v2.3813h-1.0583z"/><path d="m31.7499 0h.5292v2.3813h-.5292z"/><path d="m32.8082 0h.5292v2.3813h-.5292z"/><path d="m35.9832 0h2.1167v2.3813h-2.1167z"/><path d="m38.629 0h.5292v2.3813h-.5292z"/><path d="m39.6874 0h.5292v2.3813h-.5292z"/><path d="m40.7457 0h2.1167v2.3813h-2.1167z"/><path d="m44.979 0h3.7042v2.3813h-3.7042z"/><path d="m49.2123 0h.5292v2.3813h-.5292z"/><path d="m51.329 0h.5292v2.3813h-.5292z"/><path d="m52.3873 0h.5292v2.3813h-.5292z"/><path d="m53.9748 0h.5292v2.3813h-.5292z"/></g><g><path d="m0 2.3813h4.2333v2.3813h-4.2333z"/><path d="m4.7625 2.3813h.5292v2.3813h-.5292z"/><path d="m5.8208 2.3813h.5292v2.3813h-.5292z"/><path d="m6.8791 2.3813h.5292v2.3813h-.5292z"/><path d="m8.9958 2.3813h2.1167v2.3813h-2.1167z"/><path d="m11.6416 2.3813h.5292v2.3813h-.5292z"/><path d="m12.7 2.3813h.5292v2.3813h-.5292z"/><path d="m15.3458 2.3813h.5292v2.3813h-.5292z"/><path d="m17.9916 2.3813h2.1167v2.3813h-2.1167z"/><path d="m20.6374 2.3813h.5292v2.3813h-.5292z"/><path d="m22.7541 2.3813h1.0583v2.3813h-1.0583z"/><path d="m24.3416 2.3813h1.0583v2.3813h-1.0583z"/><path d="m26.9874 2.3813h.5292v2.3813h-.5292z"/><path d="m28.0457 2.3813h1.0583v2.3813h-1.0583z"/><path d="m30.1624 2.3813h.5292v2.3813h-.5292z"/><path d="m31.7499 2.3813h3.175v2.3813h-3.175z"/><path d="m35.9832 2.3813h3.175v2.3813h-3.175z"/><path d="m39.6874 2.3813h.5292v2.3813h-.5292z"/><path d="m40.7457 2.3813h.5292v2.3813h-.5292z"/><path d="m41.804 2.3813h1.5875v2.3813h-1.5875z"/><path d="m44.979 2.3813h3.7042v2.3813h-3.7042z"/><path d="m49.2123 2.3813h.5292v2.3813h-.5292z"/><path d="m51.329 2.3813h.5292v2.3813h-.5292z"/><path d="m52.3873 2.3813h.5292v2.3813h-.5292z"/><path d="m53.9748 2.3813h.5292v2.3813h-.5292z"/></g><g><path d="m0 4.7627h4.2333v2.3813h-4.2333z"/><path d="m4.7625 4.7627h.5292v2.3813h-.5292z"/><path d="m5.8208 4.7627h.5292v2.3813h-.5292z"/><path d="m6.8791 4.7627h.5292v2.3813h-.5292z"/><path d="m8.9958 4.7627h1.5875v2.3813h-1.5875z"/><path d="m11.1125 4.7627h.5292v2.3813h-.5292z"/><path d="m12.1708 4.7627h.5292v2.3813h-.5292z"/><path d="m13.2291 4.7627h3.175v2.3813h-3.175z"/><path d="m17.9916 4.7627h1.0583v2.3813h-1.0583z"/><path d="m20.6374 4.7627h1.0583v2.3813h-1.0583z"/><path d="m22.7541 4.7627h.5292v2.3813h-.5292z"/><path d="m23.8124 4.7627h2.1167v2.3813h-2.1167z"/><path d="m26.9874 4.7627h.5292v2.3813h-.5292z"/><path d="m28.0457 4.7627h1.5875v2.3813h-1.5875z"/><path d="m31.7499 4.7627h1.0583v2.3813h-1.0583z"/><path d="m33.3374 4.7627h1.5875v2.3813h-1.5875z"/><path d="m35.9832 4.7627h.5292v2.3813h-.5292z"/><path d="m37.0416 4.7627h.5292v2.3813h-.5292z"/><path d="m38.0999 4.7627h.5292v2.3813h-.5292z"/><path d="m40.7457 4.7627h2.1167v2.3813h-2.1167z"/><path d="m44.979 4.7627h3.7042v2.3813h-3.7042z"/><path d="m49.2123 4.7627h.5292v2.3813h-.5292z"/><path d="m51.329 4.7627h.5292v2.3813h-.5292z"/><path d="m52.3873 4.7627h.5292v2.3813h-.5292z"/><path d="m53.9748 4.7627h.5292v2.3813h-.5292z"/></g><g><path d="m0 7.144h4.2333v2.3813h-4.2333z"/><path d="m4.7625 7.144h.5292v2.3813h-.5292z"/><path d="m5.8208 7.144h.5292v2.3813h-.5292z"/><path d="m6.8791 7.144h.5292v2.3813h-.5292z"/><path d="m8.9958 7.144h.5292v2.3813h-.5292z"/><path d="m10.0541 7.144h.5292v2.3813h-.5292z"/><path d="m11.1125 7.144h2.1167v2.3813h-2.1167z"/><path d="m14.2875 7.144h2.1167v2.3813h-2.1167z"/><path d="m17.9916 7.144h.5292v2.3813h-.5292z"/><path d="m19.0499 7.144h.5292v2.3813h-.5292z"/><path d="m22.2249 7.144h.5292v2.3813h-.5292z"/><path d="m24.3416 7.144h.5292v2.3813h-.5292z"/><path d="m26.9874 7.144h.5292v2.3813h-.5292z"/><path d="m30.1624 7.144h.5292v2.3813h-.5292z"/><path d="m31.2207 7.144h.5292v2.3813h-.5292z"/><path d="m34.3957 7.144h.5292v2.3813h-.5292z"/><path d="m35.9832 7.144h.5292v2.3813h-.5292z"/><path d="m37.0416 7.144h.5292v2.3813h-.5292z"/><path d="m38.0999 7.144h2.1167v2.3813h-2.1167z"/><path d="m41.2749 7.144h2.1167v2.3813h-2.1167z"/><path d="m44.979 7.144h3.7042v2.3813h-3.7042z"/><path d="m49.2123 7.144h.5292v2.3813h-.5292z"/><path d="m51.329 7.144h.5292v2.3813h-.5292z"/><path d="m52.3873 7.144h.5292v2.3813h-.5292z"/><path d="m53.9748 7.144h.5292v2.3813h-.5292z"/></g><g><path d="m0 9.5253h4.2333v2.3813h-4.2333z"/><path d="m4.7625 9.5253h.5292v2.3813h-.5292z"/><path d="m5.8208 9.5253h.5292v2.3813h-.5292z"/><path d="m6.8791 9.5253h.5292v2.3813h-.5292z"/><path d="m8.9958 9.5253h1.0583v2.3813h-1.0583z"/><path d="m10.5833 9.5253h.5292v2.3813h-.5292z"/><path d="m11.6416 9.5253h1.5875v2.3813h-1.5875z"/><path d="m15.875 9.5253h.5292v2.3813h-.5292z"/><path d="m17.9916 9.5253h2.1167v2.3813h-2.1167z"/><path d="m20.6374 9.5253h.5292v2.3813h-.5292z"/><path d="m23.8124 9.5253h.5292v2.3813h-.5292z"/><path d="m25.9291 9.5253h.5292v2.3813h-.5292z"/><path d="m26.9874 9.5253h1.0583v2.3813h-1.0583z"/><path d="m29.6332 9.5253h1.0583v2.3813h-1.0583z"/><path d="m31.2207 9.5253h2.1167v2.3813h-2.1167z"/><path d="m33.8666 9.5253h.5292v2.3813h-.5292z"/><path d="m35.9832 9.5253h1.5875v2.3813h-1.5875z"/><path d="m38.0999 9.5253h.5292v2.3813h-.5292z"/><path d="m39.1582 9.5253h1.5875v2.3813h-1.5875z"/><path d="m41.804 9.5253h1.0583v2.3813h-1.0583z"/><path d="m44.979 9.5253h3.7042v2.3813h-3.7042z"/><path d="m49.2123 9.5253h.5292v2.3813h-.5292z"/><path d="m51.329 9.5253h.5292v2.3813h-.5292z"/><path d="m52.3873 9.5253h.5292v2.3813h-.5292z"/><path d="m53.9748 9.5253h.5292v2.3813h-.5292z"/></g><g><path d="m0 11.9067h4.2333v2.3813h-4.2333z"/><path d="m4.7625 11.9067h.5292v2.3813h-.5292z"/><path d="m5.8208 11.9067h.5292v2.3813h-.5292z"/><path d="m6.8791 11.9067h.5292v2.3813h-.5292z"/><path d="m8.9958 11.9067h2.1167v2.3813h-2.1167z"/><path d="m11.6416 11.9067h.5292v2.3813h-.5292z"/><path d="m12.7 11.9067h2.1167v2.3813h-2.1167z"/><path d="m15.3458 11.9067h.5292v2.3813h-.5292z"/><path d="m17.9916 11.9067h1.5875v2.3813h-1.5875z"/><path d="m20.1083 11.9067h3.175v2.3813h-3.175z"/><path d="m23.8124 11.9067h.5292v2.3813h-.5292z"/><path d="m25.9291 11.9067h.5292v2.3813h-.5292z"/><path d="m26.9874 11.9067h1.5875v2.3813h-1.5875z"/><path d="m29.1041 11.9067h1.0583v2.3813h-1.0583z"/><path d="m31.2207 11.9067h.5292v2.3813h-.5292z"/><path d="m32.8082 11.9067h2.6458v2.3813h-2.6458z"/><path d="m35.9832 11.9067h2.1167v2.3813h-2.1167z"/><path d="m38.629 11.9067h.5292v2.3813h-.5292z"/><path d="m39.6874 11.9067h2.6458v2.3813h-2.6458z"/><path d="m42.8624 11.9067h1.0583v2.3813h-1.0583z"/><path d="m44.979 11.9067h3.7042v2.3813h-3.7042z"/><path d="m49.2123 11.9067h.5292v2.3813h-.5292z"/><path d="m51.329 11.9067h.5292v2.3813h-.5292z"/><path d="m52.3873 11.9067h.5292v2.3813h-.5292z"/><path d="m53.9748 11.9067h.5292v2.3813h-.5292z"/></g></svg>