<?xml version="1.0"?>
<svg xmlns="http://www.w3.org/2000/svg" xmlns:xlink="http://www.w3.org/1999/xlink" version="1.1" width="320px" height="320px" viewBox="0 0 320 320"><defs><rect id="block" width="6.0000000000" height="6.0000000000" fill="#000000" fill-opacity="1"/></defs><rect x="0" y="0" width="320" height="320" fill="#ffffff" fill-opacity="1"/><use x="25.0000000000" y="25.0000000000" xlink:href="#block"/><use x="31.0000000000" y="25.0000000000" xlink:href="#block"/><use x="37.0000000000" y="25.0000000000" xlink:href="#block"/><use x="43.0000000000" y="25.0000000000" xlink:href="#block"/><use x="49.0000000000" y="25.0000000000" xlink:href="#block"/><use x="55.0000000000" y="25.0000000000" xlink:href="#block"/><use x="61.0000000000" y="25.0000000000" xlink:href="#block"/><use x="73.0000000000" y="25.0000000000" xlink:href="#block"/><use x="79.0000000000" y="25.0000000000" xlink:href="#block"/><use x="91.0000000000" y="25.0000000000" xlink:href="#block"/><use x="97.0000000000" y="25.0000000000" xlink:href="#block"/><use x="115.0000000000" y="25.0000000000" xlink:href="#block"/><use x="133.0000000000" y="25.0000000000" xlink:href="#block"/><use x="139.0000000000" y="25.0000000000" xlink:href="#block"/><use x="145.0000000000" y="25.0000000000" xlink:href="#block"/><use x="157.0000000000" y="25.0000000000" xlink:href="#block"/><use x="181.0000000000" y="25.0000000000" xlink:href="#block"/><use x="187.0000000000" y="25.0000000000" xlink:href="#block"/><use x="193.0000000000" y="25.0000000000" xlink:href="#block"/><use x="205.0000000000" y="25.0000000000" xlink:href="#block"/><use x="211.0000000000" y="25.0000000000" xlink:href="#block"/><use x="217.0000000000" y="25.0000000000" xlink:href="#block"/><use x="241.0000000000" y="25.0000000000" xlink:href="#block"/><use x="253.0000000000" y="25.0000000000" xlink:href="#block"/><use x="259.0000000000" y="25.0000000000" xlink:href="#block"/><use x="265.0000000000" y="25.0000000000" xlink:href="#block"/><use x="271.0000000000" y="25.0000000000" xlink:href="#block"/><use x="277.0000000000" y="25.0000000000" xlink:href="#block"/><use x="283.0000000000" y="25.0000000000" xlink:href="#block"/><use x="289.0000000000" y="25.0000000000" xlink:href="#block"/><use x="25.0000000000" y="31.0000000000" xlink:href="#block"/><use x="61.0000000000" y="31.0000000000" xlink:href="#block"/><use x="73.0000000000" y="31.0000000000" xlink:href="#block"/><use x="79.0000000000" y="31.0000000000" xlink:href="#block"/><use x="85.0000000000" y="31.0000000000" xlink:href="#block"/><use x="103.0000000000" y="31.0000000000" xlink:href="#block"/><use x="109.0000000000" y="31.0000000000" xlink:href="#block"/><use x="133.0000000000" y="31.0000000000" xlink:href="#block"/><use x="145.0000000000" y="31.0000000000" xlink:href="#block"/><use x="151.0000000000" y="31.0000000000" xlink:href="#block"/><use x="157.0000000000" y="31.0000000000" xlink:href="#block"/><use x="163.0000000000" y="31.0000000000" xlink:href="#block"/><use x="169.0000000000" y="31.0000000000" xlink:href="#block"/><use x="175.0000000000" y="31.0000000000" xlink:href="#block"/><use x="187.0000000000" y="31.0000000000" xlink:href="#block"/><use x="205.0000000000" y="31.0000000000" xlink:href="#block"/><use x="211.0000000000" y="31.0000000000" xlink:href="#block"/><use x="223.0000000000" y="31.0000000000" xlink:href="#block"/><use x="235.0000000000" y="31.0000000000" xlink:href="#block"/><use x="253.0000000000" y="31.0000000000" xlink:href="#block"/><use x="289.0000000000" y="31.0000000000" xlink:href="#block"/><use x="25.0000000000" y="37.0000000000" xlink:href="#block"/><use x="37.0000000000" y="37.0000000000" xlink:href="#block"/><use x="43.0000000000" y="37.0000000000" xlink:href="#block"/><use x="49.0000000000" y="37.0000000000" xlink:href="#block"/><use x="61.0000000000" y="37.0000000000" xlink:href="#block"/><use x="73.0000000000" y="37.0000000000" xlink:href="#block"/><use x="79.0000000000" y="37.0000000000" xlink:href="#block"/><use x="85.0000000000" y="37.0000000000" xlink:href="#block"/><use x="91.0000000000" y="37.0000000000" xlink:href="#block"/><use x="97.0000000000" y="37.0000000000" xlink:href="#block"/><use x="109.0000000000" y="37.0000000000" xlink:href="#block"/><use x="115.0000000000" y="37.0000000000" xlink:href="#block"/><use x="121.0000000000" y="37.0000000000" xlink:href="#block"/><use x="133.0000000000" y="37.0000000000" xlink:href="#block"/><use x="145.0000000000" y="37.0000000000" xlink:href="#block"/><use x="163.0000000000" y="37.0000000000" xlink:href="#block"/><use x="169.0000000000" y="37.0000000000" xlink:href="#block"/><use x="193.0000000000" y="37.0000000000" xlink:href="#block"/><use x="199.0000000000" y="37.0000000000" xlink:href="#block"/><use x="205.0000000000" y="37.0000000000" xlink:href="#block"/><use x="217.0000000000" y="37.0000000000" xlink:href="#block"/><use x="223.0000000000" y="37.0000000000" xlink:href="#block"/><use x="235.0000000000" y="37.0000000000" xlink:href="#block"/><use x="253.0000000000" y="37.0000000000" xlink:href="#block"/><use x="265.0000000000" y="37.0000000000" xlink:href="#block"/><use x="271.0000000000" y="37.0000000000" xlink:href="#block"/><use x="277.0000000000" y="37.0000000000" xlink:href="#block"/><use x="289.0000000000" y="37.0000000000" xlink:href="#block"/><use x="25.0000000000" y="43.0000000000" xlink:href="#block"/><use x="37.0000000000" y="43.0000000000" xlink:href="#block"/><use x="43.0000000000" y="43.0000000000" xlink:href="#block"/><use x="49.0000000000" y="43.0000000000" xlink:href="#block"/><use x="61.0000000000" y="43.0000000000" xlink:href="#block"/><use x="85.0000000000" y="43.0000000000" xlink:href="#block"/><use x="91.0000000000" y="43.0000000000" xlink:href="#block"/><use x="103.0000000000" y="43.0000000000" xlink:href="#block"/><use x="109.0000000000" y="43.0000000000" xlink:href="#block"/><use x="115.0000000000" y="43.0000000000" xlink:href="#block"/><use x="121.0000000000" y="43.0000000000" xlink:href="#block"/><use x="127.0000000000" y="43.0000000000" xlink:href="#block"/><use x="133.0000000000" y="43.0000000000" xlink:href="#block"/><use x="145.0000000000" y="43.0000000000" xlink:href="#block"/><use x="151.0000000000" y="43.0000000000" xlink:href="#block"/><use x="169.0000000000" y="43.0000000000" xlink:href="#block"/><use x="175.0000000000" y="43.0000000000" xlink:href="#block"/><use x="223.0000000000" y="43.0000000000" xlink:href="#block"/><use x="235.0000000000" y="43.0000000000" xlink:href="#block"/><use x="241.0000000000" y="43.0000000000" xlink:href="#block"/><use x="253.0000000000" y="43.0000000000" xlink:href="#block"/><use x="265.0000000000" y="43.0000000000" xlink:href="#block"/><use x="271.0000000000" y="43.0000000000" xlink:href="#block"/><use x="277.0000000000" y="43.0000000000" xlink:href="#block"/><use x="289.0000000000" y="43.0000000000" xlink:href="#block"/><use x="25.0000000000" y="49.0000000000" xlink:href="#block"/><use x="37.0000000000" y="49.0000000000" xlink:href="#block"/><use x="43.0000000000" y="49.0000000000" xlink:href="#block"/><use x="49.0000000000" y="49.0000000000" xlink:href="#block"/><use x="61.0000000000" y="49.0000000000" xlink:href="#block"/><use x="79.0000000000" y="49.0000000000" xlink:href="#block"/><use x="97.0000000000" y="49.0000000000" xlink:href="#block"/><use x="103.0000000000" y="49.0000000000" xlink:href="#block"/><use x="109.0000000000" y="49.0000000000" xlink:href="#block"/><use x="127.0000000000" y="49.0000000000" xlink:href="#block"/><use x="133.0000000000" y="49.0000000000" xlink:href="#block"/><use x="139.0000000000" y="49.0000000000" xlink:href="#block"/><use x="145.0000000000" y="49.0000000000" xlink:href="#block"/><use x="151.0000000000" y="49.0000000000" xlink:href="#block"/><use x="157.0000000000" y="49.0000000000" xlink:href="#block"/><use x="163.0000000000" y="49.0000000000" xlink:href="#block"/><use x="169.0000000000" y="49.0000000000" xlink:href="#block"/><use x="175.0000000000" y="49.0000000000" xlink:href="#block"/><use x="193.0000000000" y="49.0000000000" xlink:href="#block"/><use x="205.0000000000" y="49.0000000000" xlink:href="#block"/><use x="211.0000000000" y="49.0000000000" xlink:href="#block"/><use x="217.0000000000" y="49.0000000000" xlink:href="#block"/><use x="229.0000000000" y="49.0000000000" xlink:href="#block"/><use x="235.0000000000" y="49.0000000000" xlink:href="#block"/><use x="241.0000000000" y="49.0000000000" xlink:href="#block"/><use x="253.0000000000" y="49.0000000000" xlink:href="#block"/><use x="265.0000000000" y="49.0000000000" xlink:href="#block"/><use x="271.0000000000" y="49.0000000000" xlink:href="#block"/><use x="277.0000000000" y="49.0000000000" xlink:href="#block"/><use x="289.0000000000" y="49.0000000000" xlink:href="#block"/><use x="25.0000000000" y="55.0000000000" xlink:href="#block"/><use x="61.0000000000" y="55.0000000000" xlink:href="#block"/><use x="73.0000000000" y="55.0000000000" xlink:href="#block"/><use x="85.0000000000" y="55.0000000000" xlink:href="#block"/><use x="91.0000000000" y="55.0000000000" xlink:href="#block"/><use x="97.0000000000" y="55.0000000000" xlink:href="#block"/><use x="103.0000000000" y="55.0000000000" xlink:href="#block"/><use x="115.0000000000" y="55.0000000000" xlink:href="#block"/><use x="139.0000000000" y="55.0000000000" xlink:href="#block"/><use x="145.0000000000" y="55.0000000000" xlink:href="#block"/><use x="169.0000000000" y="55.0000000000" xlink:href="#block"/><use x="193.0000000000" y="55.0000000000" xlink:href="#block"/><use x="199.0000000000" y="55.0000000000" xlink:href="#block"/><use x="205.0000000000" y="55.0000000000" xlink:href="#block"/><use x="211.0000000000" y="55.0000000000" xlink:href="#block"/><use x="253.0000000000" y="55.0000000000" xlink:href="#block"/><use x="289.0000000000" y="55.0000000000" xlink:href="#block"/><use x="25.0000000000" y="61.0000000000" xlink:href="#block"/><use x="31.0000000000" y="61.0000000000" xlink:href="#block"/><use x="37.0000000000" y="61.0000000000" xlink:href="#block"/><use x="43.0000000000" y="61.0000000000" xlink:href="#block"/><use x="49.0000000000" y="61.0000000000" xlink:href="#block"/><use x="55.0000000000" y="61.0000000000" xlink:href="#block"/><use x="61.0000000000" y="61.0000000000" xlink:href="#block"/><use x="73.0000000000" y="61.0000000000" xlink:href="#block"/><use x="85.0000000000" y="61.0000000000" xlink:href="#block"/><use x="97.0000000000" y="61.0000000000" xlink:href="#block"/><use x="109.0000000000" y="61.0000000000" xlink:href="#block"/><use x="121.0000000000" y="61.0000000000" xlink:href="#block"/><use x="133.0000000000" y="61.0000000000" xlink:href="#block"/><use x="145.0000000000" y="61.0000000000" xlink:href="#block"/><use x="157.0000000000" y="61.0000000000" xlink:href="#block"/><use x="169.0000000000" y="61.0000000000" xlink:href="#block"/><use x="181.0000000000" y="61.0000000000" xlink:href="#block"/><use x="193.0000000000" y="61.0000000000" xlink:href="#block"/><use x="205.0000000000" y="61.0000000000" xlink:href="#block"/><use x="217.0000000000" y="61.0000000000" xlink:href="#block"/><use x="229.0000000000" y="61.0000000000" xlink:href="#block"/><use x="241.0000000000" y="61.0000000000" xlink:href="#block"/><use x="253.0000000000" y="61.0000000000" xlink:href="#block"/><use x="259.0000000000" y="61.0000000000" xlink:href="#block"/><use x="265.0000000000" y="61.0000000000" xlink:href="#block"/><use x="271.0000000000" y="61.0000000000" xlink:href="#block"/><use x="277.0000000000" y="61.0000000000" xlink:href="#block"/><use x="283.0000000000" y="61.0000000000" xlink:href="#block"/><use x="289.0000000000" y="61.0000000000" xlink:href="#block"/><use x="73.0000000000" y="67.0000000000" xlink:href="#block"/><use x="85.0000000000" y="67.0000000000" xlink:href="#block"/><use x="109.0000000000" y="67.0000000000" xlink:href="#block"/><use x="121.0000000000" y="67.0000000000" xlink:href="#block"/><use x="133.0000000000" y="67.0000000000" xlink:href="#block"/><use x="145.0000000000" y="67.0000000000" xlink:href="#block"/><use x="169.0000000000" y="67.0000000000" xlink:href="#block"/><use x="181.0000000000" y="67.0000000000" xlink:href="#block"/><use x="187.0000000000" y="67.0000000000" xlink:href="#block"/><use x="193.0000000000" y="67.0000000000" xlink:href="#block"/><use x="199.0000000000" y="67.0000000000" xlink:href="#block"/><use x="205.0000000000" y="67.0000000000" xlink:href="#block"/><use x="211.0000000000" y="67.0000000000" xlink:href="#block"/><use x="217.0000000000" y="67.0000000000" xlink:href="#block"/><use x="223.0000000000" y="67.0000000000" xlink:href="#block"/><use x="235.0000000000" y="67.0000000000" xlink:href="#block"/><use x="241.0000000000" y="67.0000000000" xlink:href="#block"/><use x="37.0000000000" y="73.0000000000" xlink:href="#block"/><use x="43.0000000000" y="73.0000000000" xlink:href="#block"/><use x="49.0000000000" y="73.0000000000" xlink:href="#block"/><use x="61.0000000000" y="73.0000000000" xlink:href="#block"/><use x="73.0000000000" y="73.0000000000" xlink:href="#block"/><use x="79.0000000000" y="73.0000000000" xlink:href="#block"/><use x="85.0000000000" y="73.0000000000" xlink:href="#block"/><use x="115.0000000000" y="73.0000000000" xlink:href="#block"/><use x="127.0000000000" y="73.0000000000" xlink:href="#block"/><use x="139.0000000000" y="73.0000000000" xlink:href="#block"/><use x="145.0000000000" y="73.0000000000" xlink:href="#block"/><use x="151.0000000000" y="73.0000000000" xlink:href="#block"/><use x="157.0000000000" y="73.0000000000" xlink:href="#block"/><use x="163.0000000000" y="73.0000000000" xlink:href="#block"/><use x="169.0000000000" y="73.0000000000" xlink:href="#block"/><use x="175.0000000000" y="73.0000000000" xlink:href="#block"/><use x="187.0000000000" y="73.0000000000" xlink:href="#block"/><use x="199.0000000000" y="73.0000000000" xlink:href="#block"/><use x="211.0000000000" y="73.0000000000" xlink:href="#block"/><use x="217.0000000000" y="73.0000000000" xlink:href="#block"/><use x="229.0000000000" y="73.0000000000" xlink:href="#block"/><use x="241.0000000000" y="73.0000000000" xlink:href="#block"/><use x="247.0000000000" y="73.0000000000" xlink:href="#block"/><use x="253.0000000000" y="73.0000000000" xlink:href="#block"/><use x="259.0000000000" y="73.0000000000" xlink:href="#block"/><use x="277.0000000000" y="73.0000000000" xlink:href="#block"/><use x="283.0000000000" y="73.0000000000" xlink:href="#block"/><use x="289.0000000000" y="73.0000000000" xlink:href="#block"/><use x="25.0000000000" y="79.0000000000" xlink:href="#block"/><use x="31.0000000000" y="79.0000000000" xlink:href="#block"/><use x="43.0000000000" y="79.0000000000" xlink:href="#block"/><use x="49.0000000000" y="79.0000000000" xlink:href="#block"/><use x="55.0000000000" y="79.0000000000" xlink:href="#block"/><use x="85.0000000000" y="79.0000000000" xlink:href="#block"/><use x="91.0000000000" y="79.0000000000" xlink:href="#block"/><use x="97.0000000000" y="79.0000000000" xlink:href="#block"/><use x="103.0000000000" y="79.0000000000" xlink:href="#block"/><use x="109.0000000000" y="79.0000000000" xlink:href="#block"/><use x="133.0000000000" y="79.0000000000" xlink:href="#block"/><use x="139.0000000000" y="79.0000000000" xlink:href="#block"/><use x="163.0000000000" y="79.0000000000" xlink:href="#block"/><use x="169.0000000000" y="79.0000000000" xlink:href="#block"/><use x="181.0000000000" y="79.0000000000" xlink:href="#block"/><use x="187.0000000000" y="79.0000000000" xlink:href="#block"/><use x="193.0000000000" y="79.0000000000" xlink:href="#block"/><use x="199.0000000000" y="79.0000000000" xlink:href="#block"/><use x="205.0000000000" y="79.0000000000" xlink:href="#block"/><use x="211.0000000000" y="79.0000000000" xlink:href="#block"/><use x="217.0000000000" y="79.0000000000" xlink:href="#block"/><use x="223.0000000000" y="79.0000000000" xlink:href="#block"/><use x="229.0000000000" y="79.0000000000" xlink:href="#block"/><use x="235.0000000000" y="79.0000000000" xlink:href="#block"/><use x="241.0000000000" y="79.0000000000" xlink:href="#block"/><use x="247.0000000000" y="79.0000000000" xlink:href="#block"/><use x="253.0000000000" y="79.0000000000" xlink:href="#block"/><use x="259.0000000000" y="79.0000000000" xlink:href="#block"/><use x="265.0000000000" y="79.0000000000" xlink:href="#block"/><use x="271.0000000000" y="79.0000000000" xlink:href="#block"/><use x="277.0000000000" y="79.0000000000" xlink:href="#block"/><use x="283.0000000000" y="79.0000000000" xlink:href="#block"/><use x="49.0000000000" y="85.0000000000" xlink:href="#block"/><use x="61.0000000000" y="85.0000000000" xlink:href="#block"/><use x="67.0000000000" y="85.0000000000" xlink:href="#block"/><use x="85.0000000000" y="85.0000000000" xlink:href="#block"/><use x="97.0000000000" y="85.0000000000" xlink:href="#block"/><use x="103.0000000000" y="85.0000000000" xlink:href="#block"/><use x="115.0000000000" y="85.0000000000" xlink:href="#block"/><use x="121.0000000000" y="85.0000000000" xlink:href="#block"/><use x="145.0000000000" y="85.0000000000" xlink:href="#block"/><use x="151.0000000000" y="85.0000000000" xlink:href="#block"/><use x="157.0000000000" y="85.0000000000" xlink:href="#block"/><use x="163.0000000000" y="85.0000000000" xlink:href="#block"/><use x="169.0000000000" y="85.0000000000" xlink:href="#block"/><use x="181.0000000000" y="85.0000000000" xlink:href="#block"/><use x="193.0000000000" y="85.0000000000" xlink:href="#block"/><use x="205.0000000000" y="85.0000000000" xlink:href="#block"/><use x="223.0000000000" y="85.0000000000" xlink:href="#block"/><use x="229.0000000000" y="85.0000000000" xlink:href="#block"/><use x="235.0000000000" y="85.0000000000" xlink:href="#block"/><use x="247.0000000000" y="85.0000000000" xlink:href="#block"/><use x="253.0000000000" y="85.0000000000" xlink:href="#block"/><use x="25.0000000000" y="91.0000000000" xlink:href="#block"/><use x="43.0000000000" y="91.0000000000" xlink:href="#block"/><use x="55.0000000000" y="91.0000000000" xlink:href="#block"/><use x="91.0000000000" y="91.0000000000" xlink:href="#block"/><use x="97.0000000000" y="91.0000000000" xlink:href="#block"/><use x="127.0000000000" y="91.0000000000" xlink:href="#block"/><use x="133.0000000000" y="91.0000000000" xlink:href="#block"/><use x="151.0000000000" y="91.0000000000" xlink:href="#block"/><use x="163.0000000000" y="91.0000000000" xlink:href="#block"/><use x="169.0000000000" y="91.0000000000" xlink:href="#block"/><use x="199.0000000000" y="91.0000000000" xlink:href="#block"/><use x="205.0000000000" y="91.0000000000" xlink:href="#block"/><use x="211.0000000000" y="91.0000000000" xlink:href="#block"/><use x="241.0000000000" y="91.0000000000" xlink:href="#block"/><use x="247.0000000000" y="91.0000000000" xlink:href="#block"/><use x="265.0000000000" y="91.0000000000" xlink:href="#block"/><use x="271.0000000000" y="91.0000000000" xlink:href="#block"/><use x="289.0000000000" y="91.0000000000" xlink:href="#block"/><use x="25.0000000000" y="97.0000000000" xlink:href="#block"/><use x="37.0000000000" y="97.0000000000" xlink:href="#block"/><use x="43.0000000000" y="97.0000000000" xlink:href="#block"/><use x="49.0000000000" y="97.0000000000" xlink:href="#block"/><use x="55.0000000000" y="97.0000000000" xlink:href="#block"/><use x="61.0000000000" y="97.0000000000" xlink:href="#block"/><use x="97.0000000000" y="97.0000000000" xlink:href="#block"/><use x="109.0000000000" y="97.0000000000" xlink:href="#block"/><use x="139.0000000000" y="97.0000000000" xlink:href="#block"/><use x="151.0000000000" y="97.0000000000" xlink:href="#block"/><use x="163.0000000000" y="97.0000000000" xlink:href="#block"/><use x="181.0000000000" y="97.0000000000" xlink:href="#block"/><use x="187.0000000000" y="97.0000000000" xlink:href="#block"/><use x="193.0000000000" y="97.0000000000" xlink:href="#block"/><use x="199.0000000000" y="97.0000000000" xlink:href="#block"/><use x="211.0000000000" y="97.0000000000" xlink:href="#block"/><use x="223.0000000000" y="97.0000000000" xlink:href="#block"/><use x="229.0000000000" y="97.0000000000" xlink:href="#block"/><use x="235.0000000000" y="97.0000000000" xlink:href="#block"/><use x="241.0000000000" y="97.0000000000" xlink:href="#block"/><use x="247.0000000000" y="97.0000000000" xlink:href="#block"/><use x="253.0000000000" y="97.0000000000" xlink:href="#block"/><use x="265.0000000000" y="97.0000000000" xlink:href="#block"/><use x="271.0000000000" y="97.0000000000" xlink:href="#block"/><use x="277.0000000000" y="97.0000000000" xlink:href="#block"/><use x="283.0000000000" y="97.0000000000" xlink:href="#block"/><use x="49.0000000000" y="103.0000000000" xlink:href="#block"/><use x="85.0000000000" y="103.0000000000" xlink:href="#block"/><use x="91.0000000000" y="103.0000000000" xlink:href="#block"/><use x="97.0000000000" y="103.0000000000" xlink:href="#block"/><use x="103.0000000000" y="103.0000000000" xlink:href="#block"/><use x="127.0000000000" y="103.0000000000" xlink:href="#block"/><use x="139.0000000000" y="103.0000000000" xlink:href="#block"/><use x="145.0000000000" y="103.0000000000" xlink:href="#block"/><use x="151.0000000000" y="103.0000000000" xlink:href="#block"/><use x="157.0000000000" y="103.0000000000" xlink:href="#block"/><use x="169.0000000000" y="103.0000000000" xlink:href="#block"/><use x="187.0000000000" y="103.0000000000" xlink:href="#block"/><use x="199.0000000000" y="103.0000000000" xlink:href="#block"/><use x="205.0000000000" y="103.0000000000" xlink:href="#block"/><use x="217.0000000000" y="103.0000000000" xlink:href="#block"/><use x="235.0000000000" y="103.0000000000" xlink:href="#block"/><use x="241.0000000000" y="103.0000000000" xlink:href="#block"/><use x="247.0000000000" y="103.0000000000" xlink:href="#block"/><use x="259.0000000000" y="103.0000000000" xlink:href="#block"/><use x="265.0000000000" y="103.0000000000" xlink:href="#block"/><use x="277.0000000000" y="103.0000000000" xlink:href="#block"/><use x="25.0000000000" y="109.0000000000" xlink:href="#block"/><use x="43.0000000000" y="109.0000000000" xlink:href="#block"/><use x="55.0000000000" y="109.0000000000" xlink:href="#block"/><use x="61.0000000000" y="109.0000000000" xlink:href="#block"/><use x="79.0000000000" y="109.0000000000" xlink:href="#block"/><use x="85.0000000000" y="109.0000000000" xlink:href="#block"/><use x="97.0000000000" y="109.0000000000" xlink:href="#block"/><use x="103.0000000000" y="109.0000000000" xlink:href="#block"/><use x="109.0000000000" y="109.0000000000" xlink:href="#block"/><use x="121.0000000000" y="109.0000000000" xlink:href="#block"/><use x="133.0000000000" y="109.0000000000" xlink:href="#block"/><use x="139.0000000000" y="109.0000000000" xlink:href="#block"/><use x="151.0000000000" y="109.0000000000" xlink:href="#block"/><use x="157.0000000000" y="109.0000000000" xlink:href="#block"/><use x="181.0000000000" y="109.0000000000" xlink:href="#block"/><use x="193.0000000000" y="109.0000000000" xlink:href="#block"/><use x="199.0000000000" y="109.0000000000" xlink:href="#block"/><use x="205.0000000000" y="109.0000000000" xlink:href="#block"/><use x="211.0000000000" y="109.0000000000" xlink:href="#block"/><use x="229.0000000000" y="109.0000000000" xlink:href="#block"/><use x="235.0000000000" y="109.0000000000" xlink:href="#block"/><use x="259.0000000000" y="109.0000000000" xlink:href="#block"/><use x="271.0000000000" y="109.0000000000" xlink:href="#block"/><use x="283.0000000000" y="109.0000000000" xlink:href="#block"/><use x="31.0000000000" y="115.0000000000" xlink:href="#block"/><use x="49.0000000000" y="115.0000000000" xlink:href="#block"/><use x="67.0000000000" y="115.0000000000" xlink:href="#block"/><use x="73.0000000000" y="115.0000000000" xlink:href="#block"/><use x="103.0000000000" y="115.0000000000" xlink:href="#block"/><use x="109.0000000000" y="115.0000000000" xlink:href="#block"/><use x="121.0000000000" y="115.0000000000" xlink:href="#block"/><use x="133.0000000000" y="115.0000000000" xlink:href="#block"/><use x="139.0000000000" y="115.0000000000" xlink:href="#block"/><use x="151.0000000000" y="115.0000000000" xlink:href="#block"/><use x="169.0000000000" y="115.0000000000" xlink:href="#block"/><use x="181.0000000000" y="115.0000000000" xlink:href="#block"/><use x="187.0000000000" y="115.0000000000" xlink:href="#block"/><use x="193.0000000000" y="115.0000000000" xlink:href="#block"/><use x="205.0000000000" y="115.0000000000" xlink:href="#block"/><use x="211.0000000000" y="115.0000000000" xlink:href="#block"/><use x="217.0000000000" y="115.0000000000" xlink:href="#block"/><use x="235.0000000000" y="115.0000000000" xlink:href="#block"/><use x="241.0000000000" y="115.0000000000" xlink:href="#block"/><use x="247.0000000000" y="115.0000000000" xlink:href="#block"/><use x="265.0000000000" y="115.0000000000" xlink:href="#block"/><use x="271.0000000000" y="115.0000000000" xlink:href="#block"/><use x="289.0000000000" y="115.0000000000" xlink:href="#block"/><use x="25.0000000000" y="121.0000000000" xlink:href="#block"/><use x="43.0000000000" y="121.0000000000" xlink:href="#block"/><use x="49.0000000000" y="121.0000000000" xlink:href="#block"/><use x="61.0000000000" y="121.0000000000" xlink:href="#block"/><use x="73.0000000000" y="121.0000000000" xlink:href="#block"/><use x="79.0000000000" y="121.0000000000" xlink:href="#block"/><use x="91.0000000000" y="121.0000000000" xlink:href="#block"/><use x="103.0000000000" y="121.0000000000" xlink:href="#block"/><use x="115.0000000000" y="121.0000000000" xlink:href="#block"/><use x="121.0000000000" y="121.0000000000" xlink:href="#block"/><use x="157.0000000000" y="121.0000000000" xlink:href="#block"/><use x="169.0000000000" y="121.0000000000" xlink:href="#block"/><use x="175.0000000000" y="121.0000000000" xlink:href="#block"/><use x="181.0000000000" y="121.0000000000" xlink:href="#block"/><use x="187.0000000000" y="121.0000000000" xlink:href="#block"/><use x="205.0000000000" y="121.0000000000" xlink:href="#block"/><use x="223.0000000000" y="121.0000000000" xlink:href="#block"/><use x="229.0000000000" y="121.0000000000" xlink:href="#block"/><use x="235.0000000000" y="121.0000000000" xlink:href="#block"/><use x="241.0000000000" y="121.0000000000" xlink:href="#block"/><use x="253.0000000000" y="121.0000000000" xlink:href="#block"/><use x="259.0000000000" y="121.0000000000" xlink:href="#block"/><use x="271.0000000000" y="121.0000000000" xlink:href="#block"/><use x="277.0000000000" y="121.0000000000" xlink:href="#block"/><use x="283.0000000000" y="121.0000000000" xlink:href="#block"/><use x="31.0000000000" y="127.0000000000" xlink:href="#block"/><use x="37.0000000000" y="127.0000000000" xlink:href="#block"/><use x="43.0000000000" y="127.0000000000" xlink:href="#block"/><use x="55.0000000000" y="127.0000000000" xlink:href="#block"/><use x="79.0000000000" y="127.0000000000" xlink:href="#block"/><use x="133.0000000000" y="127.0000000000" xlink:href="#block"/><use x="139.0000000000" y="127.0000000000" xlink:href="#block"/><use x="145.0000000000" y="127.0000000000" xlink:href="#block"/><use x="151.0000000000" y="127.0000000000" xlink:href="#block"/><use x="163.0000000000" y="127.0000000000" xlink:href="#block"/><use x="169.0000000000" y="127.0000000000" xlink:href="#block"/><use x="187.0000000000" y="127.0000000000" xlink:href="#block"/><use x="205.0000000000" y="127.0000000000" xlink:href="#block"/><use x="217.0000000000" y="127.0000000000" xlink:href="#block"/><use x="223.0000000000" y="127.0000000000" xlink:href="#block"/><use x="229.0000000000" y="127.0000000000" xlink:href="#block"/><use x="253.0000000000" y="127.0000000000" xlink:href="#block"/><use x="259.0000000000" y="127.0000000000" xlink:href="#block"/><use x="265.0000000000" y="127.0000000000" xlink:href="#block"/><use x="271.0000000000" y="127.0000000000" xlink:href="#block"/><use x="277.0000000000" y="127.0000000000" xlink:href="#block"/><use x="289.0000000000" y="127.0000000000" xlink:href="#block"/><use x="31.0000000000" y="133.0000000000" xlink:href="#block"/><use x="49.0000000000" y="133.0000000000" xlink:href="#block"/><use x="55.0000000000" y="133.0000000000" xlink:href="#block"/><use x="61.0000000000" y="133.0000000000" xlink:href="#block"/><use x="67.0000000000" y="133.0000000000" xlink:href="#block"/><use x="73.0000000000" y="133.0000000000" xlink:href="#block"/><use x="79.0000000000" y="133.0000000000" xlink:href="#block"/><use x="91.0000000000" y="133.0000000000" xlink:href="#block"/><use x="97.0000000000" y="133.0000000000" xlink:href="#block"/><use x="103.0000000000" y="133.0000000000" xlink:href="#block"/><use x="127.0000000000" y="133.0000000000" xlink:href="#block"/><use x="133.0000000000" y="133.0000000000" xlink:href="#block"/><use x="145.0000000000" y="133.0000000000" xlink:href="#block"/><use x="157.0000000000" y="133.0000000000" xlink:href="#block"/><use x="163.0000000000" y="133.0000000000" xlink:href="#block"/><use x="169.0000000000" y="133.0000000000" xlink:href="#block"/><use x="175.0000000000" y="133.0000000000" xlink:href="#block"/><use x="181.0000000000" y="133.0000000000" xlink:href="#block"/><use x="187.0000000000" y="133.0000000000" xlink:href="#block"/><use x="193.0000000000" y="133.0000000000" xlink:href="#block"/><use x="205.0000000000" y="133.0000000000" xlink:href="#block"/><use x="211.0000000000" y="133.0000000000" xlink:href="#block"/><use x="229.0000000000" y="133.0000000000" xlink:href="#block"/><use x="283.0000000000" y="133.0000000000" xlink:href="#block"/><use x="289.0000000000" y="133.0000000000" xlink:href="#block"/><use x="25.0000000000" y="139.0000000000" xlink:href="#block"/><use x="31.0000000000" y="139.0000000000" xlink:href="#block"/><use x="37.0000000000" y="139.0000000000" xlink:href="#block"/><use x="49.0000000000" y="139.0000000000" xlink:href="#block"/><use x="73.0000000000" y="139.0000000000" xlink:href="#block"/><use x="97.0000000000" y="139.0000000000" xlink:href="#block"/><use x="103.0000000000" y="139.0000000000" xlink:href="#block"/><use x="109.0000000000" y="139.0000000000" xlink:href="#block"/><use x="121.0000000000" y="139.0000000000" xlink:href="#block"/><use x="133.0000000000" y="139.0000000000" xlink:href="#block"/><use x="157.0000000000" y="139.0000000000" xlink:href="#block"/><use x="163.0000000000" y="139.0000000000" xlink:href="#block"/><use x="181.0000000000" y="139.0000000000" xlink:href="#block"/><use x="193.0000000000" y="139.0000000000" xlink:href="#block"/><use x="199.0000000000" y="139.0000000000" xlink:href="#block"/><use x="211.0000000000" y="139.0000000000" xlink:href="#block"/><use x="223.0000000000" y="139.0000000000" xlink:href="#block"/><use x="235.0000000000" y="139.0000000000" xlink:href="#block"/><use x="241.0000000000" y="139.0000000000" xlink:href="#block"/><use x="247.0000000000" y="139.0000000000" xlink:href="#block"/><use x="265.0000000000" y="139.0000000000" xlink:href="#block"/><use x="289.0000000000" y="139.0000000000" xlink:href="#block"/><use x="25.0000000000" y="145.0000000000" xlink:href="#block"/><use x="31.0000000000" y="145.0000000000" xlink:href="#block"/><use x="37.0000000000" y="145.0000000000" xlink:href="#block"/><use x="49.0000000000" y="145.0000000000" xlink:href="#block"/><use x="55.0000000000" y="145.0000000000" xlink:href="#block"/><use x="61.0000000000" y="145.0000000000" xlink:href="#block"/><use x="67.0000000000" y="145.0000000000" xlink:href="#block"/><use x="73.0000000000" y="145.0000000000" xlink:href="#block"/><use x="79.0000000000" y="145.0000000000" xlink:href="#block"/><use x="85.0000000000" y="145.0000000000" xlink:href="#block"/><use x="91.0000000000" y="145.0000000000" xlink:href="#block"/><use x="109.0000000000" y="145.0000000000" xlink:href="#block"/><use x="139.0000000000" y="145.0000000000" xlink:href="#block"/><use x="145.0000000000" y="145.0000000000" xlink:href="#block"/><use x="151.0000000000" y="145.0000000000" xlink:href="#block"/><use x="157.0000000000" y="145.0000000000" xlink:href="#block"/><use x="163.0000000000" y="145.0000000000" xlink:href="#block"/><use x="169.0000000000" y="145.0000000000" xlink:href="#block"/><use x="175.0000000000" y="145.0000000000" xlink:href="#block"/><use x="229.0000000000" y="145.0000000000" xlink:href="#block"/><use x="235.0000000000" y="145.0000000000" xlink:href="#block"/><use x="241.0000000000" y="145.0000000000" xlink:href="#block"/><use x="247.0000000000" y="145.0000000000" xlink:href="#block"/><use x="253.0000000000" y="145.0000000000" xlink:href="#block"/><use x="259.0000000000" y="145.0000000000" xlink:href="#block"/><use x="265.0000000000" y="145.0000000000" xlink:href="#block"/><use x="277.0000000000" y="145.0000000000" xlink:href="#block"/><use x="25.0000000000" y="151.0000000000" xlink:href="#block"/><use x="31.0000000000" y="151.0000000000" xlink:href="#block"/><use x="49.0000000000" y="151.0000000000" xlink:href="#block"/><use x="73.0000000000" y="151.0000000000" xlink:href="#block"/><use x="79.0000000000" y="151.0000000000" xlink:href="#block"/><use x="85.0000000000" y="151.0000000000" xlink:href="#block"/><use x="91.0000000000" y="151.0000000000" xlink:href="#block"/><use x="97.0000000000" y="151.0000000000" xlink:href="#block"/><use x="121.0000000000" y="151.0000000000" xlink:href="#block"/><use x="133.0000000000" y="151.0000000000" xlink:href="#block"/><use x="139.0000000000" y="151.0000000000" xlink:href="#block"/><use x="145.0000000000" y="151.0000000000" xlink:href="#block"/><use x="169.0000000000" y="151.0000000000" xlink:href="#block"/><use x="175.0000000000" y="151.0000000000" xlink:href="#block"/><use x="199.0000000000" y="151.0000000000" xlink:href="#block"/><use x="217.0000000000" y="151.0000000000" xlink:href="#block"/><use x="223.0000000000" y="151.0000000000" xlink:href="#block"/><use x="229.0000000000" y="151.0000000000" xlink:href="#block"/><use x="235.0000000000" y="151.0000000000" xlink:href="#block"/><use x="241.0000000000" y="151.0000000000" xlink:href="#block"/><use x="265.0000000000" y="151.0000000000" xlink:href="#block"/><use x="271.0000000000" y="151.0000000000" xlink:href="#block"/><use x="277.0000000000" y="151.0000000000" xlink:href="#block"/><use x="25.0000000000" y="157.0000000000" xlink:href="#block"/><use x="31.0000000000" y="157.0000000000" xlink:href="#block"/><use x="49.0000000000" y="157.0000000000" xlink:href="#block"/><use x="61.0000000000" y="157.0000000000" xlink:href="#block"/><use x="73.0000000000" y="157.0000000000" xlink:href="#block"/><use x="79.0000000000" y="157.0000000000" xlink:href="#block"/><use x="85.0000000000" y="157.0000000000" xlink:href="#block"/><use x="109.0000000000" y="157.0000000000" xlink:href="#block"/><use x="115.0000000000" y="157.0000000000" xlink:href="#block"/><use x="121.0000000000" y="157.0000000000" xlink:href="#block"/><use x="139.0000000000" y="157.0000000000" xlink:href="#block"/><use x="145.0000000000" y="157.0000000000" xlink:href="#block"/><use x="157.0000000000" y="157.0000000000" xlink:href="#block"/><use x="169.0000000000" y="157.0000000000" xlink:href="#block"/><use x="205.0000000000" y="157.0000000000" xlink:href="#block"/><use x="211.0000000000" y="157.0000000000" xlink:href="#block"/><use x="223.0000000000" y="157.0000000000" xlink:href="#block"/><use x="241.0000000000" y="157.0000000000" xlink:href="#block"/><use x="253.0000000000" y="157.0000000000" xlink:href="#block"/><use x="265.0000000000" y="157.0000000000" xlink:href="#block"/><use x="271.0000000000" y="157.0000000000" xlink:href="#block"/><use x="283.0000000000" y="157.0000000000" xlink:href="#block"/><use x="37.0000000000" y="163.0000000000" xlink:href="#block"/><use x="43.0000000000" y="163.0000000000" xlink:href="#block"/><use x="49.0000000000" y="163.0000000000" xlink:href="#block"/><use x="73.0000000000" y="163.0000000000" xlink:href="#block"/><use x="79.0000000000" y="163.0000000000" xlink:href="#block"/><use x="85.0000000000" y="163.0000000000" xlink:href="#block"/><use x="91.0000000000" y="163.0000000000" xlink:href="#block"/><use x="103.0000000000" y="163.0000000000" xlink:href="#block"/><use x="115.0000000000" y="163.0000000000" xlink:href="#block"/><use x="127.0000000000" y="163.0000000000" xlink:href="#block"/><use x="139.0000000000" y="163.0000000000" xlink:href="#block"/><use x="145.0000000000" y="163.0000000000" xlink:href="#block"/><use x="169.0000000000" y="163.0000000000" xlink:href="#block"/><use x="199.0000000000" y="163.0000000000" xlink:href="#block"/><use x="205.0000000000" y="163.0000000000" xlink:href="#block"/><use x="211.0000000000" y="163.0000000000" xlink:href="#block"/><use x="241.0000000000" y="163.0000000000" xlink:href="#block"/><use x="265.0000000000" y="163.0000000000" xlink:href="#block"/><use x="277.0000000000" y="163.0000000000" xlink:href="#block"/><use x="289.0000000000" y="163.0000000000" xlink:href="#block"/><use x="49.0000000000" y="169.0000000000" xlink:href="#block"/><use x="55.0000000000" y="169.0000000000" xlink:href="#block"/><use x="61.0000000000" y="169.0000000000" xlink:href="#block"/><use x="67.0000000000" y="169.0000000000" xlink:href="#block"/><use x="73.0000000000" y="169.0000000000" xlink:href="#block"/><use x="79.0000000000" y="169.0000000000" xlink:href="#block"/><use x="91.0000000000" y="169.0000000000" xlink:href="#block"/><use x="97.0000000000" y="169.0000000000" xlink:href="#block"/><use x="121.0000000000" y="169.0000000000" xlink:href="#block"/><use x="145.0000000000" y="169.0000000000" xlink:href="#block"/><use x="151.0000000000" y="169.0000000000" xlink:href="#block"/><use x="157.0000000000" y="169.0000000000" xlink:href="#block"/><use x="163.0000000000" y="169.0000000000" xlink:href="#block"/><use x="169.0000000000" y="169.0000000000" xlink:href="#block"/><use x="175.0000000000" y="169.0000000000" xlink:href="#block"/><use x="181.0000000000" y="169.0000000000" xlink:href="#block"/><use x="193.0000000000" y="169.0000000000" xlink:href="#block"/><use x="199.0000000000" y="169.0000000000" xlink:href="#block"/><use x="205.0000000000" y="169.0000000000" xlink:href="#block"/><use x="223.0000000000" y="169.0000000000" xlink:href="#block"/><use x="229.0000000000" y="169.0000000000" xlink:href="#block"/><use x="235.0000000000" y="169.0000000000" xlink:href="#block"/><use x="241.0000000000" y="169.0000000000" xlink:href="#block"/><use x="247.0000000000" y="169.0000000000" xlink:href="#block"/><use x="253.0000000000" y="169.0000000000" xlink:href="#block"/><use x="259.0000000000" y="169.0000000000" xlink:href="#block"/><use x="265.0000000000" y="169.0000000000" xlink:href="#block"/><use x="271.0000000000" y="169.0000000000" xlink:href="#block"/><use x="289.0000000000" y="169.0000000000" xlink:href="#block"/><use x="25.0000000000" y="175.0000000000" xlink:href="#block"/><use x="37.0000000000" y="175.0000000000" xlink:href="#block"/><use x="49.0000000000" y="175.0000000000" xlink:href="#block"/><use x="73.0000000000" y="175.0000000000" xlink:href="#block"/><use x="85.0000000000" y="175.0000000000" xlink:href="#block"/><use x="91.0000000000" y="175.0000000000" xlink:href="#block"/><use x="103.0000000000" y="175.0000000000" xlink:href="#block"/><use x="109.0000000000" y="175.0000000000" xlink:href="#block"/><use x="121.0000000000" y="175.0000000000" xlink:href="#block"/><use x="127.0000000000" y="175.0000000000" xlink:href="#block"/><use x="133.0000000000" y="175.0000000000" xlink:href="#block"/><use x="145.0000000000" y="175.0000000000" xlink:href="#block"/><use x="169.0000000000" y="175.0000000000" xlink:href="#block"/><use x="187.0000000000" y="175.0000000000" xlink:href="#block"/><use x="199.0000000000" y="175.0000000000" xlink:href="#block"/><use x="211.0000000000" y="175.0000000000" xlink:href="#block"/><use x="217.0000000000" y="175.0000000000" xlink:href="#block"/><use x="235.0000000000" y="175.0000000000" xlink:href="#block"/><use x="253.0000000000" y="175.0000000000" xlink:href="#block"/><use x="271.0000000000" y="175.0000000000" xlink:href="#block"/><use x="277.0000000000" y="175.0000000000" xlink:href="#block"/><use x="25.0000000000" y="181.0000000000" xlink:href="#block"/><use x="37.0000000000" y="181.0000000000" xlink:href="#block"/><use x="55.0000000000" y="181.0000000000" xlink:href="#block"/><use x="61.0000000000" y="181.0000000000" xlink:href="#block"/><use x="67.0000000000" y="181.0000000000" xlink:href="#block"/><use x="97.0000000000" y="181.0000000000" xlink:href="#block"/><use x="103.0000000000" y="181.0000000000" xlink:href="#block"/><use x="121.0000000000" y="181.0000000000" xlink:href="#block"/><use x="133.0000000000" y="181.0000000000" xlink:href="#block"/><use x="139.0000000000" y="181.0000000000" xlink:href="#block"/><use x="145.0000000000" y="181.0000000000" xlink:href="#block"/><use x="151.0000000000" y="181.0000000000" xlink:href="#block"/><use x="175.0000000000" y="181.0000000000" xlink:href="#block"/><use x="199.0000000000" y="181.0000000000" xlink:href="#block"/><use x="205.0000000000" y="181.0000000000" xlink:href="#block"/><use x="211.0000000000" y="181.0000000000" xlink:href="#block"/><use x="241.0000000000" y="181.0000000000" xlink:href="#block"/><use x="247.0000000000" y="181.0000000000" xlink:href="#block"/><use x="253.0000000000" y="181.0000000000" xlink:href="#block"/><use x="259.0000000000" y="181.0000000000" xlink:href="#block"/><use x="265.0000000000" y="181.0000000000" xlink:href="#block"/><use x="271.0000000000" y="181.0000000000" xlink:href="#block"/><use x="283.0000000000" y="181.0000000000" xlink:href="#block"/><use x="37.0000000000" y="187.0000000000" xlink:href="#block"/><use x="49.0000000000" y="187.0000000000" xlink:href="#block"/><use x="73.0000000000" y="187.0000000000" xlink:href="#block"/><use x="79.0000000000" y="187.0000000000" xlink:href="#block"/><use x="109.0000000000" y="187.0000000000" xlink:href="#block"/><use x="115.0000000000" y="187.0000000000" xlink:href="#block"/><use x="139.0000000000" y="187.0000000000" xlink:href="#block"/><use x="145.0000000000" y="187.0000000000" xlink:href="#block"/><use x="151.0000000000" y="187.0000000000" xlink:href="#block"/><use x="169.0000000000" y="187.0000000000" xlink:href="#block"/><use x="187.0000000000" y="187.0000000000" xlink:href="#block"/><use x="223.0000000000" y="187.0000000000" xlink:href="#block"/><use x="235.0000000000" y="187.0000000000" xlink:href="#block"/><use x="241.0000000000" y="187.0000000000" xlink:href="#block"/><use x="247.0000000000" y="187.0000000000" xlink:href="#block"/><use x="253.0000000000" y="187.0000000000" xlink:href="#block"/><use x="277.0000000000" y="187.0000000000" xlink:href="#block"/><use x="283.0000000000" y="187.0000000000" xlink:href="#block"/><use x="289.0000000000" y="187.0000000000" xlink:href="#block"/><use x="25.0000000000" y="193.0000000000" xlink:href="#block"/><use x="31.0000000000" y="193.0000000000" xlink:href="#block"/><use x="37.0000000000" y="193.0000000000" xlink:href="#block"/><use x="43.0000000000" y="193.0000000000" xlink:href="#block"/><use x="49.0000000000" y="193.0000000000" xlink:href="#block"/><use x="61.0000000000" y="193.0000000000" xlink:href="#block"/><use x="73.0000000000" y="193.0000000000" xlink:href="#block"/><use x="79.0000000000" y="193.0000000000" xlink:href="#block"/><use x="85.0000000000" y="193.0000000000" xlink:href="#block"/><use x="109.0000000000" y="193.0000000000" xlink:href="#block"/><use x="127.0000000000" y="193.0000000000" xlink:href="#block"/><use x="139.0000000000" y="193.0000000000" xlink:href="#block"/><use x="145.0000000000" y="193.0000000000" xlink:href="#block"/><use x="157.0000000000" y="193.0000000000" xlink:href="#block"/><use x="169.0000000000" y="193.0000000000" xlink:href="#block"/><use x="181.0000000000" y="193.0000000000" xlink:href="#block"/><use x="187.0000000000" y="193.0000000000" xlink:href="#block"/><use x="193.0000000000" y="193.0000000000" xlink:href="#block"/><use x="205.0000000000" y="193.0000000000" xlink:href="#block"/><use x="211.0000000000" y="193.0000000000" xlink:href="#block"/><use x="223.0000000000" y="193.0000000000" xlink:href="#block"/><use x="229.0000000000" y="193.0000000000" xlink:href="#block"/><use x="259.0000000000" y="193.0000000000" xlink:href="#block"/><use x="271.0000000000" y="193.0000000000" xlink:href="#block"/><use x="283.0000000000" y="193.0000000000" xlink:href="#block"/><use x="49.0000000000" y="199.0000000000" xlink:href="#block"/><use x="73.0000000000" y="199.0000000000" xlink:href="#block"/><use x="85.0000000000" y="199.0000000000" xlink:href="#block"/><use x="109.0000000000" y="199.0000000000" xlink:href="#block"/><use x="115.0000000000" y="199.0000000000" xlink:href="#block"/><use x="139.0000000000" y="199.0000000000" xlink:href="#block"/><use x="145.0000000000" y="199.0000000000" xlink:href="#block"/><use x="151.0000000000" y="199.0000000000" xlink:href="#block"/><use x="175.0000000000" y="199.0000000000" xlink:href="#block"/><use x="181.0000000000" y="199.0000000000" xlink:href="#block"/><use x="187.0000000000" y="199.0000000000" xlink:href="#block"/><use x="199.0000000000" y="199.0000000000" xlink:href="#block"/><use x="205.0000000000" y="199.0000000000" xlink:href="#block"/><use x="211.0000000000" y="199.0000000000" xlink:href="#block"/><use x="217.0000000000" y="199.0000000000" xlink:href="#block"/><use x="229.0000000000" y="199.0000000000" xlink:href="#block"/><use x="235.0000000000" y="199.0000000000" xlink:href="#block"/><use x="247.0000000000" y="199.0000000000" xlink:href="#block"/><use x="253.0000000000" y="199.0000000000" xlink:href="#block"/><use x="271.0000000000" y="199.0000000000" xlink:href="#block"/><use x="277.0000000000" y="199.0000000000" xlink:href="#block"/><use x="25.0000000000" y="205.0000000000" xlink:href="#block"/><use x="31.0000000000" y="205.0000000000" xlink:href="#block"/><use x="37.0000000000" y="205.0000000000" xlink:href="#block"/><use x="55.0000000000" y="205.0000000000" xlink:href="#block"/><use x="61.0000000000" y="205.0000000000" xlink:href="#block"/><use x="67.0000000000" y="205.0000000000" xlink:href="#block"/><use x="79.0000000000" y="205.0000000000" xlink:href="#block"/><use x="91.0000000000" y="205.0000000000" xlink:href="#block"/><use x="109.0000000000" y="205.0000000000" xlink:href="#block"/><use x="115.0000000000" y="205.0000000000" xlink:href="#block"/><use x="127.0000000000" y="205.0000000000" xlink:href="#block"/><use x="139.0000000000" y="205.0000000000" xlink:href="#block"/><use x="145.0000000000" y="205.0000000000" xlink:href="#block"/><use x="151.0000000000" y="205.0000000000" xlink:href="#block"/><use x="157.0000000000" y="205.0000000000" xlink:href="#block"/><use x="163.0000000000" y="205.0000000000" xlink:href="#block"/><use x="175.0000000000" y="205.0000000000" xlink:href="#block"/><use x="187.0000000000" y="205.0000000000" xlink:href="#block"/><use x="193.0000000000" y="205.0000000000" xlink:href="#block"/><use x="229.0000000000" y="205.0000000000" xlink:href="#block"/><use x="241.0000000000" y="205.0000000000" xlink:href="#block"/><use x="247.0000000000" y="205.0000000000" xlink:href="#block"/><use x="265.0000000000" y="205.0000000000" xlink:href="#block"/><use x="271.0000000000" y="205.0000000000" xlink:href="#block"/><use x="277.0000000000" y="205.0000000000" xlink:href="#block"/><use x="25.0000000000" y="211.0000000000" xlink:href="#block"/><use x="31.0000000000" y="211.0000000000" xlink:href="#block"/><use x="49.0000000000" y="211.0000000000" xlink:href="#block"/><use x="55.0000000000" y="211.0000000000" xlink:href="#block"/><use x="73.0000000000" y="211.0000000000" xlink:href="#block"/><use x="85.0000000000" y="211.0000000000" xlink:href="#block"/><use x="109.0000000000" y="211.0000000000" xlink:href="#block"/><use x="115.0000000000" y="211.0000000000" xlink:href="#block"/><use x="121.0000000000" y="211.0000000000" xlink:href="#block"/><use x="133.0000000000" y="211.0000000000" xlink:href="#block"/><use x="139.0000000000" y="211.0000000000" xlink:href="#block"/><use x="145.0000000000" y="211.0000000000" xlink:href="#block"/><use x="151.0000000000" y="211.0000000000" xlink:href="#block"/><use x="187.0000000000" y="211.0000000000" xlink:href="#block"/><use x="199.0000000000" y="211.0000000000" xlink:href="#block"/><use x="205.0000000000" y="211.0000000000" xlink:href="#block"/><use x="211.0000000000" y="211.0000000000" xlink:href="#block"/><use x="217.0000000000" y="211.0000000000" xlink:href="#block"/><use x="235.0000000000" y="211.0000000000" xlink:href="#block"/><use x="247.0000000000" y="211.0000000000" xlink:href="#block"/><use x="271.0000000000" y="211.0000000000" xlink:href="#block"/><use x="283.0000000000" y="211.0000000000" xlink:href="#block"/><use x="289.0000000000" y="211.0000000000" xlink:href="#block"/><use x="31.0000000000" y="217.0000000000" xlink:href="#block"/><use x="37.0000000000" y="217.0000000000" xlink:href="#block"/><use x="49.0000000000" y="217.0000000000" xlink:href="#block"/><use x="61.0000000000" y="217.0000000000" xlink:href="#block"/><use x="85.0000000000" y="217.0000000000" xlink:href="#block"/><use x="109.0000000000" y="217.0000000000" xlink:href="#block"/><use x="145.0000000000" y="217.0000000000" xlink:href="#block"/><use x="151.0000000000" y="217.0000000000" xlink:href="#block"/><use x="163.0000000000" y="217.0000000000" xlink:href="#block"/><use x="169.0000000000" y="217.0000000000" xlink:href="#block"/><use x="187.0000000000" y="217.0000000000" xlink:href="#block"/><use x="193.0000000000" y="217.0000000000" xlink:href="#block"/><use x="199.0000000000" y="217.0000000000" xlink:href="#block"/><use x="211.0000000000" y="217.0000000000" xlink:href="#block"/><use x="223.0000000000" y="217.0000000000" xlink:href="#block"/><use x="229.0000000000" y="217.0000000000" xlink:href="#block"/><use x="247.0000000000" y="217.0000000000" xlink:href="#block"/><use x="265.0000000000" y="217.0000000000" xlink:href="#block"/><use x="271.0000000000" y="217.0000000000" xlink:href="#block"/><use x="283.0000000000" y="217.0000000000" xlink:href="#block"/><use x="25.0000000000" y="223.0000000000" xlink:href="#block"/><use x="49.0000000000" y="223.0000000000" xlink:href="#block"/><use x="55.0000000000" y="223.0000000000" xlink:href="#block"/><use x="73.0000000000" y="223.0000000000" xlink:href="#block"/><use x="79.0000000000" y="223.0000000000" xlink:href="#block"/><use x="85.0000000000" y="223.0000000000" xlink:href="#block"/><use x="97.0000000000" y="223.0000000000" xlink:href="#block"/><use x="109.0000000000" y="223.0000000000" xlink:href="#block"/><use x="115.0000000000" y="223.0000000000" xlink:href="#block"/><use x="127.0000000000" y="223.0000000000" xlink:href="#block"/><use x="139.0000000000" y="223.0000000000" xlink:href="#block"/><use x="145.0000000000" y="223.0000000000" xlink:href="#block"/><use x="151.0000000000" y="223.0000000000" xlink:href="#block"/><use x="157.0000000000" y="223.0000000000" xlink:href="#block"/><use x="169.0000000000" y="223.0000000000" xlink:href="#block"/><use x="175.0000000000" y="223.0000000000" xlink:href="#block"/><use x="187.0000000000" y="223.0000000000" xlink:href="#block"/><use x="199.0000000000" y="223.0000000000" xlink:href="#block"/><use x="217.0000000000" y="223.0000000000" xlink:href="#block"/><use x="223.0000000000" y="223.0000000000" xlink:href="#block"/><use x="229.0000000000" y="223.0000000000" xlink:href="#block"/><use x="235.0000000000" y="223.0000000000" xlink:href="#block"/><use x="241.0000000000" y="223.0000000000" xlink:href="#block"/><use x="247.0000000000" y="223.0000000000" xlink:href="#block"/><use x="253.0000000000" y="223.0000000000" xlink:href="#block"/><use x="259.0000000000" y="223.0000000000" xlink:href="#block"/><use x="271.0000000000" y="223.0000000000" xlink:href="#block"/><use x="277.0000000000" y="223.0000000000" xlink:href="#block"/><use x="289.0000000000" y="223.0000000000" xlink:href="#block"/><use x="49.0000000000" y="229.0000000000" xlink:href="#block"/><use x="61.0000000000" y="229.0000000000" xlink:href="#block"/><use x="73.0000000000" y="229.0000000000" xlink:href="#block"/><use x="91.0000000000" y="229.0000000000" xlink:href="#block"/><use x="97.0000000000" y="229.0000000000" xlink:href="#block"/><use x="109.0000000000" y="229.0000000000" xlink:href="#block"/><use x="115.0000000000" y="229.0000000000" xlink:href="#block"/><use x="127.0000000000" y="229.0000000000" xlink:href="#block"/><use x="145.0000000000" y="229.0000000000" xlink:href="#block"/><use x="151.0000000000" y="229.0000000000" xlink:href="#block"/><use x="157.0000000000" y="229.0000000000" xlink:href="#block"/><use x="163.0000000000" y="229.0000000000" xlink:href="#block"/><use x="169.0000000000" y="229.0000000000" xlink:href="#block"/><use x="193.0000000000" y="229.0000000000" xlink:href="#block"/><use x="205.0000000000" y="229.0000000000" xlink:href="#block"/><use x="211.0000000000" y="229.0000000000" xlink:href="#block"/><use x="223.0000000000" y="229.0000000000" xlink:href="#block"/><use x="241.0000000000" y="229.0000000000" xlink:href="#block"/><use x="247.0000000000" y="229.0000000000" xlink:href="#block"/><use x="265.0000000000" y="229.0000000000" xlink:href="#block"/><use x="31.0000000000" y="235.0000000000" xlink:href="#block"/><use x="37.0000000000" y="235.0000000000" xlink:href="#block"/><use x="43.0000000000" y="235.0000000000" xlink:href="#block"/><use x="49.0000000000" y="235.0000000000" xlink:href="#block"/><use x="67.0000000000" y="235.0000000000" xlink:href="#block"/><use x="79.0000000000" y="235.0000000000" xlink:href="#block"/><use x="85.0000000000" y="235.0000000000" xlink:href="#block"/><use x="97.0000000000" y="235.0000000000" xlink:href="#block"/><use x="115.0000000000" y="235.0000000000" xlink:href="#block"/><use x="133.0000000000" y="235.0000000000" xlink:href="#block"/><use x="151.0000000000" y="235.0000000000" xlink:href="#block"/><use x="181.0000000000" y="235.0000000000" xlink:href="#block"/><use x="187.0000000000" y="235.0000000000" xlink:href="#block"/><use x="193.0000000000" y="235.0000000000" xlink:href="#block"/><use x="223.0000000000" y="235.0000000000" xlink:href="#block"/><use x="235.0000000000" y="235.0000000000" xlink:href="#block"/><use x="247.0000000000" y="235.0000000000" xlink:href="#block"/><use x="283.0000000000" y="235.0000000000" xlink:href="#block"/><use x="289.0000000000" y="235.0000000000" xlink:href="#block"/><use x="25.0000000000" y="241.0000000000" xlink:href="#block"/><use x="43.0000000000" y="241.0000000000" xlink:href="#block"/><use x="49.0000000000" y="241.0000000000" xlink:href="#block"/><use x="61.0000000000" y="241.0000000000" xlink:href="#block"/><use x="67.0000000000" y="241.0000000000" xlink:href="#block"/><use x="73.0000000000" y="241.0000000000" xlink:href="#block"/><use x="79.0000000000" y="241.0000000000" xlink:href="#block"/><use x="85.0000000000" y="241.0000000000" xlink:href="#block"/><use x="97.0000000000" y="241.0000000000" xlink:href="#block"/><use x="103.0000000000" y="241.0000000000" xlink:href="#block"/><use x="115.0000000000" y="241.0000000000" xlink:href="#block"/><use x="121.0000000000" y="241.0000000000" xlink:href="#block"/><use x="133.0000000000" y="241.0000000000" xlink:href="#block"/><use x="139.0000000000" y="241.0000000000" xlink:href="#block"/><use x="145.0000000000" y="241.0000000000" xlink:href="#block"/><use x="151.0000000000" y="241.0000000000" xlink:href="#block"/><use x="157.0000000000" y="241.0000000000" xlink:href="#block"/><use x="163.0000000000" y="241.0000000000" xlink:href="#block"/><use x="169.0000000000" y="241.0000000000" xlink:href="#block"/><use x="175.0000000000" y="241.0000000000" xlink:href="#block"/><use x="181.0000000000" y="241.0000000000" xlink:href="#block"/><use x="193.0000000000" y="241.0000000000" xlink:href="#block"/><use x="199.0000000000" y="241.0000000000" xlink:href="#block"/><use x="211.0000000000" y="241.0000000000" xlink:href="#block"/><use x="223.0000000000" y="241.0000000000" xlink:href="#block"/><use x="229.0000000000" y="241.0000000000" xlink:href="#block"/><use x="235.0000000000" y="241.0000000000" xlink:href="#block"/><use x="241.0000000000" y="241.0000000000" xlink:href="#block"/><use x="247.0000000000" y="241.0000000000" xlink:href="#block"/><use x="253.0000000000" y="241.0000000000" xlink:href="#block"/><use x="259.0000000000" y="241.0000000000" xlink:href="#block"/><use x="265.0000000000" y="241.0000000000" xlink:href="#block"/><use x="277.0000000000" y="241.0000000000" xlink:href="#block"/><use x="283.0000000000" y="241.0000000000" xlink:href="#block"/><use x="73.0000000000" y="247.0000000000" xlink:href="#block"/><use x="79.0000000000" y="247.0000000000" xlink:href="#block"/><use x="85.0000000000" y="247.0000000000" xlink:href="#block"/><use x="103.0000000000" y="247.0000000000" xlink:href="#block"/><use x="109.0000000000" y="247.0000000000" xlink:href="#block"/><use x="127.0000000000" y="247.0000000000" xlink:href="#block"/><use x="133.0000000000" y="247.0000000000" xlink:href="#block"/><use x="139.0000000000" y="247.0000000000" xlink:href="#block"/><use x="145.0000000000" y="247.0000000000" xlink:href="#block"/><use x="169.0000000000" y="247.0000000000" xlink:href="#block"/><use x="175.0000000000" y="247.0000000000" xlink:href="#block"/><use x="181.0000000000" y="247.0000000000" xlink:href="#block"/><use x="187.0000000000" y="247.0000000000" xlink:href="#block"/><use x="199.0000000000" y="247.0000000000" xlink:href="#block"/><use x="211.0000000000" y="247.0000000000" xlink:href="#block"/><use x="217.0000000000" y="247.0000000000" xlink:href="#block"/><use x="229.0000000000" y="247.0000000000" xlink:href="#block"/><use x="241.0000000000" y="247.0000000000" xlink:href="#block"/><use x="265.0000000000" y="247.0000000000" xlink:href="#block"/><use x="271.0000000000" y="247.0000000000" xlink:href="#block"/><use x="277.0000000000" y="247.0000000000" xlink:href="#block"/><use x="25.0000000000" y="253.0000000000" xlink:href="#block"/><use x="31.0000000000" y="253.0000000000" xlink:href="#block"/><use x="37.0000000000" y="253.0000000000" xlink:href="#block"/><use x="43.0000000000" y="253.0000000000" xlink:href="#block"/><use x="49.0000000000" y="253.0000000000" xlink:href="#block"/><use x="55.0000000000" y="253.0000000000" xlink:href="#block"/><use x="61.0000000000" y="253.0000000000" xlink:href="#block"/><use x="79.0000000000" y="253.0000000000" xlink:href="#block"/><use x="97.0000000000" y="253.0000000000" xlink:href="#block"/><use x="103.0000000000" y="253.0000000000" xlink:href="#block"/><use x="139.0000000000" y="253.0000000000" xlink:href="#block"/><use x="145.0000000000" y="253.0000000000" xlink:href="#block"/><use x="157.0000000000" y="253.0000000000" xlink:href="#block"/><use x="169.0000000000" y="253.0000000000" xlink:href="#block"/><use x="181.0000000000" y="253.0000000000" xlink:href="#block"/><use x="193.0000000000" y="253.0000000000" xlink:href="#block"/><use x="199.0000000000" y="253.0000000000" xlink:href="#block"/><use x="211.0000000000" y="253.0000000000" xlink:href="#block"/><use x="229.0000000000" y="253.0000000000" xlink:href="#block"/><use x="235.0000000000" y="253.0000000000" xlink:href="#block"/><use x="241.0000000000" y="253.0000000000" xlink:href="#block"/><use x="253.0000000000" y="253.0000000000" xlink:href="#block"/><use x="265.0000000000" y="253.0000000000" xlink:href="#block"/><use x="25.0000000000" y="259.0000000000" xlink:href="#block"/><use x="61.0000000000" y="259.0000000000" xlink:href="#block"/><use x="91.0000000000" y="259.0000000000" xlink:href="#block"/><use x="97.0000000000" y="259.0000000000" xlink:href="#block"/><use x="115.0000000000" y="259.0000000000" xlink:href="#block"/><use x="121.0000000000" y="259.0000000000" xlink:href="#block"/><use x="133.0000000000" y="259.0000000000" xlink:href="#block"/><use x="139.0000000000" y="259.0000000000" xlink:href="#block"/><use x="145.0000000000" y="259.0000000000" xlink:href="#block"/><use x="169.0000000000" y="259.0000000000" xlink:href="#block"/><use x="181.0000000000" y="259.0000000000" xlink:href="#block"/><use x="187.0000000000" y="259.0000000000" xlink:href="#block"/><use x="193.0000000000" y="259.0000000000" xlink:href="#block"/><use x="211.0000000000" y="259.0000000000" xlink:href="#block"/><use x="217.0000000000" y="259.0000000000" xlink:href="#block"/><use x="223.0000000000" y="259.0000000000" xlink:href="#block"/><use x="241.0000000000" y="259.0000000000" xlink:href="#block"/><use x="265.0000000000" y="259.0000000000" xlink:href="#block"/><use x="283.0000000000" y="259.0000000000" xlink:href="#block"/><use x="289.0000000000" y="259.0000000000" xlink:href="#block"/><use x="25.0000000000" y="265.0000000000" xlink:href="#block"/><use x="37.0000000000" y="265.0000000000" xlink:href="#block"/><use x="43.0000000000" y="265.0000000000" xlink:href="#block"/><use x="49.0000000000" y="265.0000000000" xlink:href="#block"/><use x="61.0000000000" y="265.0000000000" xlink:href="#block"/><use x="73.0000000000" y="265.0000000000" xlink:href="#block"/><use x="85.0000000000" y="265.0000000000" xlink:href="#block"/><use x="103.0000000000" y="265.0000000000" xlink:href="#block"/><use x="109.0000000000" y="265.0000000000" xlink:href="#block"/><use x="115.0000000000" y="265.0000000000" xlink:href="#block"/><use x="121.0000000000" y="265.0000000000" xlink:href="#block"/><use x="133.0000000000" y="265.0000000000" xlink:href="#block"/><use x="139.0000000000" y="265.0000000000" xlink:href="#block"/><use x="145.0000000000" y="265.0000000000" xlink:href="#block"/><use x="151.0000000000" y="265.0000000000" xlink:href="#block"/><use x="157.0000000000" y="265.0000000000" xlink:href="#block"/><use x="163.0000000000" y="265.0000000000" xlink:href="#block"/><use x="169.0000000000" y="265.0000000000" xlink:href="#block"/><use x="175.0000000000" y="265.0000000000" xlink:href="#block"/><use x="181.0000000000" y="265.0000000000" xlink:href="#block"/><use x="187.0000000000" y="265.0000000000" xlink:href="#block"/><use x="205.0000000000" y="265.0000000000" xlink:href="#block"/><use x="211.0000000000" y="265.0000000000" xlink:href="#block"/><use x="217.0000000000" y="265.0000000000" xlink:href="#block"/><use x="229.0000000000" y="265.0000000000" xlink:href="#block"/><use x="241.0000000000" y="265.0000000000" xlink:href="#block"/><use x="247.0000000000" y="265.0000000000" xlink:href="#block"/><use x="253.0000000000" y="265.0000000000" xlink:href="#block"/><use x="259.0000000000" y="265.0000000000" xlink:href="#block"/><use x="265.0000000000" y="265.0000000000" xlink:href="#block"/><use x="271.0000000000" y="265.0000000000" xlink:href="#block"/><use x="277.0000000000" y="265.0000000000" xlink:href="#block"/><use x="283.0000000000" y="265.0000000000" xlink:href="#block"/><use x="25.0000000000" y="271.0000000000" xlink:href="#block"/><use x="37.0000000000" y="271.0000000000" xlink:href="#block"/><use x="43.0000000000" y="271.0000000000" xlink:href="#block"/><use x="49.0000000000" y="271.0000000000" xlink:href="#block"/><use x="61.0000000000" y="271.0000000000" xlink:href="#block"/><use x="73.0000000000" y="271.0000000000" xlink:href="#block"/><use x="97.0000000000" y="271.0000000000" xlink:href="#block"/><use x="121.0000000000" y="271.0000000000" xlink:href="#block"/><use x="127.0000000000" y="271.0000000000" xlink:href="#block"/><use x="139.0000000000" y="271.0000000000" xlink:href="#block"/><use x="163.0000000000" y="271.0000000000" xlink:href="#block"/><use x="169.0000000000" y="271.0000000000" xlink:href="#block"/><use x="187.0000000000" y="271.0000000000" xlink:href="#block"/><use x="193.0000000000" y="271.0000000000" xlink:href="#block"/><use x="205.0000000000" y="271.0000000000" xlink:href="#block"/><use x="217.0000000000" y="271.0000000000" xlink:href="#block"/><use x="223.0000000000" y="271.0000000000" xlink:href="#block"/><use x="241.0000000000" y="271.0000000000" xlink:href="#block"/><use x="247.0000000000" y="271.0000000000" xlink:href="#block"/><use x="265.0000000000" y="271.0000000000" xlink:href="#block"/><use x="277.0000000000" y="271.0000000000" xlink:href="#block"/><use x="283.0000000000" y="271.0000000000" xlink:href="#block"/><use x="25.0000000000" y="277.0000000000" xlink:href="#block"/><use x="37.0000000000" y="277.0000000000" xlink:href="#block"/><use x="43.0000000000" y="277.0000000000" xlink:href="#block"/><use x="49.0000000000" y="277.0000000000" xlink:href="#block"/><use x="61.0000000000" y="277.0000000000" xlink:href="#block"/><use x="73.0000000000" y="277.0000000000" xlink:href="#block"/><use x="79.0000000000" y="277.0000000000" xlink:href="#block"/><use x="103.0000000000" y="277.0000000000" xlink:href="#block"/><use x="115.0000000000" y="277.0000000000" xlink:href="#block"/><use x="127.0000000000" y="277.0000000000" xlink:href="#block"/><use x="139.0000000000" y="277.0000000000" xlink:href="#block"/><use x="145.0000000000" y="277.0000000000" xlink:href="#block"/><use x="169.0000000000" y="277.0000000000" xlink:href="#block"/><use x="175.0000000000" y="277.0000000000" xlink:href="#block"/><use x="187.0000000000" y="277.0000000000" xlink:href="#block"/><use x="193.0000000000" y="277.0000000000" xlink:href="#block"/><use x="199.0000000000" y="277.0000000000" xlink:href="#block"/><use x="205.0000000000" y="277.0000000000" xlink:href="#block"/><use x="229.0000000000" y="277.0000000000" xlink:href="#block"/><use x="235.0000000000" y="277.0000000000" xlink:href="#block"/><use x="247.0000000000" y="277.0000000000" xlink:href="#block"/><use x="253.0000000000" y="277.0000000000" xlink:href="#block"/><use x="259.0000000000" y="277.0000000000" xlink:href="#block"/><use x="25.0000000000" y="283.0000000000" xlink:href="#block"/><use x="61.0000000000" y="283.0000000000" xlink:href="#block"/><use x="91.0000000000" y="283.0000000000" xlink:href="#block"/><use x="97.0000000000" y="283.0000000000" xlink:href="#block"/><use x="103.0000000000" y="283.0000000000" xlink:href="#block"/><use x="115.0000000000" y="283.0000000000" xlink:href="#block"/><use x="127.0000000000" y="283.0000000000" xlink:href="#block"/><use x="157.0000000000" y="283.0000000000" xlink:href="#block"/><use x="193.0000000000" y="283.0000000000" xlink:href="#block"/><use x="211.0000000000" y="283.0000000000" xlink:href="#block"/><use x="223.0000000000" y="283.0000000000" xlink:href="#block"/><use x="265.0000000000" y="283.0000000000" xlink:href="#block"/><use x="271.0000000000" y="283.0000000000" xlink:href="#block"/><use x="283.0000000000" y="283.0000000000" xlink:href="#block"/><use x="289.0000000000" y="283.0000000000" xlink:href="#block"/><use x="25.0000000000" y="289.0000000000" xlink:href="#block"/><use x="31.0000000000" y="289.0000000000" xlink:href="#block"/><use x="37.0000000000" y="289.0000000000" xlink:href="#block"/><use x="43.0000000000" y="289.0000000000" xlink:href="#block"/><use x="49.0000000000" y="289.0000000000" xlink:href="#block"/><use x="55.0000000000" y="289.0000000000" xlink:href="#block"/><use x="61.0000000000" y="289.0000000000" xlink:href="#block"/><use x="109.0000000000" y="289.0000000000" xlink:href="#block"/><use x="121.0000000000" y="289.0000000000" xlink:href="#block"/><use x="127.0000000000" y="289.0000000000" xlink:href="#block"/><use x="139.0000000000" y="289.0000000000" xlink:href="#block"/><use x="145.0000000000" y="289.0000000000" xlink:href="#block"/><use x="151.0000000000" y="289.0000000000" xlink:href="#block"/><use x="157.0000000000" y="289.0000000000" xlink:href="#block"/><use x="169.0000000000" y="289.0000000000" xlink:href="#block"/><use x="181.0000000000" y="289.0000000000" xlink:href="#block"/><use x="193.0000000000" y="289.0000000000" xlink:href="#block"/><use x="211.0000000000" y="289.0000000000" xlink:href="#block"/><use x="217.0000000000" y="289.0000000000" xlink:href="#block"/><use x="229.0000000000" y="289.0000000000" xlink:href="#block"/><use x="235.0000000000" y="289.0000000000" xlink:href="#block"/><use x="241.0000000000" y="289.0000000000" xlink:href="#block"/><use x="283.0000000000" y="289.0000000000" xlink:href="#block"/></svg>
