<svg id="svg" version="1.1" xmlns="http://www.w3.org/2000/svg" xmlns:xlink="http://www.w3.org/1999/xlink" width="400" height="400" viewBox="0, 0, 400,400"><g id="svgg"><path id="path0" d="M65.011 137.178 C 41.184 168.938,20.480 198.075,19.003 201.925 C 17.525 205.776,37.020 236.293,62.325 269.741 L 108.333 330.556 110.013 301.389 L 111.692 272.222 200.290 272.222 L 288.889 272.222 288.889 303.733 L 288.889 335.243 336.111 272.222 C 392.715 196.681,392.532 213.879,337.500 141.138 L 291.667 80.556 289.987 109.722 L 288.308 138.889 199.987 138.889 L 111.666 138.889 109.999 109.160 L 108.333 79.431 65.011 137.178 M116.667 169.444 C 116.667 174.630,111.420 177.778,102.778 177.778 C 83.070 177.778,85.497 190.946,106.944 200.386 C 143.871 216.639,129.620 250.000,85.749 250.000 C 65.110 250.000,68.728 234.382,89.850 232.296 C 112.738 230.036,116.293 218.362,96.398 210.798 C 71.466 201.319,65.444 185.350,80.952 169.841 C 92.229 158.565,116.667 158.293,116.667 169.444 M155.605 177.897 C 165.740 202.364,170.989 202.962,181.533 180.852 C 197.591 147.178,205.556 155.368,205.556 205.556 C 205.556 253.365,196.193 267.157,193.300 223.611 L 191.546 197.222 183.770 212.500 C 179.493 220.903,172.854 227.778,169.016 227.778 C 165.177 227.778,159.526 220.903,156.457 212.500 C 151.317 198.426,150.843 199.301,150.439 223.611 C 150.114 243.169,147.843 250.000,141.667 250.000 C 134.954 250.000,133.333 241.358,133.333 205.556 C 133.333 156.997,142.323 145.833,155.605 177.897 M261.111 169.444 C 261.111 174.028,258.611 177.778,255.556 177.778 C 252.422 177.778,250.000 193.519,250.000 213.889 C 250.000 242.284,248.219 250.000,241.667 250.000 C 235.114 250.000,233.333 242.284,233.333 213.889 C 233.333 185.494,231.553 177.778,225.000 177.778 C 220.417 177.778,216.667 174.028,216.667 169.444 C 216.667 163.426,222.840 161.111,238.889 161.111 C 254.938 161.111,261.111 163.426,261.111 169.444 M319.048 169.841 C 337.129 187.923,326.460 216.667,301.667 216.667 C 291.173 216.667,288.889 219.646,288.889 233.333 C 288.889 244.444,286.111 250.000,280.556 250.000 C 273.843 250.000,272.222 241.358,272.222 205.556 L 272.222 161.111 291.270 161.111 C 301.746 161.111,314.246 165.040,319.048 169.841 M288.889 188.482 C 288.889 196.432,292.457 200.000,300.407 200.000 C 308.358 200.000,311.350 197.008,310.066 190.342 C 307.277 175.860,288.889 174.245,288.889 188.482 " stroke="none" fill="#000000" fill-rule="evenodd"></path></g></svg>