<svg fill="none" height="29" viewBox="0 0 93 29" width="93" xmlns="http://www.w3.org/2000/svg"><path d="m73.9976 11.2139h-2.0541v1.0299c-.7133-.7922-1.6805-1.2438-2.784-1.2438-2.4104 0-4.1595 2.0098-4.1595 4.785 0 2.6737 1.7483 4.6328 4.1421 4.6328 1.1193 0 1.969-.3747 2.8014-1.277v1.2438c0 1.8561-.7299 2.7759-2.2575 2.7759-.815 0-1.63-.4088-1.9863-1.0378-.2034-.3565-.272-.6972-.339-1.4656h-2.0021c.0174 2.6737 1.6632 4.3429 4.3117 4.3429 1.511 0 2.8352-.6132 3.5651-1.7191.5943-.8516.7646-1.6351.7646-3.3725zm-4.4645 1.6003c1.4771 0 2.4955 1.1582 2.4955 2.8519 0 1.7374-.9852 2.8956-2.4616 2.8956-1.4937 0-2.4616-1.125-2.4616-2.8615-.0174-1.7373.9506-2.8781 2.4277-2.8781z" fill="#c02126"/><path d="m33 10.929v9.7822h2.1438v-5.0494c0-2.0758.5359-2.9736 1.7422-2.9736.9649 0 1.4294.8412 1.4294 2.5995v5.4243h2.1438v-5.0502c0-2.095.536-2.9736 1.7422-2.9736 1.0371 0 1.4295.729 1.4295 2.5812v5.4426h2.1438v-6.042c0-2.61-1.0719-4.0019-3.1526-4.0019-1.1433 0-2.0907.5045-2.7519 1.4398-.5808-.9353-1.4477-1.4398-2.4839-1.4398-.9292 0-1.4104.2609-2.2152 1.1596v-.8987zm20.8337 0v1.131c-.9292-.9918-1.7422-1.4024-2.9037-1.4024-2.5013 0-4.4136 2.188-4.4136 5.0877 0 3.0676 1.8583 5.2547 4.4667 5.2547 1.1258 0 1.8584-.355 2.8589-1.3276v1.0283h2.162v-9.7717zm-2.537 1.7574c1.5721 0 2.6548 1.3093 2.6548 3.1424 0 1.8879-1.0901 3.1607-2.6548 3.1607-1.5182 0-2.591-1.3276-2.591-3.1607 0-1.8139 1.1076-3.1424 2.591-3.1424zm8.5585-1.7574h-2.1621v9.7822h2.1621zm-1.0537-5.44258c-.8047 0-1.4294.65423-1.4294 1.45896 0 .80474.6429 1.49551 1.3946 1.49551.7865 0 1.4294-.67337 1.4294-1.49638 0-.823-.6255-1.45896-1.3937-1.45896zm3.0365-2.48642h2.162v17.7129h-2.162z" fill="#646569"/><path d="m77.7555 11.0593h-2.1534v5.415c0 1.4655.2668 2.2694.9788 3.0383.7476.7681 1.7611 1.1804 2.9886 1.1804 1.2456 0 2.2592-.3932 3.0068-1.1804.7103-.7681.9788-1.5728.9788-3.0383v-5.415h-2.1526v5.3784c0 1.5902-.5783 2.3234-1.8322 2.3234-1.2456 0-1.8148-.7315-1.8148-2.3234zm7.222 0v9.3469h2.1527v-4.5038c0-2.3052.5336-3.1456 1.9825-3.1456 1.334 0 1.7347.6068 1.7347 2.4481v5.2188h2.1526v-5.7358c0-2.6269-1.0854-3.8605-3.362-3.8605-1.0143 0-1.6545.286-2.4905 1.1081v-.8579h-2.1708zm-70.5144-2.02579c-1.4492.00131-2.8389.58062-3.8644 1.61099-1.02563 1.0304-1.60359 2.4279-1.60731 3.8863.00372 1.4584.58168 2.8558 1.60731 3.8862 1.0255 1.0304 2.4152 1.6097 3.8644 1.611 1.4492-.0013 2.8388-.5806 3.8643-1.611 1.0256-1.0304 1.6036-2.4278 1.6073-3.8862-.0037-1.4584-.5817-2.8559-1.6073-3.8863-1.0255-1.03037-2.4151-1.60968-3.8643-1.61099zm-8.51813 5.49729c.00351-2.2711.90254-4.4478 2.49966-6.05228 1.59707-1.60445 3.76177-2.50539 6.01847-2.50495 4.7017 0 8.518 3.82388 8.518 8.55723 0 .3266-.0297.6234-.0594.921-.0595.8313.5327 1.4548 1.3604 1.4548 1.3902 0 1.5381-1.8122 1.5381-2.4066 0-6.32853-5.0884-11.4384-11.3877-11.4384-6.29936 0-11.38691 5.1107-11.38691 11.4392 0 6.3286 5.08838 11.4384 11.38771 11.4384 3.3422 0 6.3299-1.4547 8.4297-3.7441l2.3377 1.9619c-2.6326 2.971-6.4778 4.843-10.7666 4.843-7.98607 0-14.4341-6.5073-14.4341-14.5 0-8.02184 6.47777-14.5 14.4341-14.5 7.9861 0 14.4342 6.50725 14.4342 14.5 0 3.2087-1.5381 5.8239-4.5845 5.8239-1.3605 0-2.1593-.6234-2.6326-1.3076-1.5083 2.4357-4.1715 4.0401-7.2468 4.0401-4.64397.0299-8.4586-3.8031-8.4586-8.5273zm8.51813-2.5255c1.3902 0 2.5144 1.1289 2.5144 2.4955 0 .671-.2649 1.3145-.7363 1.789-.4715.4745-1.111.741-1.7777.741-.6668 0-1.3063-.2665-1.7777-.741-.4715-.4745-.7364-1.118-.7364-1.789.0298-1.3666 1.1234-2.4955 2.5145-2.4955z" fill="#c02126"/></svg>